G04 #@! TF.GenerationSoftware,KiCad,Pcbnew,9.0.6*
G04 #@! TF.CreationDate,2025-12-19T00:03:08+05:30*
G04 #@! TF.ProjectId,macropad,6d616372-6f70-4616-942e-6b696361645f,rev?*
G04 #@! TF.SameCoordinates,Original*
G04 #@! TF.FileFunction,Legend,Top*
G04 #@! TF.FilePolarity,Positive*
%FSLAX46Y46*%
G04 Gerber Fmt 4.6, Leading zero omitted, Abs format (unit mm)*
G04 Created by KiCad (PCBNEW 9.0.6) date 2025-12-19 00:03:08*
%MOMM*%
%LPD*%
G01*
G04 APERTURE LIST*
%ADD10C,0.200000*%
%ADD11C,0.150000*%
%ADD12C,0.101600*%
%ADD13C,0.120000*%
%ADD14C,0.504000*%
%ADD15C,0.127000*%
%ADD16C,0.100000*%
G04 APERTURE END LIST*
D10*
X155473810Y-106266895D02*
X155473810Y-105466895D01*
X155473810Y-105466895D02*
X155740476Y-106038323D01*
X155740476Y-106038323D02*
X156007143Y-105466895D01*
X156007143Y-105466895D02*
X156007143Y-106266895D01*
X156350000Y-106038323D02*
X156730953Y-106038323D01*
X156273810Y-106266895D02*
X156540477Y-105466895D01*
X156540477Y-105466895D02*
X156807143Y-106266895D01*
X157530953Y-106190704D02*
X157492857Y-106228800D01*
X157492857Y-106228800D02*
X157378572Y-106266895D01*
X157378572Y-106266895D02*
X157302381Y-106266895D01*
X157302381Y-106266895D02*
X157188095Y-106228800D01*
X157188095Y-106228800D02*
X157111905Y-106152609D01*
X157111905Y-106152609D02*
X157073810Y-106076419D01*
X157073810Y-106076419D02*
X157035714Y-105924038D01*
X157035714Y-105924038D02*
X157035714Y-105809752D01*
X157035714Y-105809752D02*
X157073810Y-105657371D01*
X157073810Y-105657371D02*
X157111905Y-105581180D01*
X157111905Y-105581180D02*
X157188095Y-105504990D01*
X157188095Y-105504990D02*
X157302381Y-105466895D01*
X157302381Y-105466895D02*
X157378572Y-105466895D01*
X157378572Y-105466895D02*
X157492857Y-105504990D01*
X157492857Y-105504990D02*
X157530953Y-105543085D01*
X158330953Y-106266895D02*
X158064286Y-105885942D01*
X157873810Y-106266895D02*
X157873810Y-105466895D01*
X157873810Y-105466895D02*
X158178572Y-105466895D01*
X158178572Y-105466895D02*
X158254762Y-105504990D01*
X158254762Y-105504990D02*
X158292857Y-105543085D01*
X158292857Y-105543085D02*
X158330953Y-105619276D01*
X158330953Y-105619276D02*
X158330953Y-105733561D01*
X158330953Y-105733561D02*
X158292857Y-105809752D01*
X158292857Y-105809752D02*
X158254762Y-105847847D01*
X158254762Y-105847847D02*
X158178572Y-105885942D01*
X158178572Y-105885942D02*
X157873810Y-105885942D01*
X158826191Y-105466895D02*
X158978572Y-105466895D01*
X158978572Y-105466895D02*
X159054762Y-105504990D01*
X159054762Y-105504990D02*
X159130953Y-105581180D01*
X159130953Y-105581180D02*
X159169048Y-105733561D01*
X159169048Y-105733561D02*
X159169048Y-106000228D01*
X159169048Y-106000228D02*
X159130953Y-106152609D01*
X159130953Y-106152609D02*
X159054762Y-106228800D01*
X159054762Y-106228800D02*
X158978572Y-106266895D01*
X158978572Y-106266895D02*
X158826191Y-106266895D01*
X158826191Y-106266895D02*
X158750000Y-106228800D01*
X158750000Y-106228800D02*
X158673810Y-106152609D01*
X158673810Y-106152609D02*
X158635714Y-106000228D01*
X158635714Y-106000228D02*
X158635714Y-105733561D01*
X158635714Y-105733561D02*
X158673810Y-105581180D01*
X158673810Y-105581180D02*
X158750000Y-105504990D01*
X158750000Y-105504990D02*
X158826191Y-105466895D01*
X159511905Y-106266895D02*
X159511905Y-105466895D01*
X159511905Y-105466895D02*
X159816667Y-105466895D01*
X159816667Y-105466895D02*
X159892857Y-105504990D01*
X159892857Y-105504990D02*
X159930952Y-105543085D01*
X159930952Y-105543085D02*
X159969048Y-105619276D01*
X159969048Y-105619276D02*
X159969048Y-105733561D01*
X159969048Y-105733561D02*
X159930952Y-105809752D01*
X159930952Y-105809752D02*
X159892857Y-105847847D01*
X159892857Y-105847847D02*
X159816667Y-105885942D01*
X159816667Y-105885942D02*
X159511905Y-105885942D01*
X160273809Y-106038323D02*
X160654762Y-106038323D01*
X160197619Y-106266895D02*
X160464286Y-105466895D01*
X160464286Y-105466895D02*
X160730952Y-106266895D01*
X160997619Y-106266895D02*
X160997619Y-105466895D01*
X160997619Y-105466895D02*
X161188095Y-105466895D01*
X161188095Y-105466895D02*
X161302381Y-105504990D01*
X161302381Y-105504990D02*
X161378571Y-105581180D01*
X161378571Y-105581180D02*
X161416666Y-105657371D01*
X161416666Y-105657371D02*
X161454762Y-105809752D01*
X161454762Y-105809752D02*
X161454762Y-105924038D01*
X161454762Y-105924038D02*
X161416666Y-106076419D01*
X161416666Y-106076419D02*
X161378571Y-106152609D01*
X161378571Y-106152609D02*
X161302381Y-106228800D01*
X161302381Y-106228800D02*
X161188095Y-106266895D01*
X161188095Y-106266895D02*
X160997619Y-106266895D01*
D11*
X117366667Y-96983200D02*
X117509524Y-97030819D01*
X117509524Y-97030819D02*
X117747619Y-97030819D01*
X117747619Y-97030819D02*
X117842857Y-96983200D01*
X117842857Y-96983200D02*
X117890476Y-96935580D01*
X117890476Y-96935580D02*
X117938095Y-96840342D01*
X117938095Y-96840342D02*
X117938095Y-96745104D01*
X117938095Y-96745104D02*
X117890476Y-96649866D01*
X117890476Y-96649866D02*
X117842857Y-96602247D01*
X117842857Y-96602247D02*
X117747619Y-96554628D01*
X117747619Y-96554628D02*
X117557143Y-96507009D01*
X117557143Y-96507009D02*
X117461905Y-96459390D01*
X117461905Y-96459390D02*
X117414286Y-96411771D01*
X117414286Y-96411771D02*
X117366667Y-96316533D01*
X117366667Y-96316533D02*
X117366667Y-96221295D01*
X117366667Y-96221295D02*
X117414286Y-96126057D01*
X117414286Y-96126057D02*
X117461905Y-96078438D01*
X117461905Y-96078438D02*
X117557143Y-96030819D01*
X117557143Y-96030819D02*
X117795238Y-96030819D01*
X117795238Y-96030819D02*
X117938095Y-96078438D01*
X118271429Y-96030819D02*
X118509524Y-97030819D01*
X118509524Y-97030819D02*
X118700000Y-96316533D01*
X118700000Y-96316533D02*
X118890476Y-97030819D01*
X118890476Y-97030819D02*
X119128572Y-96030819D01*
X119938095Y-96364152D02*
X119938095Y-97030819D01*
X119700000Y-95983200D02*
X119461905Y-96697485D01*
X119461905Y-96697485D02*
X120080952Y-96697485D01*
D12*
X151239390Y-40891879D02*
X151239390Y-41405926D01*
X151239390Y-41405926D02*
X151269628Y-41466402D01*
X151269628Y-41466402D02*
X151299866Y-41496641D01*
X151299866Y-41496641D02*
X151360342Y-41526879D01*
X151360342Y-41526879D02*
X151481295Y-41526879D01*
X151481295Y-41526879D02*
X151541771Y-41496641D01*
X151541771Y-41496641D02*
X151572009Y-41466402D01*
X151572009Y-41466402D02*
X151602247Y-41405926D01*
X151602247Y-41405926D02*
X151602247Y-40891879D01*
X152237247Y-41526879D02*
X151874390Y-41526879D01*
X152055818Y-41526879D02*
X152055818Y-40891879D01*
X152055818Y-40891879D02*
X151995342Y-40982593D01*
X151995342Y-40982593D02*
X151934866Y-41043069D01*
X151934866Y-41043069D02*
X151874390Y-41073307D01*
D11*
X153966667Y-83807200D02*
X154109524Y-83854819D01*
X154109524Y-83854819D02*
X154347619Y-83854819D01*
X154347619Y-83854819D02*
X154442857Y-83807200D01*
X154442857Y-83807200D02*
X154490476Y-83759580D01*
X154490476Y-83759580D02*
X154538095Y-83664342D01*
X154538095Y-83664342D02*
X154538095Y-83569104D01*
X154538095Y-83569104D02*
X154490476Y-83473866D01*
X154490476Y-83473866D02*
X154442857Y-83426247D01*
X154442857Y-83426247D02*
X154347619Y-83378628D01*
X154347619Y-83378628D02*
X154157143Y-83331009D01*
X154157143Y-83331009D02*
X154061905Y-83283390D01*
X154061905Y-83283390D02*
X154014286Y-83235771D01*
X154014286Y-83235771D02*
X153966667Y-83140533D01*
X153966667Y-83140533D02*
X153966667Y-83045295D01*
X153966667Y-83045295D02*
X154014286Y-82950057D01*
X154014286Y-82950057D02*
X154061905Y-82902438D01*
X154061905Y-82902438D02*
X154157143Y-82854819D01*
X154157143Y-82854819D02*
X154395238Y-82854819D01*
X154395238Y-82854819D02*
X154538095Y-82902438D01*
X154871429Y-82854819D02*
X155109524Y-83854819D01*
X155109524Y-83854819D02*
X155300000Y-83140533D01*
X155300000Y-83140533D02*
X155490476Y-83854819D01*
X155490476Y-83854819D02*
X155728572Y-82854819D01*
X156585714Y-82854819D02*
X156109524Y-82854819D01*
X156109524Y-82854819D02*
X156061905Y-83331009D01*
X156061905Y-83331009D02*
X156109524Y-83283390D01*
X156109524Y-83283390D02*
X156204762Y-83235771D01*
X156204762Y-83235771D02*
X156442857Y-83235771D01*
X156442857Y-83235771D02*
X156538095Y-83283390D01*
X156538095Y-83283390D02*
X156585714Y-83331009D01*
X156585714Y-83331009D02*
X156633333Y-83426247D01*
X156633333Y-83426247D02*
X156633333Y-83664342D01*
X156633333Y-83664342D02*
X156585714Y-83759580D01*
X156585714Y-83759580D02*
X156538095Y-83807200D01*
X156538095Y-83807200D02*
X156442857Y-83854819D01*
X156442857Y-83854819D02*
X156204762Y-83854819D01*
X156204762Y-83854819D02*
X156109524Y-83807200D01*
X156109524Y-83807200D02*
X156061905Y-83759580D01*
X117366667Y-81893200D02*
X117509524Y-81940819D01*
X117509524Y-81940819D02*
X117747619Y-81940819D01*
X117747619Y-81940819D02*
X117842857Y-81893200D01*
X117842857Y-81893200D02*
X117890476Y-81845580D01*
X117890476Y-81845580D02*
X117938095Y-81750342D01*
X117938095Y-81750342D02*
X117938095Y-81655104D01*
X117938095Y-81655104D02*
X117890476Y-81559866D01*
X117890476Y-81559866D02*
X117842857Y-81512247D01*
X117842857Y-81512247D02*
X117747619Y-81464628D01*
X117747619Y-81464628D02*
X117557143Y-81417009D01*
X117557143Y-81417009D02*
X117461905Y-81369390D01*
X117461905Y-81369390D02*
X117414286Y-81321771D01*
X117414286Y-81321771D02*
X117366667Y-81226533D01*
X117366667Y-81226533D02*
X117366667Y-81131295D01*
X117366667Y-81131295D02*
X117414286Y-81036057D01*
X117414286Y-81036057D02*
X117461905Y-80988438D01*
X117461905Y-80988438D02*
X117557143Y-80940819D01*
X117557143Y-80940819D02*
X117795238Y-80940819D01*
X117795238Y-80940819D02*
X117938095Y-80988438D01*
X118271429Y-80940819D02*
X118509524Y-81940819D01*
X118509524Y-81940819D02*
X118700000Y-81226533D01*
X118700000Y-81226533D02*
X118890476Y-81940819D01*
X118890476Y-81940819D02*
X119128572Y-80940819D01*
X119414286Y-80940819D02*
X120033333Y-80940819D01*
X120033333Y-80940819D02*
X119700000Y-81321771D01*
X119700000Y-81321771D02*
X119842857Y-81321771D01*
X119842857Y-81321771D02*
X119938095Y-81369390D01*
X119938095Y-81369390D02*
X119985714Y-81417009D01*
X119985714Y-81417009D02*
X120033333Y-81512247D01*
X120033333Y-81512247D02*
X120033333Y-81750342D01*
X120033333Y-81750342D02*
X119985714Y-81845580D01*
X119985714Y-81845580D02*
X119938095Y-81893200D01*
X119938095Y-81893200D02*
X119842857Y-81940819D01*
X119842857Y-81940819D02*
X119557143Y-81940819D01*
X119557143Y-81940819D02*
X119461905Y-81893200D01*
X119461905Y-81893200D02*
X119414286Y-81845580D01*
X117366667Y-66803200D02*
X117509524Y-66850819D01*
X117509524Y-66850819D02*
X117747619Y-66850819D01*
X117747619Y-66850819D02*
X117842857Y-66803200D01*
X117842857Y-66803200D02*
X117890476Y-66755580D01*
X117890476Y-66755580D02*
X117938095Y-66660342D01*
X117938095Y-66660342D02*
X117938095Y-66565104D01*
X117938095Y-66565104D02*
X117890476Y-66469866D01*
X117890476Y-66469866D02*
X117842857Y-66422247D01*
X117842857Y-66422247D02*
X117747619Y-66374628D01*
X117747619Y-66374628D02*
X117557143Y-66327009D01*
X117557143Y-66327009D02*
X117461905Y-66279390D01*
X117461905Y-66279390D02*
X117414286Y-66231771D01*
X117414286Y-66231771D02*
X117366667Y-66136533D01*
X117366667Y-66136533D02*
X117366667Y-66041295D01*
X117366667Y-66041295D02*
X117414286Y-65946057D01*
X117414286Y-65946057D02*
X117461905Y-65898438D01*
X117461905Y-65898438D02*
X117557143Y-65850819D01*
X117557143Y-65850819D02*
X117795238Y-65850819D01*
X117795238Y-65850819D02*
X117938095Y-65898438D01*
X118271429Y-65850819D02*
X118509524Y-66850819D01*
X118509524Y-66850819D02*
X118700000Y-66136533D01*
X118700000Y-66136533D02*
X118890476Y-66850819D01*
X118890476Y-66850819D02*
X119128572Y-65850819D01*
X119461905Y-65946057D02*
X119509524Y-65898438D01*
X119509524Y-65898438D02*
X119604762Y-65850819D01*
X119604762Y-65850819D02*
X119842857Y-65850819D01*
X119842857Y-65850819D02*
X119938095Y-65898438D01*
X119938095Y-65898438D02*
X119985714Y-65946057D01*
X119985714Y-65946057D02*
X120033333Y-66041295D01*
X120033333Y-66041295D02*
X120033333Y-66136533D01*
X120033333Y-66136533D02*
X119985714Y-66279390D01*
X119985714Y-66279390D02*
X119414286Y-66850819D01*
X119414286Y-66850819D02*
X120033333Y-66850819D01*
X117476667Y-50073200D02*
X117619524Y-50120819D01*
X117619524Y-50120819D02*
X117857619Y-50120819D01*
X117857619Y-50120819D02*
X117952857Y-50073200D01*
X117952857Y-50073200D02*
X118000476Y-50025580D01*
X118000476Y-50025580D02*
X118048095Y-49930342D01*
X118048095Y-49930342D02*
X118048095Y-49835104D01*
X118048095Y-49835104D02*
X118000476Y-49739866D01*
X118000476Y-49739866D02*
X117952857Y-49692247D01*
X117952857Y-49692247D02*
X117857619Y-49644628D01*
X117857619Y-49644628D02*
X117667143Y-49597009D01*
X117667143Y-49597009D02*
X117571905Y-49549390D01*
X117571905Y-49549390D02*
X117524286Y-49501771D01*
X117524286Y-49501771D02*
X117476667Y-49406533D01*
X117476667Y-49406533D02*
X117476667Y-49311295D01*
X117476667Y-49311295D02*
X117524286Y-49216057D01*
X117524286Y-49216057D02*
X117571905Y-49168438D01*
X117571905Y-49168438D02*
X117667143Y-49120819D01*
X117667143Y-49120819D02*
X117905238Y-49120819D01*
X117905238Y-49120819D02*
X118048095Y-49168438D01*
X118381429Y-49120819D02*
X118619524Y-50120819D01*
X118619524Y-50120819D02*
X118810000Y-49406533D01*
X118810000Y-49406533D02*
X119000476Y-50120819D01*
X119000476Y-50120819D02*
X119238572Y-49120819D01*
X120143333Y-50120819D02*
X119571905Y-50120819D01*
X119857619Y-50120819D02*
X119857619Y-49120819D01*
X119857619Y-49120819D02*
X119762381Y-49263676D01*
X119762381Y-49263676D02*
X119667143Y-49358914D01*
X119667143Y-49358914D02*
X119571905Y-49406533D01*
X179261905Y-103579819D02*
X179261905Y-102579819D01*
X179261905Y-102579819D02*
X179500000Y-102579819D01*
X179500000Y-102579819D02*
X179642857Y-102627438D01*
X179642857Y-102627438D02*
X179738095Y-102722676D01*
X179738095Y-102722676D02*
X179785714Y-102817914D01*
X179785714Y-102817914D02*
X179833333Y-103008390D01*
X179833333Y-103008390D02*
X179833333Y-103151247D01*
X179833333Y-103151247D02*
X179785714Y-103341723D01*
X179785714Y-103341723D02*
X179738095Y-103436961D01*
X179738095Y-103436961D02*
X179642857Y-103532200D01*
X179642857Y-103532200D02*
X179500000Y-103579819D01*
X179500000Y-103579819D02*
X179261905Y-103579819D01*
X180404762Y-103008390D02*
X180309524Y-102960771D01*
X180309524Y-102960771D02*
X180261905Y-102913152D01*
X180261905Y-102913152D02*
X180214286Y-102817914D01*
X180214286Y-102817914D02*
X180214286Y-102770295D01*
X180214286Y-102770295D02*
X180261905Y-102675057D01*
X180261905Y-102675057D02*
X180309524Y-102627438D01*
X180309524Y-102627438D02*
X180404762Y-102579819D01*
X180404762Y-102579819D02*
X180595238Y-102579819D01*
X180595238Y-102579819D02*
X180690476Y-102627438D01*
X180690476Y-102627438D02*
X180738095Y-102675057D01*
X180738095Y-102675057D02*
X180785714Y-102770295D01*
X180785714Y-102770295D02*
X180785714Y-102817914D01*
X180785714Y-102817914D02*
X180738095Y-102913152D01*
X180738095Y-102913152D02*
X180690476Y-102960771D01*
X180690476Y-102960771D02*
X180595238Y-103008390D01*
X180595238Y-103008390D02*
X180404762Y-103008390D01*
X180404762Y-103008390D02*
X180309524Y-103056009D01*
X180309524Y-103056009D02*
X180261905Y-103103628D01*
X180261905Y-103103628D02*
X180214286Y-103198866D01*
X180214286Y-103198866D02*
X180214286Y-103389342D01*
X180214286Y-103389342D02*
X180261905Y-103484580D01*
X180261905Y-103484580D02*
X180309524Y-103532200D01*
X180309524Y-103532200D02*
X180404762Y-103579819D01*
X180404762Y-103579819D02*
X180595238Y-103579819D01*
X180595238Y-103579819D02*
X180690476Y-103532200D01*
X180690476Y-103532200D02*
X180738095Y-103484580D01*
X180738095Y-103484580D02*
X180785714Y-103389342D01*
X180785714Y-103389342D02*
X180785714Y-103198866D01*
X180785714Y-103198866D02*
X180738095Y-103103628D01*
X180738095Y-103103628D02*
X180690476Y-103056009D01*
X180690476Y-103056009D02*
X180595238Y-103008390D01*
X177028571Y-105362295D02*
X176571428Y-105362295D01*
X176800000Y-105362295D02*
X176800000Y-104562295D01*
X176800000Y-104562295D02*
X176723809Y-104676580D01*
X176723809Y-104676580D02*
X176647619Y-104752771D01*
X176647619Y-104752771D02*
X176571428Y-104790866D01*
X179261905Y-92704819D02*
X179261905Y-91704819D01*
X179261905Y-91704819D02*
X179500000Y-91704819D01*
X179500000Y-91704819D02*
X179642857Y-91752438D01*
X179642857Y-91752438D02*
X179738095Y-91847676D01*
X179738095Y-91847676D02*
X179785714Y-91942914D01*
X179785714Y-91942914D02*
X179833333Y-92133390D01*
X179833333Y-92133390D02*
X179833333Y-92276247D01*
X179833333Y-92276247D02*
X179785714Y-92466723D01*
X179785714Y-92466723D02*
X179738095Y-92561961D01*
X179738095Y-92561961D02*
X179642857Y-92657200D01*
X179642857Y-92657200D02*
X179500000Y-92704819D01*
X179500000Y-92704819D02*
X179261905Y-92704819D01*
X180166667Y-91704819D02*
X180833333Y-91704819D01*
X180833333Y-91704819D02*
X180404762Y-92704819D01*
X177028571Y-94487295D02*
X176571428Y-94487295D01*
X176800000Y-94487295D02*
X176800000Y-93687295D01*
X176800000Y-93687295D02*
X176723809Y-93801580D01*
X176723809Y-93801580D02*
X176647619Y-93877771D01*
X176647619Y-93877771D02*
X176571428Y-93915866D01*
X179261905Y-77704819D02*
X179261905Y-76704819D01*
X179261905Y-76704819D02*
X179500000Y-76704819D01*
X179500000Y-76704819D02*
X179642857Y-76752438D01*
X179642857Y-76752438D02*
X179738095Y-76847676D01*
X179738095Y-76847676D02*
X179785714Y-76942914D01*
X179785714Y-76942914D02*
X179833333Y-77133390D01*
X179833333Y-77133390D02*
X179833333Y-77276247D01*
X179833333Y-77276247D02*
X179785714Y-77466723D01*
X179785714Y-77466723D02*
X179738095Y-77561961D01*
X179738095Y-77561961D02*
X179642857Y-77657200D01*
X179642857Y-77657200D02*
X179500000Y-77704819D01*
X179500000Y-77704819D02*
X179261905Y-77704819D01*
X180690476Y-76704819D02*
X180500000Y-76704819D01*
X180500000Y-76704819D02*
X180404762Y-76752438D01*
X180404762Y-76752438D02*
X180357143Y-76800057D01*
X180357143Y-76800057D02*
X180261905Y-76942914D01*
X180261905Y-76942914D02*
X180214286Y-77133390D01*
X180214286Y-77133390D02*
X180214286Y-77514342D01*
X180214286Y-77514342D02*
X180261905Y-77609580D01*
X180261905Y-77609580D02*
X180309524Y-77657200D01*
X180309524Y-77657200D02*
X180404762Y-77704819D01*
X180404762Y-77704819D02*
X180595238Y-77704819D01*
X180595238Y-77704819D02*
X180690476Y-77657200D01*
X180690476Y-77657200D02*
X180738095Y-77609580D01*
X180738095Y-77609580D02*
X180785714Y-77514342D01*
X180785714Y-77514342D02*
X180785714Y-77276247D01*
X180785714Y-77276247D02*
X180738095Y-77181009D01*
X180738095Y-77181009D02*
X180690476Y-77133390D01*
X180690476Y-77133390D02*
X180595238Y-77085771D01*
X180595238Y-77085771D02*
X180404762Y-77085771D01*
X180404762Y-77085771D02*
X180309524Y-77133390D01*
X180309524Y-77133390D02*
X180261905Y-77181009D01*
X180261905Y-77181009D02*
X180214286Y-77276247D01*
X177028571Y-79487295D02*
X176571428Y-79487295D01*
X176800000Y-79487295D02*
X176800000Y-78687295D01*
X176800000Y-78687295D02*
X176723809Y-78801580D01*
X176723809Y-78801580D02*
X176647619Y-78877771D01*
X176647619Y-78877771D02*
X176571428Y-78915866D01*
X179261905Y-58579819D02*
X179261905Y-57579819D01*
X179261905Y-57579819D02*
X179500000Y-57579819D01*
X179500000Y-57579819D02*
X179642857Y-57627438D01*
X179642857Y-57627438D02*
X179738095Y-57722676D01*
X179738095Y-57722676D02*
X179785714Y-57817914D01*
X179785714Y-57817914D02*
X179833333Y-58008390D01*
X179833333Y-58008390D02*
X179833333Y-58151247D01*
X179833333Y-58151247D02*
X179785714Y-58341723D01*
X179785714Y-58341723D02*
X179738095Y-58436961D01*
X179738095Y-58436961D02*
X179642857Y-58532200D01*
X179642857Y-58532200D02*
X179500000Y-58579819D01*
X179500000Y-58579819D02*
X179261905Y-58579819D01*
X180738095Y-57579819D02*
X180261905Y-57579819D01*
X180261905Y-57579819D02*
X180214286Y-58056009D01*
X180214286Y-58056009D02*
X180261905Y-58008390D01*
X180261905Y-58008390D02*
X180357143Y-57960771D01*
X180357143Y-57960771D02*
X180595238Y-57960771D01*
X180595238Y-57960771D02*
X180690476Y-58008390D01*
X180690476Y-58008390D02*
X180738095Y-58056009D01*
X180738095Y-58056009D02*
X180785714Y-58151247D01*
X180785714Y-58151247D02*
X180785714Y-58389342D01*
X180785714Y-58389342D02*
X180738095Y-58484580D01*
X180738095Y-58484580D02*
X180690476Y-58532200D01*
X180690476Y-58532200D02*
X180595238Y-58579819D01*
X180595238Y-58579819D02*
X180357143Y-58579819D01*
X180357143Y-58579819D02*
X180261905Y-58532200D01*
X180261905Y-58532200D02*
X180214286Y-58484580D01*
X177028571Y-60362295D02*
X176571428Y-60362295D01*
X176800000Y-60362295D02*
X176800000Y-59562295D01*
X176800000Y-59562295D02*
X176723809Y-59676580D01*
X176723809Y-59676580D02*
X176647619Y-59752771D01*
X176647619Y-59752771D02*
X176571428Y-59790866D01*
X134181905Y-102984819D02*
X134181905Y-101984819D01*
X134181905Y-101984819D02*
X134420000Y-101984819D01*
X134420000Y-101984819D02*
X134562857Y-102032438D01*
X134562857Y-102032438D02*
X134658095Y-102127676D01*
X134658095Y-102127676D02*
X134705714Y-102222914D01*
X134705714Y-102222914D02*
X134753333Y-102413390D01*
X134753333Y-102413390D02*
X134753333Y-102556247D01*
X134753333Y-102556247D02*
X134705714Y-102746723D01*
X134705714Y-102746723D02*
X134658095Y-102841961D01*
X134658095Y-102841961D02*
X134562857Y-102937200D01*
X134562857Y-102937200D02*
X134420000Y-102984819D01*
X134420000Y-102984819D02*
X134181905Y-102984819D01*
X135610476Y-102318152D02*
X135610476Y-102984819D01*
X135372381Y-101937200D02*
X135134286Y-102651485D01*
X135134286Y-102651485D02*
X135753333Y-102651485D01*
X129578095Y-103354819D02*
X129578095Y-102354819D01*
X130149523Y-103354819D02*
X129720952Y-102783390D01*
X130149523Y-102354819D02*
X129578095Y-102926247D01*
X134181905Y-87984819D02*
X134181905Y-86984819D01*
X134181905Y-86984819D02*
X134420000Y-86984819D01*
X134420000Y-86984819D02*
X134562857Y-87032438D01*
X134562857Y-87032438D02*
X134658095Y-87127676D01*
X134658095Y-87127676D02*
X134705714Y-87222914D01*
X134705714Y-87222914D02*
X134753333Y-87413390D01*
X134753333Y-87413390D02*
X134753333Y-87556247D01*
X134753333Y-87556247D02*
X134705714Y-87746723D01*
X134705714Y-87746723D02*
X134658095Y-87841961D01*
X134658095Y-87841961D02*
X134562857Y-87937200D01*
X134562857Y-87937200D02*
X134420000Y-87984819D01*
X134420000Y-87984819D02*
X134181905Y-87984819D01*
X135086667Y-86984819D02*
X135705714Y-86984819D01*
X135705714Y-86984819D02*
X135372381Y-87365771D01*
X135372381Y-87365771D02*
X135515238Y-87365771D01*
X135515238Y-87365771D02*
X135610476Y-87413390D01*
X135610476Y-87413390D02*
X135658095Y-87461009D01*
X135658095Y-87461009D02*
X135705714Y-87556247D01*
X135705714Y-87556247D02*
X135705714Y-87794342D01*
X135705714Y-87794342D02*
X135658095Y-87889580D01*
X135658095Y-87889580D02*
X135610476Y-87937200D01*
X135610476Y-87937200D02*
X135515238Y-87984819D01*
X135515238Y-87984819D02*
X135229524Y-87984819D01*
X135229524Y-87984819D02*
X135134286Y-87937200D01*
X135134286Y-87937200D02*
X135086667Y-87889580D01*
X129578095Y-88354819D02*
X129578095Y-87354819D01*
X130149523Y-88354819D02*
X129720952Y-87783390D01*
X130149523Y-87354819D02*
X129578095Y-87926247D01*
X134181905Y-72984819D02*
X134181905Y-71984819D01*
X134181905Y-71984819D02*
X134420000Y-71984819D01*
X134420000Y-71984819D02*
X134562857Y-72032438D01*
X134562857Y-72032438D02*
X134658095Y-72127676D01*
X134658095Y-72127676D02*
X134705714Y-72222914D01*
X134705714Y-72222914D02*
X134753333Y-72413390D01*
X134753333Y-72413390D02*
X134753333Y-72556247D01*
X134753333Y-72556247D02*
X134705714Y-72746723D01*
X134705714Y-72746723D02*
X134658095Y-72841961D01*
X134658095Y-72841961D02*
X134562857Y-72937200D01*
X134562857Y-72937200D02*
X134420000Y-72984819D01*
X134420000Y-72984819D02*
X134181905Y-72984819D01*
X135134286Y-72080057D02*
X135181905Y-72032438D01*
X135181905Y-72032438D02*
X135277143Y-71984819D01*
X135277143Y-71984819D02*
X135515238Y-71984819D01*
X135515238Y-71984819D02*
X135610476Y-72032438D01*
X135610476Y-72032438D02*
X135658095Y-72080057D01*
X135658095Y-72080057D02*
X135705714Y-72175295D01*
X135705714Y-72175295D02*
X135705714Y-72270533D01*
X135705714Y-72270533D02*
X135658095Y-72413390D01*
X135658095Y-72413390D02*
X135086667Y-72984819D01*
X135086667Y-72984819D02*
X135705714Y-72984819D01*
X129578095Y-73354819D02*
X129578095Y-72354819D01*
X130149523Y-73354819D02*
X129720952Y-72783390D01*
X130149523Y-72354819D02*
X129578095Y-72926247D01*
X134181905Y-57984819D02*
X134181905Y-56984819D01*
X134181905Y-56984819D02*
X134420000Y-56984819D01*
X134420000Y-56984819D02*
X134562857Y-57032438D01*
X134562857Y-57032438D02*
X134658095Y-57127676D01*
X134658095Y-57127676D02*
X134705714Y-57222914D01*
X134705714Y-57222914D02*
X134753333Y-57413390D01*
X134753333Y-57413390D02*
X134753333Y-57556247D01*
X134753333Y-57556247D02*
X134705714Y-57746723D01*
X134705714Y-57746723D02*
X134658095Y-57841961D01*
X134658095Y-57841961D02*
X134562857Y-57937200D01*
X134562857Y-57937200D02*
X134420000Y-57984819D01*
X134420000Y-57984819D02*
X134181905Y-57984819D01*
X135705714Y-57984819D02*
X135134286Y-57984819D01*
X135420000Y-57984819D02*
X135420000Y-56984819D01*
X135420000Y-56984819D02*
X135324762Y-57127676D01*
X135324762Y-57127676D02*
X135229524Y-57222914D01*
X135229524Y-57222914D02*
X135134286Y-57270533D01*
X129578095Y-58354819D02*
X129578095Y-57354819D01*
X130149523Y-58354819D02*
X129720952Y-57783390D01*
X130149523Y-57354819D02*
X129578095Y-57926247D01*
D13*
X125685000Y-111435000D02*
X111715000Y-111435000D01*
X125685000Y-97465000D02*
X125685000Y-111435000D01*
X111715000Y-111435000D02*
X111715000Y-97465000D01*
X111715000Y-97465000D02*
X125685000Y-97465000D01*
D14*
X152668200Y-43818400D02*
G75*
G02*
X152164200Y-43818400I-252000J0D01*
G01*
X152164200Y-43818400D02*
G75*
G02*
X152668200Y-43818400I252000J0D01*
G01*
X151525200Y-42938400D02*
G75*
G02*
X151021200Y-42938400I-252000J0D01*
G01*
X151021200Y-42938400D02*
G75*
G02*
X151525200Y-42938400I252000J0D01*
G01*
D15*
X169113200Y-61747400D02*
G75*
G02*
X167208200Y-63652400I-1905000J0D01*
G01*
X167208200Y-42697400D02*
G75*
G02*
X169113200Y-44602400I0J-1905000D01*
G01*
X164227200Y-41287400D02*
G75*
G02*
X164727200Y-41787400I0J-500000D01*
G01*
X155731928Y-41787128D02*
G75*
G02*
X156231928Y-41287401I500018J-291D01*
G01*
X153238200Y-63652400D02*
G75*
G02*
X151333200Y-61747400I1J1905001D01*
G01*
X151333200Y-44602400D02*
G75*
G02*
X153238200Y-42697400I1905001J-1D01*
G01*
X169113200Y-61747400D02*
X169113200Y-44602400D01*
X167208200Y-42697400D02*
X153238200Y-42697400D01*
D16*
X167208200Y-42697400D02*
X153238200Y-42697400D01*
D15*
X164727200Y-41787400D02*
X164727200Y-42697400D01*
X156231928Y-41287400D02*
X164227200Y-41287400D01*
X155728200Y-42697400D02*
X155731928Y-41787128D01*
X153238200Y-63652400D02*
X167208200Y-63652400D01*
X151333200Y-61747400D02*
X151333200Y-44602400D01*
D13*
X152200000Y-86500000D02*
X152800000Y-86500000D01*
X152500000Y-86800000D02*
X152200000Y-86500000D01*
X152800000Y-86500000D02*
X152500000Y-86800000D01*
X153300000Y-84300000D02*
X153300000Y-86800000D01*
X153300000Y-96900000D02*
X153300000Y-94100000D01*
X158100000Y-84300000D02*
X153300000Y-84300000D01*
X158200000Y-96900000D02*
X153300000Y-96900000D01*
X159500000Y-90600000D02*
X160500000Y-90600000D01*
X160000000Y-90100000D02*
X160000000Y-91100000D01*
X161800000Y-84300000D02*
X166700000Y-84300000D01*
X166700000Y-84300000D02*
X166700000Y-96900000D01*
X166700000Y-96900000D02*
X161800000Y-96900000D01*
X163000000Y-90600000D02*
G75*
G02*
X157000000Y-90600000I-3000000J0D01*
G01*
X157000000Y-90600000D02*
G75*
G02*
X163000000Y-90600000I3000000J0D01*
G01*
X111715000Y-82375000D02*
X125685000Y-82375000D01*
X111715000Y-96345000D02*
X111715000Y-82375000D01*
X125685000Y-82375000D02*
X125685000Y-96345000D01*
X125685000Y-96345000D02*
X111715000Y-96345000D01*
X111715000Y-67285000D02*
X125685000Y-67285000D01*
X111715000Y-81255000D02*
X111715000Y-67285000D01*
X125685000Y-67285000D02*
X125685000Y-81255000D01*
X125685000Y-81255000D02*
X111715000Y-81255000D01*
X111825000Y-50555000D02*
X125795000Y-50555000D01*
X111825000Y-64525000D02*
X111825000Y-50555000D01*
X125795000Y-50555000D02*
X125795000Y-64525000D01*
X125795000Y-64525000D02*
X111825000Y-64525000D01*
X177200000Y-103875000D02*
X177200000Y-107875000D01*
X177200000Y-103875000D02*
X182800000Y-103875000D01*
X177200000Y-107875000D02*
X182200000Y-107875000D01*
X182800000Y-107275000D02*
X182200000Y-107875000D01*
X182800000Y-107275000D02*
X182800000Y-103875000D01*
X177200000Y-93000000D02*
X177200000Y-97000000D01*
X177200000Y-93000000D02*
X182800000Y-93000000D01*
X177200000Y-97000000D02*
X182200000Y-97000000D01*
X182800000Y-96400000D02*
X182200000Y-97000000D01*
X182800000Y-96400000D02*
X182800000Y-93000000D01*
X177200000Y-78000000D02*
X177200000Y-82000000D01*
X177200000Y-78000000D02*
X182800000Y-78000000D01*
X177200000Y-82000000D02*
X182200000Y-82000000D01*
X182800000Y-81400000D02*
X182200000Y-82000000D01*
X182800000Y-81400000D02*
X182800000Y-78000000D01*
X177200000Y-58875000D02*
X177200000Y-62875000D01*
X177200000Y-58875000D02*
X182800000Y-58875000D01*
X177200000Y-62875000D02*
X182200000Y-62875000D01*
X182800000Y-62275000D02*
X182200000Y-62875000D01*
X182800000Y-62275000D02*
X182800000Y-58875000D01*
X131180000Y-105000000D02*
X132200000Y-105000000D01*
X132980000Y-103530000D02*
X132980000Y-106470000D01*
X133100000Y-103530000D02*
X133100000Y-106470000D01*
X133220000Y-103530000D02*
X133220000Y-106470000D01*
X138660000Y-105000000D02*
X137640000Y-105000000D01*
X132200000Y-103530000D02*
X137640000Y-103530000D01*
X137640000Y-106470000D01*
X132200000Y-106470000D01*
X132200000Y-103530000D01*
X131180000Y-90000000D02*
X132200000Y-90000000D01*
X132980000Y-88530000D02*
X132980000Y-91470000D01*
X133100000Y-88530000D02*
X133100000Y-91470000D01*
X133220000Y-88530000D02*
X133220000Y-91470000D01*
X138660000Y-90000000D02*
X137640000Y-90000000D01*
X132200000Y-88530000D02*
X137640000Y-88530000D01*
X137640000Y-91470000D01*
X132200000Y-91470000D01*
X132200000Y-88530000D01*
X131180000Y-75000000D02*
X132200000Y-75000000D01*
X132980000Y-73530000D02*
X132980000Y-76470000D01*
X133100000Y-73530000D02*
X133100000Y-76470000D01*
X133220000Y-73530000D02*
X133220000Y-76470000D01*
X138660000Y-75000000D02*
X137640000Y-75000000D01*
X132200000Y-73530000D02*
X137640000Y-73530000D01*
X137640000Y-76470000D01*
X132200000Y-76470000D01*
X132200000Y-73530000D01*
X131180000Y-60000000D02*
X132200000Y-60000000D01*
X132980000Y-58530000D02*
X132980000Y-61470000D01*
X133100000Y-58530000D02*
X133100000Y-61470000D01*
X133220000Y-58530000D02*
X133220000Y-61470000D01*
X138660000Y-60000000D02*
X137640000Y-60000000D01*
X132200000Y-58530000D02*
X137640000Y-58530000D01*
X137640000Y-61470000D01*
X132200000Y-61470000D01*
X132200000Y-58530000D01*
%LPC*%
G36*
X179050000Y-107175000D02*
G01*
X177450000Y-107175000D01*
X177450000Y-106325000D01*
X179050000Y-106325000D01*
X179050000Y-107175000D01*
G37*
G36*
X182550000Y-107175000D02*
G01*
X180950000Y-107175000D01*
X180950000Y-106325000D01*
X182550000Y-106325000D01*
X182550000Y-107175000D01*
G37*
G36*
X119090181Y-102488429D02*
G01*
X119342879Y-102556140D01*
X119584577Y-102656255D01*
X119811140Y-102787061D01*
X120018692Y-102946320D01*
X120203680Y-103131308D01*
X120362939Y-103338860D01*
X120493745Y-103565423D01*
X120593860Y-103807121D01*
X120661571Y-104059819D01*
X120695718Y-104319194D01*
X120695718Y-104580806D01*
X120661571Y-104840181D01*
X120593860Y-105092879D01*
X120493745Y-105334577D01*
X120362939Y-105561140D01*
X120203680Y-105768692D01*
X120018692Y-105953680D01*
X119811140Y-106112939D01*
X119584577Y-106243745D01*
X119342879Y-106343860D01*
X119090181Y-106411571D01*
X118830806Y-106445718D01*
X118569194Y-106445718D01*
X118309819Y-106411571D01*
X118057121Y-106343860D01*
X117815423Y-106243745D01*
X117588860Y-106112939D01*
X117381308Y-105953680D01*
X117196320Y-105768692D01*
X117037061Y-105561140D01*
X116906255Y-105334577D01*
X116806140Y-105092879D01*
X116738429Y-104840181D01*
X116704282Y-104580806D01*
X116704282Y-104319194D01*
X116738429Y-104059819D01*
X116806140Y-103807121D01*
X116906255Y-103565423D01*
X117037061Y-103338860D01*
X117196320Y-103131308D01*
X117381308Y-102946320D01*
X117588860Y-102787061D01*
X117815423Y-102656255D01*
X118057121Y-102556140D01*
X118309819Y-102488429D01*
X118569194Y-102454282D01*
X118830806Y-102454282D01*
X119090181Y-102488429D01*
G37*
G36*
X130694850Y-103900964D02*
G01*
X130745041Y-103906787D01*
X130762191Y-103914359D01*
X130785671Y-103919030D01*
X130810806Y-103935825D01*
X130830696Y-103944607D01*
X130844280Y-103958191D01*
X130866777Y-103973223D01*
X130881808Y-103995719D01*
X130895392Y-104009303D01*
X130904173Y-104029190D01*
X130920970Y-104054329D01*
X130925640Y-104077809D01*
X130933212Y-104094958D01*
X130939036Y-104145161D01*
X130939999Y-104150000D01*
X130939999Y-104153456D01*
X130940000Y-104153465D01*
X130940000Y-105086291D01*
X130940000Y-105850001D01*
X130939034Y-105854853D01*
X130933212Y-105905041D01*
X130925641Y-105922187D01*
X130920970Y-105945671D01*
X130904171Y-105970811D01*
X130895392Y-105990696D01*
X130881810Y-106004277D01*
X130866777Y-106026777D01*
X130844277Y-106041810D01*
X130830696Y-106055392D01*
X130810811Y-106064171D01*
X130785671Y-106080970D01*
X130762188Y-106085640D01*
X130745041Y-106093212D01*
X130694838Y-106099036D01*
X130690000Y-106099999D01*
X130686543Y-106099999D01*
X130686535Y-106100000D01*
X128993465Y-106100000D01*
X128993464Y-106099999D01*
X128989999Y-106100000D01*
X128985147Y-106099035D01*
X128934958Y-106093212D01*
X128917810Y-106085640D01*
X128894329Y-106080970D01*
X128869190Y-106064173D01*
X128849303Y-106055392D01*
X128835719Y-106041808D01*
X128813223Y-106026777D01*
X128798191Y-106004280D01*
X128784607Y-105990696D01*
X128775825Y-105970806D01*
X128759030Y-105945671D01*
X128754360Y-105922192D01*
X128746787Y-105905041D01*
X128740963Y-105854838D01*
X128740001Y-105850000D01*
X128740000Y-105846542D01*
X128740000Y-105846534D01*
X128740000Y-104153465D01*
X128740000Y-104153464D01*
X128740000Y-104149999D01*
X128740964Y-104145149D01*
X128746787Y-104094958D01*
X128754359Y-104077806D01*
X128759030Y-104054329D01*
X128775823Y-104029194D01*
X128784607Y-104009303D01*
X128798193Y-103995716D01*
X128813223Y-103973223D01*
X128835716Y-103958193D01*
X128849303Y-103944607D01*
X128869194Y-103935823D01*
X128894329Y-103919030D01*
X128917805Y-103914360D01*
X128934958Y-103906787D01*
X128985163Y-103900963D01*
X128990000Y-103900001D01*
X128993456Y-103900000D01*
X128993465Y-103900000D01*
X130686535Y-103900000D01*
X130690001Y-103900000D01*
X130694850Y-103900964D01*
G37*
G36*
X140256790Y-103930393D02*
G01*
X140420952Y-103983733D01*
X140574748Y-104062096D01*
X140714393Y-104163553D01*
X140836447Y-104285607D01*
X140937904Y-104425252D01*
X141016267Y-104579048D01*
X141069607Y-104743210D01*
X141096609Y-104913695D01*
X141096609Y-105086305D01*
X141069607Y-105256790D01*
X141016267Y-105420952D01*
X140937904Y-105574748D01*
X140836447Y-105714393D01*
X140714393Y-105836447D01*
X140574748Y-105937904D01*
X140420952Y-106016267D01*
X140256790Y-106069607D01*
X140086305Y-106096609D01*
X139913695Y-106096609D01*
X139743210Y-106069607D01*
X139579048Y-106016267D01*
X139425252Y-105937904D01*
X139285607Y-105836447D01*
X139163553Y-105714393D01*
X139062096Y-105574748D01*
X138983733Y-105420952D01*
X138930393Y-105256790D01*
X138903391Y-105086305D01*
X138903391Y-104913695D01*
X138930393Y-104743210D01*
X138983733Y-104579048D01*
X139062096Y-104425252D01*
X139163553Y-104285607D01*
X139285607Y-104163553D01*
X139425252Y-104062096D01*
X139579048Y-103983733D01*
X139743210Y-103930393D01*
X139913695Y-103903391D01*
X140086305Y-103903391D01*
X140256790Y-103930393D01*
G37*
G36*
X179050000Y-105425000D02*
G01*
X177450000Y-105425000D01*
X177450000Y-104575000D01*
X179050000Y-104575000D01*
X179050000Y-105425000D01*
G37*
G36*
X182550000Y-105425000D02*
G01*
X180950000Y-105425000D01*
X180950000Y-104575000D01*
X182550000Y-104575000D01*
X182550000Y-105425000D01*
G37*
G36*
X113866742Y-103636601D02*
G01*
X114020687Y-103700367D01*
X114159234Y-103792941D01*
X114277059Y-103910766D01*
X114369633Y-104049313D01*
X114433399Y-104203258D01*
X114465907Y-104366685D01*
X114465907Y-104533315D01*
X114433399Y-104696742D01*
X114369633Y-104850687D01*
X114277059Y-104989234D01*
X114159234Y-105107059D01*
X114020687Y-105199633D01*
X113866742Y-105263399D01*
X113703315Y-105295907D01*
X113536685Y-105295907D01*
X113373258Y-105263399D01*
X113219313Y-105199633D01*
X113080766Y-105107059D01*
X112962941Y-104989234D01*
X112870367Y-104850687D01*
X112806601Y-104696742D01*
X112774093Y-104533315D01*
X112774093Y-104366685D01*
X112806601Y-104203258D01*
X112870367Y-104049313D01*
X112962941Y-103910766D01*
X113080766Y-103792941D01*
X113219313Y-103700367D01*
X113373258Y-103636601D01*
X113536685Y-103604093D01*
X113703315Y-103604093D01*
X113866742Y-103636601D01*
G37*
G36*
X124026742Y-103636601D02*
G01*
X124180687Y-103700367D01*
X124319234Y-103792941D01*
X124437059Y-103910766D01*
X124529633Y-104049313D01*
X124593399Y-104203258D01*
X124625907Y-104366685D01*
X124625907Y-104533315D01*
X124593399Y-104696742D01*
X124529633Y-104850687D01*
X124437059Y-104989234D01*
X124319234Y-105107059D01*
X124180687Y-105199633D01*
X124026742Y-105263399D01*
X123863315Y-105295907D01*
X123696685Y-105295907D01*
X123533258Y-105263399D01*
X123379313Y-105199633D01*
X123240766Y-105107059D01*
X123122941Y-104989234D01*
X123030367Y-104850687D01*
X122966601Y-104696742D01*
X122934093Y-104533315D01*
X122934093Y-104366685D01*
X122966601Y-104203258D01*
X123030367Y-104049313D01*
X123122941Y-103910766D01*
X123240766Y-103792941D01*
X123379313Y-103700367D01*
X123533258Y-103636601D01*
X123696685Y-103604093D01*
X123863315Y-103604093D01*
X124026742Y-103636601D01*
G37*
G36*
X115146790Y-100840393D02*
G01*
X115310952Y-100893733D01*
X115464748Y-100972096D01*
X115604393Y-101073553D01*
X115726447Y-101195607D01*
X115827904Y-101335252D01*
X115906267Y-101489048D01*
X115959607Y-101653210D01*
X115986609Y-101823695D01*
X115986609Y-101996305D01*
X115959607Y-102166790D01*
X115906267Y-102330952D01*
X115827904Y-102484748D01*
X115726447Y-102624393D01*
X115604393Y-102746447D01*
X115464748Y-102847904D01*
X115310952Y-102926267D01*
X115146790Y-102979607D01*
X114976305Y-103006609D01*
X114803695Y-103006609D01*
X114633210Y-102979607D01*
X114469048Y-102926267D01*
X114315252Y-102847904D01*
X114175607Y-102746447D01*
X114053553Y-102624393D01*
X113952096Y-102484748D01*
X113873733Y-102330952D01*
X113820393Y-102166790D01*
X113793391Y-101996305D01*
X113793391Y-101823695D01*
X113820393Y-101653210D01*
X113873733Y-101489048D01*
X113952096Y-101335252D01*
X114053553Y-101195607D01*
X114175607Y-101073553D01*
X114315252Y-100972096D01*
X114469048Y-100893733D01*
X114633210Y-100840393D01*
X114803695Y-100813391D01*
X114976305Y-100813391D01*
X115146790Y-100840393D01*
G37*
G36*
X121496790Y-98300393D02*
G01*
X121660952Y-98353733D01*
X121814748Y-98432096D01*
X121954393Y-98533553D01*
X122076447Y-98655607D01*
X122177904Y-98795252D01*
X122256267Y-98949048D01*
X122309607Y-99113210D01*
X122336609Y-99283695D01*
X122336609Y-99456305D01*
X122309607Y-99626790D01*
X122256267Y-99790952D01*
X122177904Y-99944748D01*
X122076447Y-100084393D01*
X121954393Y-100206447D01*
X121814748Y-100307904D01*
X121660952Y-100386267D01*
X121496790Y-100439607D01*
X121326305Y-100466609D01*
X121153695Y-100466609D01*
X120983210Y-100439607D01*
X120819048Y-100386267D01*
X120665252Y-100307904D01*
X120525607Y-100206447D01*
X120403553Y-100084393D01*
X120302096Y-99944748D01*
X120223733Y-99790952D01*
X120170393Y-99626790D01*
X120143391Y-99456305D01*
X120143391Y-99283695D01*
X120170393Y-99113210D01*
X120223733Y-98949048D01*
X120302096Y-98795252D01*
X120403553Y-98655607D01*
X120525607Y-98533553D01*
X120665252Y-98432096D01*
X120819048Y-98353733D01*
X120983210Y-98300393D01*
X121153695Y-98273391D01*
X121326305Y-98273391D01*
X121496790Y-98300393D01*
G37*
G36*
X161500000Y-97450000D02*
G01*
X158500000Y-97450000D01*
X158500000Y-94950000D01*
X161500000Y-94950000D01*
X161500000Y-97450000D01*
G37*
G36*
X179050000Y-96300000D02*
G01*
X177450000Y-96300000D01*
X177450000Y-95450000D01*
X179050000Y-95450000D01*
X179050000Y-96300000D01*
G37*
G36*
X182550000Y-96300000D02*
G01*
X180950000Y-96300000D01*
X180950000Y-95450000D01*
X182550000Y-95450000D01*
X182550000Y-96300000D01*
G37*
G36*
X179050000Y-94550000D02*
G01*
X177450000Y-94550000D01*
X177450000Y-93700000D01*
X179050000Y-93700000D01*
X179050000Y-94550000D01*
G37*
G36*
X182550000Y-94550000D02*
G01*
X180950000Y-94550000D01*
X180950000Y-93700000D01*
X182550000Y-93700000D01*
X182550000Y-94550000D01*
G37*
G36*
X152790285Y-92143060D02*
G01*
X152971397Y-92218079D01*
X153134393Y-92326990D01*
X153273010Y-92465607D01*
X153381921Y-92628603D01*
X153456940Y-92809715D01*
X153495185Y-93001983D01*
X153495185Y-93198017D01*
X153456940Y-93390285D01*
X153381921Y-93571397D01*
X153273010Y-93734393D01*
X153134393Y-93873010D01*
X152971397Y-93981921D01*
X152790285Y-94056940D01*
X152598017Y-94095185D01*
X152401983Y-94095185D01*
X152209715Y-94056940D01*
X152028603Y-93981921D01*
X151865607Y-93873010D01*
X151726990Y-93734393D01*
X151618079Y-93571397D01*
X151543060Y-93390285D01*
X151504815Y-93198017D01*
X151504815Y-93001983D01*
X151543060Y-92809715D01*
X151618079Y-92628603D01*
X151726990Y-92465607D01*
X151865607Y-92326990D01*
X152028603Y-92218079D01*
X152209715Y-92143060D01*
X152401983Y-92104815D01*
X152598017Y-92104815D01*
X152790285Y-92143060D01*
G37*
G36*
X152790285Y-89643060D02*
G01*
X152971397Y-89718079D01*
X153134393Y-89826990D01*
X153273010Y-89965607D01*
X153381921Y-90128603D01*
X153456940Y-90309715D01*
X153495185Y-90501983D01*
X153495185Y-90698017D01*
X153456940Y-90890285D01*
X153381921Y-91071397D01*
X153273010Y-91234393D01*
X153134393Y-91373010D01*
X152971397Y-91481921D01*
X152790285Y-91556940D01*
X152598017Y-91595185D01*
X152401983Y-91595185D01*
X152209715Y-91556940D01*
X152028603Y-91481921D01*
X151865607Y-91373010D01*
X151726990Y-91234393D01*
X151618079Y-91071397D01*
X151543060Y-90890285D01*
X151504815Y-90698017D01*
X151504815Y-90501983D01*
X151543060Y-90309715D01*
X151618079Y-90128603D01*
X151726990Y-89965607D01*
X151865607Y-89826990D01*
X152028603Y-89718079D01*
X152209715Y-89643060D01*
X152401983Y-89604815D01*
X152598017Y-89604815D01*
X152790285Y-89643060D01*
G37*
G36*
X119090181Y-87398429D02*
G01*
X119342879Y-87466140D01*
X119584577Y-87566255D01*
X119811140Y-87697061D01*
X120018692Y-87856320D01*
X120203680Y-88041308D01*
X120362939Y-88248860D01*
X120493745Y-88475423D01*
X120593860Y-88717121D01*
X120661571Y-88969819D01*
X120695718Y-89229194D01*
X120695718Y-89490806D01*
X120661571Y-89750181D01*
X120593860Y-90002879D01*
X120493745Y-90244577D01*
X120362939Y-90471140D01*
X120203680Y-90678692D01*
X120018692Y-90863680D01*
X119811140Y-91022939D01*
X119584577Y-91153745D01*
X119342879Y-91253860D01*
X119090181Y-91321571D01*
X118830806Y-91355718D01*
X118569194Y-91355718D01*
X118309819Y-91321571D01*
X118057121Y-91253860D01*
X117815423Y-91153745D01*
X117588860Y-91022939D01*
X117381308Y-90863680D01*
X117196320Y-90678692D01*
X117037061Y-90471140D01*
X116906255Y-90244577D01*
X116806140Y-90002879D01*
X116738429Y-89750181D01*
X116704282Y-89490806D01*
X116704282Y-89229194D01*
X116738429Y-88969819D01*
X116806140Y-88717121D01*
X116906255Y-88475423D01*
X117037061Y-88248860D01*
X117196320Y-88041308D01*
X117381308Y-87856320D01*
X117588860Y-87697061D01*
X117815423Y-87566255D01*
X118057121Y-87466140D01*
X118309819Y-87398429D01*
X118569194Y-87364282D01*
X118830806Y-87364282D01*
X119090181Y-87398429D01*
G37*
G36*
X130694850Y-88900964D02*
G01*
X130745041Y-88906787D01*
X130762191Y-88914359D01*
X130785671Y-88919030D01*
X130810806Y-88935825D01*
X130830696Y-88944607D01*
X130844280Y-88958191D01*
X130866777Y-88973223D01*
X130881808Y-88995719D01*
X130895392Y-89009303D01*
X130904173Y-89029190D01*
X130920970Y-89054329D01*
X130925640Y-89077809D01*
X130933212Y-89094958D01*
X130939036Y-89145161D01*
X130939999Y-89150000D01*
X130939999Y-89153456D01*
X130940000Y-89153465D01*
X130940000Y-90002838D01*
X130940000Y-90850001D01*
X130939034Y-90854853D01*
X130933212Y-90905041D01*
X130925641Y-90922187D01*
X130920970Y-90945671D01*
X130904171Y-90970811D01*
X130895392Y-90990696D01*
X130881810Y-91004277D01*
X130866777Y-91026777D01*
X130844277Y-91041810D01*
X130830696Y-91055392D01*
X130810811Y-91064171D01*
X130785671Y-91080970D01*
X130762188Y-91085640D01*
X130745041Y-91093212D01*
X130694838Y-91099036D01*
X130690000Y-91099999D01*
X130686543Y-91099999D01*
X130686535Y-91100000D01*
X128993465Y-91100000D01*
X128993464Y-91099999D01*
X128989999Y-91100000D01*
X128985147Y-91099035D01*
X128934958Y-91093212D01*
X128917810Y-91085640D01*
X128894329Y-91080970D01*
X128869190Y-91064173D01*
X128849303Y-91055392D01*
X128835719Y-91041808D01*
X128813223Y-91026777D01*
X128798191Y-91004280D01*
X128784607Y-90990696D01*
X128775825Y-90970806D01*
X128759030Y-90945671D01*
X128754360Y-90922192D01*
X128746787Y-90905041D01*
X128740963Y-90854838D01*
X128740001Y-90850000D01*
X128740000Y-90846542D01*
X128740000Y-90846534D01*
X128740000Y-89153465D01*
X128740000Y-89153464D01*
X128740000Y-89149999D01*
X128740964Y-89145149D01*
X128746787Y-89094958D01*
X128754359Y-89077806D01*
X128759030Y-89054329D01*
X128775823Y-89029194D01*
X128784607Y-89009303D01*
X128798193Y-88995716D01*
X128813223Y-88973223D01*
X128835716Y-88958193D01*
X128849303Y-88944607D01*
X128869194Y-88935823D01*
X128894329Y-88919030D01*
X128917805Y-88914360D01*
X128934958Y-88906787D01*
X128985163Y-88900963D01*
X128990000Y-88900001D01*
X128993456Y-88900000D01*
X128993465Y-88900000D01*
X130686535Y-88900000D01*
X130690001Y-88900000D01*
X130694850Y-88900964D01*
G37*
G36*
X140256790Y-88930393D02*
G01*
X140420952Y-88983733D01*
X140574748Y-89062096D01*
X140714393Y-89163553D01*
X140836447Y-89285607D01*
X140937904Y-89425252D01*
X141016267Y-89579048D01*
X141069607Y-89743210D01*
X141096609Y-89913695D01*
X141096609Y-90086305D01*
X141069607Y-90256790D01*
X141016267Y-90420952D01*
X140937904Y-90574748D01*
X140836447Y-90714393D01*
X140714393Y-90836447D01*
X140574748Y-90937904D01*
X140420952Y-91016267D01*
X140256790Y-91069607D01*
X140086305Y-91096609D01*
X139913695Y-91096609D01*
X139743210Y-91069607D01*
X139579048Y-91016267D01*
X139425252Y-90937904D01*
X139285607Y-90836447D01*
X139163553Y-90714393D01*
X139062096Y-90574748D01*
X138983733Y-90420952D01*
X138930393Y-90256790D01*
X138903391Y-90086305D01*
X138903391Y-89913695D01*
X138930393Y-89743210D01*
X138983733Y-89579048D01*
X139062096Y-89425252D01*
X139163553Y-89285607D01*
X139285607Y-89163553D01*
X139425252Y-89062096D01*
X139579048Y-88983733D01*
X139743210Y-88930393D01*
X139913695Y-88903391D01*
X140086305Y-88903391D01*
X140256790Y-88930393D01*
G37*
G36*
X113866742Y-88546601D02*
G01*
X114020687Y-88610367D01*
X114159234Y-88702941D01*
X114277059Y-88820766D01*
X114369633Y-88959313D01*
X114433399Y-89113258D01*
X114465907Y-89276685D01*
X114465907Y-89443315D01*
X114433399Y-89606742D01*
X114369633Y-89760687D01*
X114277059Y-89899234D01*
X114159234Y-90017059D01*
X114020687Y-90109633D01*
X113866742Y-90173399D01*
X113703315Y-90205907D01*
X113536685Y-90205907D01*
X113373258Y-90173399D01*
X113219313Y-90109633D01*
X113080766Y-90017059D01*
X112962941Y-89899234D01*
X112870367Y-89760687D01*
X112806601Y-89606742D01*
X112774093Y-89443315D01*
X112774093Y-89276685D01*
X112806601Y-89113258D01*
X112870367Y-88959313D01*
X112962941Y-88820766D01*
X113080766Y-88702941D01*
X113219313Y-88610367D01*
X113373258Y-88546601D01*
X113536685Y-88514093D01*
X113703315Y-88514093D01*
X113866742Y-88546601D01*
G37*
G36*
X124026742Y-88546601D02*
G01*
X124180687Y-88610367D01*
X124319234Y-88702941D01*
X124437059Y-88820766D01*
X124529633Y-88959313D01*
X124593399Y-89113258D01*
X124625907Y-89276685D01*
X124625907Y-89443315D01*
X124593399Y-89606742D01*
X124529633Y-89760687D01*
X124437059Y-89899234D01*
X124319234Y-90017059D01*
X124180687Y-90109633D01*
X124026742Y-90173399D01*
X123863315Y-90205907D01*
X123696685Y-90205907D01*
X123533258Y-90173399D01*
X123379313Y-90109633D01*
X123240766Y-90017059D01*
X123122941Y-89899234D01*
X123030367Y-89760687D01*
X122966601Y-89606742D01*
X122934093Y-89443315D01*
X122934093Y-89276685D01*
X122966601Y-89113258D01*
X123030367Y-88959313D01*
X123122941Y-88820766D01*
X123240766Y-88702941D01*
X123379313Y-88610367D01*
X123533258Y-88546601D01*
X123696685Y-88514093D01*
X123863315Y-88514093D01*
X124026742Y-88546601D01*
G37*
G36*
X153500000Y-89100000D02*
G01*
X151500000Y-89100000D01*
X151500000Y-87100000D01*
X153500000Y-87100000D01*
X153500000Y-89100000D01*
G37*
G36*
X115146790Y-85750393D02*
G01*
X115310952Y-85803733D01*
X115464748Y-85882096D01*
X115604393Y-85983553D01*
X115726447Y-86105607D01*
X115827904Y-86245252D01*
X115906267Y-86399048D01*
X115959607Y-86563210D01*
X115986609Y-86733695D01*
X115986609Y-86906305D01*
X115959607Y-87076790D01*
X115906267Y-87240952D01*
X115827904Y-87394748D01*
X115726447Y-87534393D01*
X115604393Y-87656447D01*
X115464748Y-87757904D01*
X115310952Y-87836267D01*
X115146790Y-87889607D01*
X114976305Y-87916609D01*
X114803695Y-87916609D01*
X114633210Y-87889607D01*
X114469048Y-87836267D01*
X114315252Y-87757904D01*
X114175607Y-87656447D01*
X114053553Y-87534393D01*
X113952096Y-87394748D01*
X113873733Y-87240952D01*
X113820393Y-87076790D01*
X113793391Y-86906305D01*
X113793391Y-86733695D01*
X113820393Y-86563210D01*
X113873733Y-86399048D01*
X113952096Y-86245252D01*
X114053553Y-86105607D01*
X114175607Y-85983553D01*
X114315252Y-85882096D01*
X114469048Y-85803733D01*
X114633210Y-85750393D01*
X114803695Y-85723391D01*
X114976305Y-85723391D01*
X115146790Y-85750393D01*
G37*
G36*
X161500000Y-86250000D02*
G01*
X158500000Y-86250000D01*
X158500000Y-83750000D01*
X161500000Y-83750000D01*
X161500000Y-86250000D01*
G37*
G36*
X121496790Y-83210393D02*
G01*
X121660952Y-83263733D01*
X121814748Y-83342096D01*
X121954393Y-83443553D01*
X122076447Y-83565607D01*
X122177904Y-83705252D01*
X122256267Y-83859048D01*
X122309607Y-84023210D01*
X122336609Y-84193695D01*
X122336609Y-84366305D01*
X122309607Y-84536790D01*
X122256267Y-84700952D01*
X122177904Y-84854748D01*
X122076447Y-84994393D01*
X121954393Y-85116447D01*
X121814748Y-85217904D01*
X121660952Y-85296267D01*
X121496790Y-85349607D01*
X121326305Y-85376609D01*
X121153695Y-85376609D01*
X120983210Y-85349607D01*
X120819048Y-85296267D01*
X120665252Y-85217904D01*
X120525607Y-85116447D01*
X120403553Y-84994393D01*
X120302096Y-84854748D01*
X120223733Y-84700952D01*
X120170393Y-84536790D01*
X120143391Y-84366305D01*
X120143391Y-84193695D01*
X120170393Y-84023210D01*
X120223733Y-83859048D01*
X120302096Y-83705252D01*
X120403553Y-83565607D01*
X120525607Y-83443553D01*
X120665252Y-83342096D01*
X120819048Y-83263733D01*
X120983210Y-83210393D01*
X121153695Y-83183391D01*
X121326305Y-83183391D01*
X121496790Y-83210393D01*
G37*
G36*
X179050000Y-81300000D02*
G01*
X177450000Y-81300000D01*
X177450000Y-80450000D01*
X179050000Y-80450000D01*
X179050000Y-81300000D01*
G37*
G36*
X182550000Y-81300000D02*
G01*
X180950000Y-81300000D01*
X180950000Y-80450000D01*
X182550000Y-80450000D01*
X182550000Y-81300000D01*
G37*
G36*
X179050000Y-79550000D02*
G01*
X177450000Y-79550000D01*
X177450000Y-78700000D01*
X179050000Y-78700000D01*
X179050000Y-79550000D01*
G37*
G36*
X182550000Y-79550000D02*
G01*
X180950000Y-79550000D01*
X180950000Y-78700000D01*
X182550000Y-78700000D01*
X182550000Y-79550000D01*
G37*
G36*
X119090181Y-72308429D02*
G01*
X119342879Y-72376140D01*
X119584577Y-72476255D01*
X119811140Y-72607061D01*
X120018692Y-72766320D01*
X120203680Y-72951308D01*
X120362939Y-73158860D01*
X120493745Y-73385423D01*
X120593860Y-73627121D01*
X120661571Y-73879819D01*
X120695718Y-74139194D01*
X120695718Y-74400806D01*
X120661571Y-74660181D01*
X120593860Y-74912879D01*
X120493745Y-75154577D01*
X120362939Y-75381140D01*
X120203680Y-75588692D01*
X120018692Y-75773680D01*
X119811140Y-75932939D01*
X119584577Y-76063745D01*
X119342879Y-76163860D01*
X119090181Y-76231571D01*
X118830806Y-76265718D01*
X118569194Y-76265718D01*
X118309819Y-76231571D01*
X118057121Y-76163860D01*
X117815423Y-76063745D01*
X117588860Y-75932939D01*
X117381308Y-75773680D01*
X117196320Y-75588692D01*
X117037061Y-75381140D01*
X116906255Y-75154577D01*
X116806140Y-74912879D01*
X116738429Y-74660181D01*
X116704282Y-74400806D01*
X116704282Y-74139194D01*
X116738429Y-73879819D01*
X116806140Y-73627121D01*
X116906255Y-73385423D01*
X117037061Y-73158860D01*
X117196320Y-72951308D01*
X117381308Y-72766320D01*
X117588860Y-72607061D01*
X117815423Y-72476255D01*
X118057121Y-72376140D01*
X118309819Y-72308429D01*
X118569194Y-72274282D01*
X118830806Y-72274282D01*
X119090181Y-72308429D01*
G37*
G36*
X130694850Y-73900964D02*
G01*
X130745041Y-73906787D01*
X130762191Y-73914359D01*
X130785671Y-73919030D01*
X130810806Y-73935825D01*
X130830696Y-73944607D01*
X130844280Y-73958191D01*
X130866777Y-73973223D01*
X130881808Y-73995719D01*
X130895392Y-74009303D01*
X130904173Y-74029190D01*
X130920970Y-74054329D01*
X130925640Y-74077809D01*
X130933212Y-74094958D01*
X130939036Y-74145161D01*
X130939999Y-74150000D01*
X130939999Y-74153456D01*
X130940000Y-74153465D01*
X130940000Y-75019375D01*
X130940000Y-75850001D01*
X130939034Y-75854853D01*
X130933212Y-75905041D01*
X130925641Y-75922187D01*
X130920970Y-75945671D01*
X130904171Y-75970811D01*
X130895392Y-75990696D01*
X130881810Y-76004277D01*
X130866777Y-76026777D01*
X130844277Y-76041810D01*
X130830696Y-76055392D01*
X130810811Y-76064171D01*
X130785671Y-76080970D01*
X130762188Y-76085640D01*
X130745041Y-76093212D01*
X130694838Y-76099036D01*
X130690000Y-76099999D01*
X130686543Y-76099999D01*
X130686535Y-76100000D01*
X128993465Y-76100000D01*
X128993464Y-76099999D01*
X128989999Y-76100000D01*
X128985147Y-76099035D01*
X128934958Y-76093212D01*
X128917810Y-76085640D01*
X128894329Y-76080970D01*
X128869190Y-76064173D01*
X128849303Y-76055392D01*
X128835719Y-76041808D01*
X128813223Y-76026777D01*
X128798191Y-76004280D01*
X128784607Y-75990696D01*
X128775825Y-75970806D01*
X128759030Y-75945671D01*
X128754360Y-75922192D01*
X128746787Y-75905041D01*
X128740963Y-75854838D01*
X128740001Y-75850000D01*
X128740000Y-75846542D01*
X128740000Y-75846534D01*
X128740000Y-74153465D01*
X128740000Y-74153464D01*
X128740000Y-74149999D01*
X128740964Y-74145149D01*
X128746787Y-74094958D01*
X128754359Y-74077806D01*
X128759030Y-74054329D01*
X128775823Y-74029194D01*
X128784607Y-74009303D01*
X128798193Y-73995716D01*
X128813223Y-73973223D01*
X128835716Y-73958193D01*
X128849303Y-73944607D01*
X128869194Y-73935823D01*
X128894329Y-73919030D01*
X128917805Y-73914360D01*
X128934958Y-73906787D01*
X128985163Y-73900963D01*
X128990000Y-73900001D01*
X128993456Y-73900000D01*
X128993465Y-73900000D01*
X130686535Y-73900000D01*
X130690001Y-73900000D01*
X130694850Y-73900964D01*
G37*
G36*
X140256790Y-73930393D02*
G01*
X140420952Y-73983733D01*
X140574748Y-74062096D01*
X140714393Y-74163553D01*
X140836447Y-74285607D01*
X140937904Y-74425252D01*
X141016267Y-74579048D01*
X141069607Y-74743210D01*
X141096609Y-74913695D01*
X141096609Y-75086305D01*
X141069607Y-75256790D01*
X141016267Y-75420952D01*
X140937904Y-75574748D01*
X140836447Y-75714393D01*
X140714393Y-75836447D01*
X140574748Y-75937904D01*
X140420952Y-76016267D01*
X140256790Y-76069607D01*
X140086305Y-76096609D01*
X139913695Y-76096609D01*
X139743210Y-76069607D01*
X139579048Y-76016267D01*
X139425252Y-75937904D01*
X139285607Y-75836447D01*
X139163553Y-75714393D01*
X139062096Y-75574748D01*
X138983733Y-75420952D01*
X138930393Y-75256790D01*
X138903391Y-75086305D01*
X138903391Y-74913695D01*
X138930393Y-74743210D01*
X138983733Y-74579048D01*
X139062096Y-74425252D01*
X139163553Y-74285607D01*
X139285607Y-74163553D01*
X139425252Y-74062096D01*
X139579048Y-73983733D01*
X139743210Y-73930393D01*
X139913695Y-73903391D01*
X140086305Y-73903391D01*
X140256790Y-73930393D01*
G37*
G36*
X113866742Y-73456601D02*
G01*
X114020687Y-73520367D01*
X114159234Y-73612941D01*
X114277059Y-73730766D01*
X114369633Y-73869313D01*
X114433399Y-74023258D01*
X114465907Y-74186685D01*
X114465907Y-74353315D01*
X114433399Y-74516742D01*
X114369633Y-74670687D01*
X114277059Y-74809234D01*
X114159234Y-74927059D01*
X114020687Y-75019633D01*
X113866742Y-75083399D01*
X113703315Y-75115907D01*
X113536685Y-75115907D01*
X113373258Y-75083399D01*
X113219313Y-75019633D01*
X113080766Y-74927059D01*
X112962941Y-74809234D01*
X112870367Y-74670687D01*
X112806601Y-74516742D01*
X112774093Y-74353315D01*
X112774093Y-74186685D01*
X112806601Y-74023258D01*
X112870367Y-73869313D01*
X112962941Y-73730766D01*
X113080766Y-73612941D01*
X113219313Y-73520367D01*
X113373258Y-73456601D01*
X113536685Y-73424093D01*
X113703315Y-73424093D01*
X113866742Y-73456601D01*
G37*
G36*
X124026742Y-73456601D02*
G01*
X124180687Y-73520367D01*
X124319234Y-73612941D01*
X124437059Y-73730766D01*
X124529633Y-73869313D01*
X124593399Y-74023258D01*
X124625907Y-74186685D01*
X124625907Y-74353315D01*
X124593399Y-74516742D01*
X124529633Y-74670687D01*
X124437059Y-74809234D01*
X124319234Y-74927059D01*
X124180687Y-75019633D01*
X124026742Y-75083399D01*
X123863315Y-75115907D01*
X123696685Y-75115907D01*
X123533258Y-75083399D01*
X123379313Y-75019633D01*
X123240766Y-74927059D01*
X123122941Y-74809234D01*
X123030367Y-74670687D01*
X122966601Y-74516742D01*
X122934093Y-74353315D01*
X122934093Y-74186685D01*
X122966601Y-74023258D01*
X123030367Y-73869313D01*
X123122941Y-73730766D01*
X123240766Y-73612941D01*
X123379313Y-73520367D01*
X123533258Y-73456601D01*
X123696685Y-73424093D01*
X123863315Y-73424093D01*
X124026742Y-73456601D01*
G37*
G36*
X115146790Y-70660393D02*
G01*
X115310952Y-70713733D01*
X115464748Y-70792096D01*
X115604393Y-70893553D01*
X115726447Y-71015607D01*
X115827904Y-71155252D01*
X115906267Y-71309048D01*
X115959607Y-71473210D01*
X115986609Y-71643695D01*
X115986609Y-71816305D01*
X115959607Y-71986790D01*
X115906267Y-72150952D01*
X115827904Y-72304748D01*
X115726447Y-72444393D01*
X115604393Y-72566447D01*
X115464748Y-72667904D01*
X115310952Y-72746267D01*
X115146790Y-72799607D01*
X114976305Y-72826609D01*
X114803695Y-72826609D01*
X114633210Y-72799607D01*
X114469048Y-72746267D01*
X114315252Y-72667904D01*
X114175607Y-72566447D01*
X114053553Y-72444393D01*
X113952096Y-72304748D01*
X113873733Y-72150952D01*
X113820393Y-71986790D01*
X113793391Y-71816305D01*
X113793391Y-71643695D01*
X113820393Y-71473210D01*
X113873733Y-71309048D01*
X113952096Y-71155252D01*
X114053553Y-71015607D01*
X114175607Y-70893553D01*
X114315252Y-70792096D01*
X114469048Y-70713733D01*
X114633210Y-70660393D01*
X114803695Y-70633391D01*
X114976305Y-70633391D01*
X115146790Y-70660393D01*
G37*
G36*
X121496790Y-68120393D02*
G01*
X121660952Y-68173733D01*
X121814748Y-68252096D01*
X121954393Y-68353553D01*
X122076447Y-68475607D01*
X122177904Y-68615252D01*
X122256267Y-68769048D01*
X122309607Y-68933210D01*
X122336609Y-69103695D01*
X122336609Y-69276305D01*
X122309607Y-69446790D01*
X122256267Y-69610952D01*
X122177904Y-69764748D01*
X122076447Y-69904393D01*
X121954393Y-70026447D01*
X121814748Y-70127904D01*
X121660952Y-70206267D01*
X121496790Y-70259607D01*
X121326305Y-70286609D01*
X121153695Y-70286609D01*
X120983210Y-70259607D01*
X120819048Y-70206267D01*
X120665252Y-70127904D01*
X120525607Y-70026447D01*
X120403553Y-69904393D01*
X120302096Y-69764748D01*
X120223733Y-69610952D01*
X120170393Y-69446790D01*
X120143391Y-69276305D01*
X120143391Y-69103695D01*
X120170393Y-68933210D01*
X120223733Y-68769048D01*
X120302096Y-68615252D01*
X120403553Y-68475607D01*
X120525607Y-68353553D01*
X120665252Y-68252096D01*
X120819048Y-68173733D01*
X120983210Y-68120393D01*
X121153695Y-68093391D01*
X121326305Y-68093391D01*
X121496790Y-68120393D01*
G37*
G36*
X179050000Y-62175000D02*
G01*
X177450000Y-62175000D01*
X177450000Y-61325000D01*
X179050000Y-61325000D01*
X179050000Y-62175000D01*
G37*
G36*
X182550000Y-62175000D02*
G01*
X180950000Y-62175000D01*
X180950000Y-61325000D01*
X182550000Y-61325000D01*
X182550000Y-62175000D01*
G37*
G36*
X152890121Y-60108001D02*
G01*
X152939563Y-60141037D01*
X152972599Y-60190479D01*
X152972847Y-60191727D01*
X152977749Y-60196629D01*
X153086608Y-60269366D01*
X153192234Y-60374992D01*
X153275224Y-60499196D01*
X153332389Y-60637203D01*
X153361531Y-60783711D01*
X153361531Y-60933089D01*
X153332389Y-61079597D01*
X153275224Y-61217604D01*
X153192234Y-61341808D01*
X153086608Y-61447434D01*
X152977746Y-61520172D01*
X152972847Y-61525071D01*
X152972599Y-61526321D01*
X152939563Y-61575763D01*
X152890121Y-61608799D01*
X152831800Y-61620400D01*
X150704600Y-61620400D01*
X150646279Y-61608799D01*
X150596837Y-61575763D01*
X150563801Y-61526321D01*
X150552200Y-61468000D01*
X150552200Y-60248800D01*
X150563801Y-60190479D01*
X150596837Y-60141037D01*
X150646279Y-60108001D01*
X150704600Y-60096400D01*
X152831800Y-60096400D01*
X152890121Y-60108001D01*
G37*
G36*
X169800121Y-60108001D02*
G01*
X169849563Y-60141037D01*
X169882599Y-60190479D01*
X169894200Y-60248800D01*
X169894200Y-61468000D01*
X169882599Y-61526321D01*
X169849563Y-61575763D01*
X169800121Y-61608799D01*
X169741800Y-61620400D01*
X167614600Y-61620400D01*
X167556279Y-61608799D01*
X167506837Y-61575763D01*
X167473801Y-61526321D01*
X167473552Y-61525072D01*
X167468650Y-61520170D01*
X167359792Y-61447434D01*
X167254166Y-61341808D01*
X167171176Y-61217604D01*
X167114011Y-61079597D01*
X167084869Y-60933089D01*
X167084869Y-60783711D01*
X167114011Y-60637203D01*
X167171176Y-60499196D01*
X167254166Y-60374992D01*
X167359792Y-60269366D01*
X167468647Y-60196631D01*
X167473552Y-60191726D01*
X167473801Y-60190479D01*
X167506837Y-60141037D01*
X167556279Y-60108001D01*
X167614600Y-60096400D01*
X169741800Y-60096400D01*
X169800121Y-60108001D01*
G37*
G36*
X130694850Y-58900964D02*
G01*
X130745041Y-58906787D01*
X130762191Y-58914359D01*
X130785671Y-58919030D01*
X130810806Y-58935825D01*
X130830696Y-58944607D01*
X130844280Y-58958191D01*
X130866777Y-58973223D01*
X130881808Y-58995719D01*
X130895392Y-59009303D01*
X130904173Y-59029190D01*
X130920970Y-59054329D01*
X130925640Y-59077809D01*
X130933212Y-59094958D01*
X130939036Y-59145161D01*
X130939999Y-59150000D01*
X130939999Y-59153456D01*
X130940000Y-59153465D01*
X130940000Y-60086291D01*
X130940000Y-60850001D01*
X130939034Y-60854853D01*
X130933212Y-60905041D01*
X130925641Y-60922187D01*
X130920970Y-60945671D01*
X130904171Y-60970811D01*
X130895392Y-60990696D01*
X130881810Y-61004277D01*
X130866777Y-61026777D01*
X130844277Y-61041810D01*
X130830696Y-61055392D01*
X130810811Y-61064171D01*
X130785671Y-61080970D01*
X130762188Y-61085640D01*
X130745041Y-61093212D01*
X130694838Y-61099036D01*
X130690000Y-61099999D01*
X130686543Y-61099999D01*
X130686535Y-61100000D01*
X128993465Y-61100000D01*
X128993464Y-61099999D01*
X128989999Y-61100000D01*
X128985147Y-61099035D01*
X128934958Y-61093212D01*
X128917810Y-61085640D01*
X128894329Y-61080970D01*
X128869190Y-61064173D01*
X128849303Y-61055392D01*
X128835719Y-61041808D01*
X128813223Y-61026777D01*
X128798191Y-61004280D01*
X128784607Y-60990696D01*
X128775825Y-60970806D01*
X128759030Y-60945671D01*
X128754360Y-60922192D01*
X128746787Y-60905041D01*
X128740963Y-60854838D01*
X128740001Y-60850000D01*
X128740000Y-60846542D01*
X128740000Y-60846534D01*
X128740000Y-59153465D01*
X128740000Y-59153464D01*
X128740000Y-59149999D01*
X128740964Y-59145149D01*
X128746787Y-59094958D01*
X128754359Y-59077806D01*
X128759030Y-59054329D01*
X128775823Y-59029194D01*
X128784607Y-59009303D01*
X128798193Y-58995716D01*
X128813223Y-58973223D01*
X128835716Y-58958193D01*
X128849303Y-58944607D01*
X128869194Y-58935823D01*
X128894329Y-58919030D01*
X128917805Y-58914360D01*
X128934958Y-58906787D01*
X128985163Y-58900963D01*
X128990000Y-58900001D01*
X128993456Y-58900000D01*
X128993465Y-58900000D01*
X130686535Y-58900000D01*
X130690001Y-58900000D01*
X130694850Y-58900964D01*
G37*
G36*
X140256790Y-58930393D02*
G01*
X140420952Y-58983733D01*
X140574748Y-59062096D01*
X140714393Y-59163553D01*
X140836447Y-59285607D01*
X140937904Y-59425252D01*
X141016267Y-59579048D01*
X141069607Y-59743210D01*
X141096609Y-59913695D01*
X141096609Y-60086305D01*
X141069607Y-60256790D01*
X141016267Y-60420952D01*
X140937904Y-60574748D01*
X140836447Y-60714393D01*
X140714393Y-60836447D01*
X140574748Y-60937904D01*
X140420952Y-61016267D01*
X140256790Y-61069607D01*
X140086305Y-61096609D01*
X139913695Y-61096609D01*
X139743210Y-61069607D01*
X139579048Y-61016267D01*
X139425252Y-60937904D01*
X139285607Y-60836447D01*
X139163553Y-60714393D01*
X139062096Y-60574748D01*
X138983733Y-60420952D01*
X138930393Y-60256790D01*
X138903391Y-60086305D01*
X138903391Y-59913695D01*
X138930393Y-59743210D01*
X138983733Y-59579048D01*
X139062096Y-59425252D01*
X139163553Y-59285607D01*
X139285607Y-59163553D01*
X139425252Y-59062096D01*
X139579048Y-58983733D01*
X139743210Y-58930393D01*
X139913695Y-58903391D01*
X140086305Y-58903391D01*
X140256790Y-58930393D01*
G37*
G36*
X179050000Y-60425000D02*
G01*
X177450000Y-60425000D01*
X177450000Y-59575000D01*
X179050000Y-59575000D01*
X179050000Y-60425000D01*
G37*
G36*
X182550000Y-60425000D02*
G01*
X180950000Y-60425000D01*
X180950000Y-59575000D01*
X182550000Y-59575000D01*
X182550000Y-60425000D01*
G37*
G36*
X119200181Y-55578429D02*
G01*
X119452879Y-55646140D01*
X119694577Y-55746255D01*
X119921140Y-55877061D01*
X120128692Y-56036320D01*
X120313680Y-56221308D01*
X120472939Y-56428860D01*
X120603745Y-56655423D01*
X120703860Y-56897121D01*
X120771571Y-57149819D01*
X120805718Y-57409194D01*
X120805718Y-57670806D01*
X120771571Y-57930181D01*
X120703860Y-58182879D01*
X120603745Y-58424577D01*
X120472939Y-58651140D01*
X120313680Y-58858692D01*
X120128692Y-59043680D01*
X119921140Y-59202939D01*
X119694577Y-59333745D01*
X119452879Y-59433860D01*
X119200181Y-59501571D01*
X118940806Y-59535718D01*
X118679194Y-59535718D01*
X118419819Y-59501571D01*
X118167121Y-59433860D01*
X117925423Y-59333745D01*
X117698860Y-59202939D01*
X117491308Y-59043680D01*
X117306320Y-58858692D01*
X117147061Y-58651140D01*
X117016255Y-58424577D01*
X116916140Y-58182879D01*
X116848429Y-57930181D01*
X116814282Y-57670806D01*
X116814282Y-57409194D01*
X116848429Y-57149819D01*
X116916140Y-56897121D01*
X117016255Y-56655423D01*
X117147061Y-56428860D01*
X117306320Y-56221308D01*
X117491308Y-56036320D01*
X117698860Y-55877061D01*
X117925423Y-55746255D01*
X118167121Y-55646140D01*
X118419819Y-55578429D01*
X118679194Y-55544282D01*
X118940806Y-55544282D01*
X119200181Y-55578429D01*
G37*
G36*
X152890121Y-57568001D02*
G01*
X152939563Y-57601037D01*
X152972599Y-57650479D01*
X152972847Y-57651727D01*
X152977749Y-57656629D01*
X153086608Y-57729366D01*
X153192234Y-57834992D01*
X153275224Y-57959196D01*
X153332389Y-58097203D01*
X153361531Y-58243711D01*
X153361531Y-58393089D01*
X153332389Y-58539597D01*
X153275224Y-58677604D01*
X153192234Y-58801808D01*
X153086608Y-58907434D01*
X152977746Y-58980172D01*
X152972847Y-58985071D01*
X152972599Y-58986321D01*
X152939563Y-59035763D01*
X152890121Y-59068799D01*
X152831800Y-59080400D01*
X150704600Y-59080400D01*
X150646279Y-59068799D01*
X150596837Y-59035763D01*
X150563801Y-58986321D01*
X150552200Y-58928000D01*
X150552200Y-57708800D01*
X150563801Y-57650479D01*
X150596837Y-57601037D01*
X150646279Y-57568001D01*
X150704600Y-57556400D01*
X152831800Y-57556400D01*
X152890121Y-57568001D01*
G37*
G36*
X169800121Y-57568001D02*
G01*
X169849563Y-57601037D01*
X169882599Y-57650479D01*
X169894200Y-57708800D01*
X169894200Y-58928000D01*
X169882599Y-58986321D01*
X169849563Y-59035763D01*
X169800121Y-59068799D01*
X169741800Y-59080400D01*
X167614600Y-59080400D01*
X167556279Y-59068799D01*
X167506837Y-59035763D01*
X167473801Y-58986321D01*
X167473552Y-58985072D01*
X167468650Y-58980170D01*
X167359792Y-58907434D01*
X167254166Y-58801808D01*
X167171176Y-58677604D01*
X167114011Y-58539597D01*
X167084869Y-58393089D01*
X167084869Y-58243711D01*
X167114011Y-58097203D01*
X167171176Y-57959196D01*
X167254166Y-57834992D01*
X167359792Y-57729366D01*
X167468647Y-57656631D01*
X167473552Y-57651726D01*
X167473801Y-57650479D01*
X167506837Y-57601037D01*
X167556279Y-57568001D01*
X167614600Y-57556400D01*
X169741800Y-57556400D01*
X169800121Y-57568001D01*
G37*
G36*
X113976742Y-56726601D02*
G01*
X114130687Y-56790367D01*
X114269234Y-56882941D01*
X114387059Y-57000766D01*
X114479633Y-57139313D01*
X114543399Y-57293258D01*
X114575907Y-57456685D01*
X114575907Y-57623315D01*
X114543399Y-57786742D01*
X114479633Y-57940687D01*
X114387059Y-58079234D01*
X114269234Y-58197059D01*
X114130687Y-58289633D01*
X113976742Y-58353399D01*
X113813315Y-58385907D01*
X113646685Y-58385907D01*
X113483258Y-58353399D01*
X113329313Y-58289633D01*
X113190766Y-58197059D01*
X113072941Y-58079234D01*
X112980367Y-57940687D01*
X112916601Y-57786742D01*
X112884093Y-57623315D01*
X112884093Y-57456685D01*
X112916601Y-57293258D01*
X112980367Y-57139313D01*
X113072941Y-57000766D01*
X113190766Y-56882941D01*
X113329313Y-56790367D01*
X113483258Y-56726601D01*
X113646685Y-56694093D01*
X113813315Y-56694093D01*
X113976742Y-56726601D01*
G37*
G36*
X124136742Y-56726601D02*
G01*
X124290687Y-56790367D01*
X124429234Y-56882941D01*
X124547059Y-57000766D01*
X124639633Y-57139313D01*
X124703399Y-57293258D01*
X124735907Y-57456685D01*
X124735907Y-57623315D01*
X124703399Y-57786742D01*
X124639633Y-57940687D01*
X124547059Y-58079234D01*
X124429234Y-58197059D01*
X124290687Y-58289633D01*
X124136742Y-58353399D01*
X123973315Y-58385907D01*
X123806685Y-58385907D01*
X123643258Y-58353399D01*
X123489313Y-58289633D01*
X123350766Y-58197059D01*
X123232941Y-58079234D01*
X123140367Y-57940687D01*
X123076601Y-57786742D01*
X123044093Y-57623315D01*
X123044093Y-57456685D01*
X123076601Y-57293258D01*
X123140367Y-57139313D01*
X123232941Y-57000766D01*
X123350766Y-56882941D01*
X123489313Y-56790367D01*
X123643258Y-56726601D01*
X123806685Y-56694093D01*
X123973315Y-56694093D01*
X124136742Y-56726601D01*
G37*
G36*
X152890121Y-55028001D02*
G01*
X152939563Y-55061037D01*
X152972599Y-55110479D01*
X152972847Y-55111727D01*
X152977749Y-55116629D01*
X153086608Y-55189366D01*
X153192234Y-55294992D01*
X153275224Y-55419196D01*
X153332389Y-55557203D01*
X153361531Y-55703711D01*
X153361531Y-55853089D01*
X153332389Y-55999597D01*
X153275224Y-56137604D01*
X153192234Y-56261808D01*
X153086608Y-56367434D01*
X152977746Y-56440172D01*
X152972847Y-56445071D01*
X152972599Y-56446321D01*
X152939563Y-56495763D01*
X152890121Y-56528799D01*
X152831800Y-56540400D01*
X150704600Y-56540400D01*
X150646279Y-56528799D01*
X150596837Y-56495763D01*
X150563801Y-56446321D01*
X150552200Y-56388000D01*
X150552200Y-55168800D01*
X150563801Y-55110479D01*
X150596837Y-55061037D01*
X150646279Y-55028001D01*
X150704600Y-55016400D01*
X152831800Y-55016400D01*
X152890121Y-55028001D01*
G37*
G36*
X169800121Y-55028001D02*
G01*
X169849563Y-55061037D01*
X169882599Y-55110479D01*
X169894200Y-55168800D01*
X169894200Y-56388000D01*
X169882599Y-56446321D01*
X169849563Y-56495763D01*
X169800121Y-56528799D01*
X169741800Y-56540400D01*
X167614600Y-56540400D01*
X167556279Y-56528799D01*
X167506837Y-56495763D01*
X167473801Y-56446321D01*
X167473552Y-56445072D01*
X167468650Y-56440170D01*
X167359792Y-56367434D01*
X167254166Y-56261808D01*
X167171176Y-56137604D01*
X167114011Y-55999597D01*
X167084869Y-55853089D01*
X167084869Y-55703711D01*
X167114011Y-55557203D01*
X167171176Y-55419196D01*
X167254166Y-55294992D01*
X167359792Y-55189366D01*
X167468647Y-55116631D01*
X167473552Y-55111726D01*
X167473801Y-55110479D01*
X167506837Y-55061037D01*
X167556279Y-55028001D01*
X167614600Y-55016400D01*
X169741800Y-55016400D01*
X169800121Y-55028001D01*
G37*
G36*
X115256790Y-53930393D02*
G01*
X115420952Y-53983733D01*
X115574748Y-54062096D01*
X115714393Y-54163553D01*
X115836447Y-54285607D01*
X115937904Y-54425252D01*
X116016267Y-54579048D01*
X116069607Y-54743210D01*
X116096609Y-54913695D01*
X116096609Y-55086305D01*
X116069607Y-55256790D01*
X116016267Y-55420952D01*
X115937904Y-55574748D01*
X115836447Y-55714393D01*
X115714393Y-55836447D01*
X115574748Y-55937904D01*
X115420952Y-56016267D01*
X115256790Y-56069607D01*
X115086305Y-56096609D01*
X114913695Y-56096609D01*
X114743210Y-56069607D01*
X114579048Y-56016267D01*
X114425252Y-55937904D01*
X114285607Y-55836447D01*
X114163553Y-55714393D01*
X114062096Y-55574748D01*
X113983733Y-55420952D01*
X113930393Y-55256790D01*
X113903391Y-55086305D01*
X113903391Y-54913695D01*
X113930393Y-54743210D01*
X113983733Y-54579048D01*
X114062096Y-54425252D01*
X114163553Y-54285607D01*
X114285607Y-54163553D01*
X114425252Y-54062096D01*
X114579048Y-53983733D01*
X114743210Y-53930393D01*
X114913695Y-53903391D01*
X115086305Y-53903391D01*
X115256790Y-53930393D01*
G37*
G36*
X152890121Y-52488001D02*
G01*
X152939563Y-52521037D01*
X152972599Y-52570479D01*
X152972847Y-52571727D01*
X152977749Y-52576629D01*
X153086608Y-52649366D01*
X153192234Y-52754992D01*
X153275224Y-52879196D01*
X153332389Y-53017203D01*
X153361531Y-53163711D01*
X153361531Y-53313089D01*
X153332389Y-53459597D01*
X153275224Y-53597604D01*
X153192234Y-53721808D01*
X153086608Y-53827434D01*
X152977746Y-53900172D01*
X152972847Y-53905071D01*
X152972599Y-53906321D01*
X152939563Y-53955763D01*
X152890121Y-53988799D01*
X152831800Y-54000400D01*
X150704600Y-54000400D01*
X150646279Y-53988799D01*
X150596837Y-53955763D01*
X150563801Y-53906321D01*
X150552200Y-53848000D01*
X150552200Y-52628800D01*
X150563801Y-52570479D01*
X150596837Y-52521037D01*
X150646279Y-52488001D01*
X150704600Y-52476400D01*
X152831800Y-52476400D01*
X152890121Y-52488001D01*
G37*
G36*
X169800121Y-52488001D02*
G01*
X169849563Y-52521037D01*
X169882599Y-52570479D01*
X169894200Y-52628800D01*
X169894200Y-53848000D01*
X169882599Y-53906321D01*
X169849563Y-53955763D01*
X169800121Y-53988799D01*
X169741800Y-54000400D01*
X167614600Y-54000400D01*
X167556279Y-53988799D01*
X167506837Y-53955763D01*
X167473801Y-53906321D01*
X167473552Y-53905072D01*
X167468650Y-53900170D01*
X167359792Y-53827434D01*
X167254166Y-53721808D01*
X167171176Y-53597604D01*
X167114011Y-53459597D01*
X167084869Y-53313089D01*
X167084869Y-53163711D01*
X167114011Y-53017203D01*
X167171176Y-52879196D01*
X167254166Y-52754992D01*
X167359792Y-52649366D01*
X167468647Y-52576631D01*
X167473552Y-52571726D01*
X167473801Y-52570479D01*
X167506837Y-52521037D01*
X167556279Y-52488001D01*
X167614600Y-52476400D01*
X169741800Y-52476400D01*
X169800121Y-52488001D01*
G37*
G36*
X121606790Y-51390393D02*
G01*
X121770952Y-51443733D01*
X121924748Y-51522096D01*
X122064393Y-51623553D01*
X122186447Y-51745607D01*
X122287904Y-51885252D01*
X122366267Y-52039048D01*
X122419607Y-52203210D01*
X122446609Y-52373695D01*
X122446609Y-52546305D01*
X122419607Y-52716790D01*
X122366267Y-52880952D01*
X122287904Y-53034748D01*
X122186447Y-53174393D01*
X122064393Y-53296447D01*
X121924748Y-53397904D01*
X121770952Y-53476267D01*
X121606790Y-53529607D01*
X121436305Y-53556609D01*
X121263695Y-53556609D01*
X121093210Y-53529607D01*
X120929048Y-53476267D01*
X120775252Y-53397904D01*
X120635607Y-53296447D01*
X120513553Y-53174393D01*
X120412096Y-53034748D01*
X120333733Y-52880952D01*
X120280393Y-52716790D01*
X120253391Y-52546305D01*
X120253391Y-52373695D01*
X120280393Y-52203210D01*
X120333733Y-52039048D01*
X120412096Y-51885252D01*
X120513553Y-51745607D01*
X120635607Y-51623553D01*
X120775252Y-51522096D01*
X120929048Y-51443733D01*
X121093210Y-51390393D01*
X121263695Y-51363391D01*
X121436305Y-51363391D01*
X121606790Y-51390393D01*
G37*
G36*
X152890121Y-49948001D02*
G01*
X152939563Y-49981037D01*
X152972599Y-50030479D01*
X152972847Y-50031727D01*
X152977749Y-50036629D01*
X153086608Y-50109366D01*
X153192234Y-50214992D01*
X153275224Y-50339196D01*
X153332389Y-50477203D01*
X153361531Y-50623711D01*
X153361531Y-50773089D01*
X153332389Y-50919597D01*
X153275224Y-51057604D01*
X153192234Y-51181808D01*
X153086608Y-51287434D01*
X152977746Y-51360172D01*
X152972847Y-51365071D01*
X152972599Y-51366321D01*
X152939563Y-51415763D01*
X152890121Y-51448799D01*
X152831800Y-51460400D01*
X150704600Y-51460400D01*
X150646279Y-51448799D01*
X150596837Y-51415763D01*
X150563801Y-51366321D01*
X150552200Y-51308000D01*
X150552200Y-50088800D01*
X150563801Y-50030479D01*
X150596837Y-49981037D01*
X150646279Y-49948001D01*
X150704600Y-49936400D01*
X152831800Y-49936400D01*
X152890121Y-49948001D01*
G37*
G36*
X169800121Y-49948001D02*
G01*
X169849563Y-49981037D01*
X169882599Y-50030479D01*
X169894200Y-50088800D01*
X169894200Y-51308000D01*
X169882599Y-51366321D01*
X169849563Y-51415763D01*
X169800121Y-51448799D01*
X169741800Y-51460400D01*
X167614600Y-51460400D01*
X167556279Y-51448799D01*
X167506837Y-51415763D01*
X167473801Y-51366321D01*
X167473552Y-51365072D01*
X167468650Y-51360170D01*
X167359792Y-51287434D01*
X167254166Y-51181808D01*
X167171176Y-51057604D01*
X167114011Y-50919597D01*
X167084869Y-50773089D01*
X167084869Y-50623711D01*
X167114011Y-50477203D01*
X167171176Y-50339196D01*
X167254166Y-50214992D01*
X167359792Y-50109366D01*
X167468647Y-50036631D01*
X167473552Y-50031726D01*
X167473801Y-50030479D01*
X167506837Y-49981037D01*
X167556279Y-49948001D01*
X167614600Y-49936400D01*
X169741800Y-49936400D01*
X169800121Y-49948001D01*
G37*
G36*
X152890121Y-47408001D02*
G01*
X152939563Y-47441037D01*
X152972599Y-47490479D01*
X152972847Y-47491727D01*
X152977749Y-47496629D01*
X153086608Y-47569366D01*
X153192234Y-47674992D01*
X153275224Y-47799196D01*
X153332389Y-47937203D01*
X153361531Y-48083711D01*
X153361531Y-48233089D01*
X153332389Y-48379597D01*
X153275224Y-48517604D01*
X153192234Y-48641808D01*
X153086608Y-48747434D01*
X152977746Y-48820172D01*
X152972847Y-48825071D01*
X152972599Y-48826321D01*
X152939563Y-48875763D01*
X152890121Y-48908799D01*
X152831800Y-48920400D01*
X150704600Y-48920400D01*
X150646279Y-48908799D01*
X150596837Y-48875763D01*
X150563801Y-48826321D01*
X150552200Y-48768000D01*
X150552200Y-47548800D01*
X150563801Y-47490479D01*
X150596837Y-47441037D01*
X150646279Y-47408001D01*
X150704600Y-47396400D01*
X152831800Y-47396400D01*
X152890121Y-47408001D01*
G37*
G36*
X169800121Y-47408001D02*
G01*
X169849563Y-47441037D01*
X169882599Y-47490479D01*
X169894200Y-47548800D01*
X169894200Y-48768000D01*
X169882599Y-48826321D01*
X169849563Y-48875763D01*
X169800121Y-48908799D01*
X169741800Y-48920400D01*
X167614600Y-48920400D01*
X167556279Y-48908799D01*
X167506837Y-48875763D01*
X167473801Y-48826321D01*
X167473552Y-48825072D01*
X167468650Y-48820170D01*
X167359792Y-48747434D01*
X167254166Y-48641808D01*
X167171176Y-48517604D01*
X167114011Y-48379597D01*
X167084869Y-48233089D01*
X167084869Y-48083711D01*
X167114011Y-47937203D01*
X167171176Y-47799196D01*
X167254166Y-47674992D01*
X167359792Y-47569366D01*
X167468647Y-47496631D01*
X167473552Y-47491726D01*
X167473801Y-47490479D01*
X167506837Y-47441037D01*
X167556279Y-47408001D01*
X167614600Y-47396400D01*
X169741800Y-47396400D01*
X169800121Y-47408001D01*
G37*
G36*
X152890121Y-44868001D02*
G01*
X152939563Y-44901037D01*
X152972599Y-44950479D01*
X152972847Y-44951727D01*
X152977749Y-44956629D01*
X153086608Y-45029366D01*
X153192234Y-45134992D01*
X153275224Y-45259196D01*
X153332389Y-45397203D01*
X153361531Y-45543711D01*
X153361531Y-45693089D01*
X153332389Y-45839597D01*
X153275224Y-45977604D01*
X153192234Y-46101808D01*
X153086608Y-46207434D01*
X152977746Y-46280172D01*
X152972847Y-46285071D01*
X152972599Y-46286321D01*
X152939563Y-46335763D01*
X152890121Y-46368799D01*
X152831800Y-46380400D01*
X150704600Y-46380400D01*
X150646279Y-46368799D01*
X150596837Y-46335763D01*
X150563801Y-46286321D01*
X150552200Y-46228000D01*
X150552200Y-45008800D01*
X150563801Y-44950479D01*
X150596837Y-44901037D01*
X150646279Y-44868001D01*
X150704600Y-44856400D01*
X152831800Y-44856400D01*
X152890121Y-44868001D01*
G37*
G36*
X169800121Y-44868001D02*
G01*
X169849563Y-44901037D01*
X169882599Y-44950479D01*
X169894200Y-45008800D01*
X169894200Y-46228000D01*
X169882599Y-46286321D01*
X169849563Y-46335763D01*
X169800121Y-46368799D01*
X169741800Y-46380400D01*
X167614600Y-46380400D01*
X167556279Y-46368799D01*
X167506837Y-46335763D01*
X167473801Y-46286321D01*
X167473552Y-46285072D01*
X167468650Y-46280170D01*
X167359792Y-46207434D01*
X167254166Y-46101808D01*
X167171176Y-45977604D01*
X167114011Y-45839597D01*
X167084869Y-45693089D01*
X167084869Y-45543711D01*
X167114011Y-45397203D01*
X167171176Y-45259196D01*
X167254166Y-45134992D01*
X167359792Y-45029366D01*
X167468647Y-44956631D01*
X167473552Y-44951726D01*
X167473801Y-44950479D01*
X167506837Y-44901037D01*
X167556279Y-44868001D01*
X167614600Y-44856400D01*
X169741800Y-44856400D01*
X169800121Y-44868001D01*
G37*
%LPD*%
M02*
