G04 #@! TF.GenerationSoftware,KiCad,Pcbnew,9.0.6*
G04 #@! TF.CreationDate,2025-12-19T00:03:08+05:30*
G04 #@! TF.ProjectId,macropad,6d616372-6f70-4616-942e-6b696361645f,rev?*
G04 #@! TF.SameCoordinates,Original*
G04 #@! TF.FileFunction,Copper,L4,Bot*
G04 #@! TF.FilePolarity,Positive*
%FSLAX46Y46*%
G04 Gerber Fmt 4.6, Leading zero omitted, Abs format (unit mm)*
G04 Created by KiCad (PCBNEW 9.0.6) date 2025-12-19 00:03:08*
%MOMM*%
%LPD*%
G01*
G04 APERTURE LIST*
G04 Aperture macros list*
%AMRoundRect*
0 Rectangle with rounded corners*
0 $1 Rounding radius*
0 $2 $3 $4 $5 $6 $7 $8 $9 X,Y pos of 4 corners*
0 Add a 4 corners polygon primitive as box body*
4,1,4,$2,$3,$4,$5,$6,$7,$8,$9,$2,$3,0*
0 Add four circle primitives for the rounded corners*
1,1,$1+$1,$2,$3*
1,1,$1+$1,$4,$5*
1,1,$1+$1,$6,$7*
1,1,$1+$1,$8,$9*
0 Add four rect primitives between the rounded corners*
20,1,$1+$1,$2,$3,$4,$5,0*
20,1,$1+$1,$4,$5,$6,$7,0*
20,1,$1+$1,$6,$7,$8,$9,0*
20,1,$1+$1,$8,$9,$2,$3,0*%
G04 Aperture macros list end*
G04 #@! TA.AperFunction,ComponentPad*
%ADD10C,2.200000*%
G04 #@! TD*
G04 #@! TA.AperFunction,ComponentPad*
%ADD11C,1.524000*%
G04 #@! TD*
G04 #@! TA.AperFunction,ComponentPad*
%ADD12R,2.000000X2.000000*%
G04 #@! TD*
G04 #@! TA.AperFunction,ComponentPad*
%ADD13C,2.000000*%
G04 #@! TD*
G04 #@! TA.AperFunction,ComponentPad*
%ADD14R,3.000000X2.500000*%
G04 #@! TD*
G04 #@! TA.AperFunction,ComponentPad*
%ADD15RoundRect,0.249999X-0.850001X-0.850001X0.850001X-0.850001X0.850001X0.850001X-0.850001X0.850001X0*%
G04 #@! TD*
G04 APERTURE END LIST*
D10*
X114890000Y-101910000D03*
X121240000Y-99370000D03*
D11*
X167843200Y-45618400D03*
X167843200Y-48158400D03*
X167843200Y-50698400D03*
X167843200Y-53238400D03*
X167843200Y-55778400D03*
X167843200Y-58318400D03*
X167843200Y-60858400D03*
X152603200Y-60858400D03*
X152603200Y-58318400D03*
X152603200Y-55778400D03*
X152603200Y-53238400D03*
X152603200Y-50698400D03*
X152603200Y-48158400D03*
X152603200Y-45618400D03*
D12*
X152500000Y-88100000D03*
D13*
X152500000Y-93100000D03*
X152500000Y-90600000D03*
D14*
X160000000Y-85000000D03*
X160000000Y-96200000D03*
D10*
X121240000Y-84280000D03*
X114890000Y-86820000D03*
X121240000Y-69190000D03*
X114890000Y-71730000D03*
X121350000Y-52460000D03*
X115000000Y-55000000D03*
D15*
X129840000Y-105000000D03*
D10*
X140000000Y-105000000D03*
D15*
X129840000Y-90000000D03*
D10*
X140000000Y-90000000D03*
D15*
X129840000Y-75000000D03*
D10*
X140000000Y-75000000D03*
D15*
X129840000Y-60000000D03*
D10*
X140000000Y-60000000D03*
G04 #@! TA.AperFunction,Conductor*
G36*
X184442539Y-43344585D02*
G01*
X184488294Y-43397389D01*
X184499500Y-43448900D01*
X184499500Y-114375500D01*
X184479815Y-114442539D01*
X184427011Y-114488294D01*
X184375500Y-114499500D01*
X110624500Y-114499500D01*
X110557461Y-114479815D01*
X110511706Y-114427011D01*
X110500500Y-114375500D01*
X110500500Y-104363389D01*
X112519500Y-104363389D01*
X112519500Y-104536611D01*
X112546598Y-104707701D01*
X112600127Y-104872445D01*
X112678768Y-105026788D01*
X112780586Y-105166928D01*
X112903072Y-105289414D01*
X113043212Y-105391232D01*
X113197555Y-105469873D01*
X113362299Y-105523402D01*
X113533389Y-105550500D01*
X113533390Y-105550500D01*
X113706610Y-105550500D01*
X113706611Y-105550500D01*
X113877701Y-105523402D01*
X114042445Y-105469873D01*
X114196788Y-105391232D01*
X114336928Y-105289414D01*
X114459414Y-105166928D01*
X114561232Y-105026788D01*
X114639873Y-104872445D01*
X114693402Y-104707701D01*
X114720500Y-104536611D01*
X114720500Y-104363389D01*
X114710854Y-104302486D01*
X116449500Y-104302486D01*
X116449500Y-104597513D01*
X116481571Y-104841113D01*
X116488007Y-104889993D01*
X116562212Y-105166930D01*
X116564361Y-105174951D01*
X116564364Y-105174961D01*
X116677254Y-105447500D01*
X116677258Y-105447510D01*
X116824761Y-105702993D01*
X117004352Y-105937040D01*
X117004358Y-105937047D01*
X117212952Y-106145641D01*
X117212959Y-106145647D01*
X117447006Y-106325238D01*
X117702489Y-106472741D01*
X117702490Y-106472741D01*
X117702493Y-106472743D01*
X117975048Y-106585639D01*
X118260007Y-106661993D01*
X118552494Y-106700500D01*
X118552501Y-106700500D01*
X118847499Y-106700500D01*
X118847506Y-106700500D01*
X119139993Y-106661993D01*
X119424952Y-106585639D01*
X119697507Y-106472743D01*
X119952994Y-106325238D01*
X120187042Y-106145646D01*
X120395646Y-105937042D01*
X120575238Y-105702994D01*
X120722743Y-105447507D01*
X120835639Y-105174952D01*
X120911993Y-104889993D01*
X120950500Y-104597506D01*
X120950500Y-104363389D01*
X122679500Y-104363389D01*
X122679500Y-104536611D01*
X122706598Y-104707701D01*
X122760127Y-104872445D01*
X122838768Y-105026788D01*
X122940586Y-105166928D01*
X123063072Y-105289414D01*
X123203212Y-105391232D01*
X123357555Y-105469873D01*
X123522299Y-105523402D01*
X123693389Y-105550500D01*
X123693390Y-105550500D01*
X123866610Y-105550500D01*
X123866611Y-105550500D01*
X124037701Y-105523402D01*
X124202445Y-105469873D01*
X124356788Y-105391232D01*
X124496928Y-105289414D01*
X124619414Y-105166928D01*
X124721232Y-105026788D01*
X124799873Y-104872445D01*
X124853402Y-104707701D01*
X124880500Y-104536611D01*
X124880500Y-104363389D01*
X124853402Y-104192299D01*
X124823406Y-104099982D01*
X128239500Y-104099982D01*
X128239500Y-105900017D01*
X128250000Y-106002796D01*
X128297335Y-106145641D01*
X128305186Y-106169335D01*
X128397288Y-106318656D01*
X128521344Y-106442712D01*
X128670665Y-106534814D01*
X128837202Y-106589999D01*
X128939990Y-106600500D01*
X128939995Y-106600500D01*
X130740005Y-106600500D01*
X130740010Y-106600500D01*
X130842798Y-106589999D01*
X131009335Y-106534814D01*
X131158656Y-106442712D01*
X131282712Y-106318656D01*
X131374814Y-106169335D01*
X131429999Y-106002798D01*
X131440500Y-105900010D01*
X131440500Y-104874038D01*
X138399500Y-104874038D01*
X138399500Y-105125962D01*
X138438910Y-105374785D01*
X138516760Y-105614383D01*
X138631132Y-105838848D01*
X138779201Y-106042649D01*
X138779205Y-106042654D01*
X138957345Y-106220794D01*
X138957350Y-106220798D01*
X139135117Y-106349952D01*
X139161155Y-106368870D01*
X139304184Y-106441747D01*
X139385616Y-106483239D01*
X139385618Y-106483239D01*
X139385621Y-106483241D01*
X139625215Y-106561090D01*
X139874038Y-106600500D01*
X139874039Y-106600500D01*
X140125961Y-106600500D01*
X140125962Y-106600500D01*
X140374785Y-106561090D01*
X140614379Y-106483241D01*
X140838845Y-106368870D01*
X141042656Y-106220793D01*
X141220793Y-106042656D01*
X141368870Y-105838845D01*
X141483241Y-105614379D01*
X141561090Y-105374785D01*
X141600500Y-105125962D01*
X141600500Y-104874038D01*
X141561090Y-104625215D01*
X141483241Y-104385621D01*
X141483239Y-104385618D01*
X141483239Y-104385616D01*
X141440882Y-104302486D01*
X141368870Y-104161155D01*
X141324425Y-104099982D01*
X141220798Y-103957350D01*
X141220794Y-103957345D01*
X141042654Y-103779205D01*
X141042649Y-103779201D01*
X140838848Y-103631132D01*
X140838847Y-103631131D01*
X140838845Y-103631130D01*
X140768747Y-103595413D01*
X140614383Y-103516760D01*
X140374785Y-103438910D01*
X140319332Y-103430127D01*
X140125962Y-103399500D01*
X139874038Y-103399500D01*
X139807738Y-103410001D01*
X139625214Y-103438910D01*
X139385616Y-103516760D01*
X139161151Y-103631132D01*
X138957350Y-103779201D01*
X138957345Y-103779205D01*
X138779205Y-103957345D01*
X138779201Y-103957350D01*
X138631132Y-104161151D01*
X138516760Y-104385616D01*
X138467699Y-104536611D01*
X138438910Y-104625215D01*
X138399500Y-104874038D01*
X131440500Y-104874038D01*
X131440500Y-104099990D01*
X131429999Y-103997202D01*
X131374814Y-103830665D01*
X131282712Y-103681344D01*
X131158656Y-103557288D01*
X131018907Y-103471090D01*
X131009337Y-103465187D01*
X131009332Y-103465185D01*
X130971018Y-103452489D01*
X130842798Y-103410001D01*
X130842796Y-103410000D01*
X130740017Y-103399500D01*
X130740010Y-103399500D01*
X128939990Y-103399500D01*
X128939982Y-103399500D01*
X128837203Y-103410000D01*
X128837202Y-103410001D01*
X128776466Y-103430127D01*
X128670667Y-103465185D01*
X128670662Y-103465187D01*
X128521342Y-103557289D01*
X128397289Y-103681342D01*
X128305187Y-103830662D01*
X128305185Y-103830667D01*
X128291087Y-103873212D01*
X128250001Y-103997202D01*
X128250001Y-103997203D01*
X128250000Y-103997203D01*
X128239500Y-104099982D01*
X124823406Y-104099982D01*
X124799873Y-104027555D01*
X124721232Y-103873212D01*
X124619414Y-103733072D01*
X124496928Y-103610586D01*
X124356788Y-103508768D01*
X124202445Y-103430127D01*
X124037701Y-103376598D01*
X124037699Y-103376597D01*
X124037698Y-103376597D01*
X123906271Y-103355781D01*
X123866611Y-103349500D01*
X123693389Y-103349500D01*
X123653728Y-103355781D01*
X123522302Y-103376597D01*
X123357552Y-103430128D01*
X123203211Y-103508768D01*
X123146289Y-103550125D01*
X123063072Y-103610586D01*
X123063070Y-103610588D01*
X123063069Y-103610588D01*
X122940588Y-103733069D01*
X122940588Y-103733070D01*
X122940586Y-103733072D01*
X122907071Y-103779201D01*
X122838768Y-103873211D01*
X122760128Y-104027552D01*
X122706597Y-104192302D01*
X122679500Y-104363389D01*
X120950500Y-104363389D01*
X120950500Y-104302494D01*
X120911993Y-104010007D01*
X120835639Y-103725048D01*
X120722743Y-103452493D01*
X120698210Y-103410001D01*
X120575238Y-103197006D01*
X120395647Y-102962959D01*
X120395641Y-102962952D01*
X120187047Y-102754358D01*
X120187040Y-102754352D01*
X119952993Y-102574761D01*
X119697510Y-102427258D01*
X119697500Y-102427254D01*
X119424961Y-102314364D01*
X119424954Y-102314362D01*
X119424952Y-102314361D01*
X119139993Y-102238007D01*
X119091113Y-102231571D01*
X118847513Y-102199500D01*
X118847506Y-102199500D01*
X118552494Y-102199500D01*
X118552486Y-102199500D01*
X118274085Y-102236153D01*
X118260007Y-102238007D01*
X118085428Y-102284785D01*
X117975048Y-102314361D01*
X117975038Y-102314364D01*
X117702499Y-102427254D01*
X117702489Y-102427258D01*
X117447006Y-102574761D01*
X117212959Y-102754352D01*
X117212952Y-102754358D01*
X117004358Y-102962952D01*
X117004352Y-102962959D01*
X116824761Y-103197006D01*
X116677258Y-103452489D01*
X116677254Y-103452499D01*
X116564364Y-103725038D01*
X116564361Y-103725048D01*
X116488008Y-104010004D01*
X116488006Y-104010015D01*
X116449500Y-104302486D01*
X114710854Y-104302486D01*
X114693402Y-104192299D01*
X114639873Y-104027555D01*
X114561232Y-103873212D01*
X114459414Y-103733072D01*
X114407482Y-103681140D01*
X114373997Y-103619817D01*
X114378981Y-103550125D01*
X114420853Y-103494192D01*
X114486317Y-103469775D01*
X114514561Y-103470986D01*
X114515212Y-103471089D01*
X114515215Y-103471090D01*
X114764038Y-103510500D01*
X114764039Y-103510500D01*
X115015961Y-103510500D01*
X115015962Y-103510500D01*
X115264785Y-103471090D01*
X115504379Y-103393241D01*
X115728845Y-103278870D01*
X115932656Y-103130793D01*
X116110793Y-102952656D01*
X116258870Y-102748845D01*
X116373241Y-102524379D01*
X116451090Y-102284785D01*
X116490500Y-102035962D01*
X116490500Y-101784038D01*
X116451090Y-101535215D01*
X116373241Y-101295621D01*
X116373239Y-101295618D01*
X116373239Y-101295616D01*
X116331747Y-101214184D01*
X116258870Y-101071155D01*
X116156753Y-100930602D01*
X116110798Y-100867350D01*
X116110794Y-100867345D01*
X115932654Y-100689205D01*
X115932649Y-100689201D01*
X115728848Y-100541132D01*
X115728847Y-100541131D01*
X115728845Y-100541130D01*
X115658747Y-100505413D01*
X115504383Y-100426760D01*
X115264785Y-100348910D01*
X115015962Y-100309500D01*
X114764038Y-100309500D01*
X114639626Y-100329205D01*
X114515214Y-100348910D01*
X114275616Y-100426760D01*
X114051151Y-100541132D01*
X113847350Y-100689201D01*
X113847345Y-100689205D01*
X113669205Y-100867345D01*
X113669201Y-100867350D01*
X113521132Y-101071151D01*
X113406760Y-101295616D01*
X113328910Y-101535214D01*
X113289500Y-101784038D01*
X113289500Y-102035961D01*
X113328910Y-102284785D01*
X113406760Y-102524383D01*
X113521132Y-102748848D01*
X113669201Y-102952649D01*
X113669205Y-102952654D01*
X113669207Y-102952656D01*
X113847344Y-103130793D01*
X113847345Y-103130794D01*
X113847344Y-103130794D01*
X113853661Y-103135383D01*
X113896327Y-103190714D01*
X113902305Y-103260327D01*
X113869699Y-103322122D01*
X113808860Y-103356479D01*
X113761378Y-103358174D01*
X113706611Y-103349500D01*
X113533389Y-103349500D01*
X113493728Y-103355781D01*
X113362302Y-103376597D01*
X113197552Y-103430128D01*
X113043211Y-103508768D01*
X112986289Y-103550125D01*
X112903072Y-103610586D01*
X112903070Y-103610588D01*
X112903069Y-103610588D01*
X112780588Y-103733069D01*
X112780588Y-103733070D01*
X112780586Y-103733072D01*
X112747071Y-103779201D01*
X112678768Y-103873211D01*
X112600128Y-104027552D01*
X112546597Y-104192302D01*
X112519500Y-104363389D01*
X110500500Y-104363389D01*
X110500500Y-99244071D01*
X119640000Y-99244071D01*
X119640000Y-99495928D01*
X119679397Y-99744669D01*
X119757219Y-99984184D01*
X119871557Y-100208583D01*
X119945748Y-100310697D01*
X119945748Y-100310698D01*
X120562421Y-99694024D01*
X120575359Y-99725258D01*
X120657437Y-99848097D01*
X120761903Y-99952563D01*
X120884742Y-100034641D01*
X120915974Y-100047577D01*
X120299300Y-100664250D01*
X120401416Y-100738442D01*
X120625815Y-100852780D01*
X120865330Y-100930602D01*
X121114072Y-100970000D01*
X121365928Y-100970000D01*
X121614669Y-100930602D01*
X121854184Y-100852780D01*
X122078575Y-100738446D01*
X122078581Y-100738442D01*
X122180697Y-100664250D01*
X122180698Y-100664250D01*
X121564025Y-100047578D01*
X121595258Y-100034641D01*
X121718097Y-99952563D01*
X121822563Y-99848097D01*
X121904641Y-99725258D01*
X121917577Y-99694025D01*
X122534250Y-100310698D01*
X122534250Y-100310697D01*
X122608442Y-100208581D01*
X122608446Y-100208575D01*
X122722780Y-99984184D01*
X122800602Y-99744669D01*
X122840000Y-99495928D01*
X122840000Y-99244071D01*
X122800602Y-98995330D01*
X122722780Y-98755815D01*
X122608442Y-98531416D01*
X122534250Y-98429301D01*
X122534250Y-98429300D01*
X121917577Y-99045973D01*
X121904641Y-99014742D01*
X121822563Y-98891903D01*
X121718097Y-98787437D01*
X121595258Y-98705359D01*
X121564024Y-98692421D01*
X122180698Y-98075748D01*
X122078583Y-98001557D01*
X121854184Y-97887219D01*
X121614669Y-97809397D01*
X121365928Y-97770000D01*
X121114072Y-97770000D01*
X120865330Y-97809397D01*
X120625815Y-97887219D01*
X120401413Y-98001559D01*
X120299301Y-98075747D01*
X120299300Y-98075748D01*
X120915974Y-98692421D01*
X120884742Y-98705359D01*
X120761903Y-98787437D01*
X120657437Y-98891903D01*
X120575359Y-99014742D01*
X120562421Y-99045974D01*
X119945748Y-98429300D01*
X119945747Y-98429301D01*
X119871559Y-98531413D01*
X119757219Y-98755815D01*
X119679397Y-98995330D01*
X119640000Y-99244071D01*
X110500500Y-99244071D01*
X110500500Y-94902135D01*
X157999500Y-94902135D01*
X157999500Y-97497870D01*
X157999501Y-97497876D01*
X158005908Y-97557483D01*
X158056202Y-97692328D01*
X158056206Y-97692335D01*
X158142452Y-97807544D01*
X158142455Y-97807547D01*
X158257664Y-97893793D01*
X158257671Y-97893797D01*
X158392517Y-97944091D01*
X158392516Y-97944091D01*
X158399444Y-97944835D01*
X158452127Y-97950500D01*
X161547872Y-97950499D01*
X161607483Y-97944091D01*
X161742331Y-97893796D01*
X161857546Y-97807546D01*
X161943796Y-97692331D01*
X161994091Y-97557483D01*
X162000500Y-97497873D01*
X162000499Y-94902128D01*
X161994091Y-94842517D01*
X161943796Y-94707669D01*
X161943795Y-94707668D01*
X161943793Y-94707664D01*
X161857547Y-94592455D01*
X161857544Y-94592452D01*
X161742335Y-94506206D01*
X161742328Y-94506202D01*
X161607482Y-94455908D01*
X161607483Y-94455908D01*
X161547883Y-94449501D01*
X161547881Y-94449500D01*
X161547873Y-94449500D01*
X161547864Y-94449500D01*
X158452129Y-94449500D01*
X158452123Y-94449501D01*
X158392516Y-94455908D01*
X158257671Y-94506202D01*
X158257664Y-94506206D01*
X158142455Y-94592452D01*
X158142452Y-94592455D01*
X158056206Y-94707664D01*
X158056202Y-94707671D01*
X158005908Y-94842517D01*
X157999501Y-94902116D01*
X157999501Y-94902123D01*
X157999500Y-94902135D01*
X110500500Y-94902135D01*
X110500500Y-89273388D01*
X112519500Y-89273388D01*
X112519500Y-89273389D01*
X112519500Y-89446611D01*
X112521232Y-89457544D01*
X112535192Y-89545690D01*
X112546598Y-89617701D01*
X112600127Y-89782445D01*
X112678768Y-89936788D01*
X112780586Y-90076928D01*
X112903072Y-90199414D01*
X113043212Y-90301232D01*
X113197555Y-90379873D01*
X113362299Y-90433402D01*
X113533389Y-90460500D01*
X113533390Y-90460500D01*
X113706610Y-90460500D01*
X113706611Y-90460500D01*
X113877701Y-90433402D01*
X114042445Y-90379873D01*
X114196788Y-90301232D01*
X114336928Y-90199414D01*
X114459414Y-90076928D01*
X114561232Y-89936788D01*
X114639873Y-89782445D01*
X114693402Y-89617701D01*
X114720500Y-89446611D01*
X114720500Y-89273389D01*
X114710854Y-89212486D01*
X116449500Y-89212486D01*
X116449500Y-89507513D01*
X116481571Y-89751113D01*
X116488007Y-89799993D01*
X116562212Y-90076930D01*
X116564361Y-90084951D01*
X116564364Y-90084961D01*
X116677254Y-90357500D01*
X116677258Y-90357510D01*
X116824761Y-90612993D01*
X117004352Y-90847040D01*
X117004358Y-90847047D01*
X117212952Y-91055641D01*
X117212959Y-91055647D01*
X117447006Y-91235238D01*
X117702489Y-91382741D01*
X117702490Y-91382741D01*
X117702493Y-91382743D01*
X117847266Y-91442710D01*
X117945116Y-91483241D01*
X117975048Y-91495639D01*
X118260007Y-91571993D01*
X118552494Y-91610500D01*
X118552501Y-91610500D01*
X118847499Y-91610500D01*
X118847506Y-91610500D01*
X119139993Y-91571993D01*
X119424952Y-91495639D01*
X119697507Y-91382743D01*
X119952994Y-91235238D01*
X120187042Y-91055646D01*
X120395646Y-90847042D01*
X120575238Y-90612994D01*
X120722743Y-90357507D01*
X120835639Y-90084952D01*
X120911993Y-89799993D01*
X120950500Y-89507506D01*
X120950500Y-89273388D01*
X122679500Y-89273388D01*
X122679500Y-89273389D01*
X122679500Y-89446611D01*
X122681232Y-89457544D01*
X122695192Y-89545690D01*
X122706598Y-89617701D01*
X122760127Y-89782445D01*
X122838768Y-89936788D01*
X122940586Y-90076928D01*
X123063072Y-90199414D01*
X123203212Y-90301232D01*
X123357555Y-90379873D01*
X123522299Y-90433402D01*
X123693389Y-90460500D01*
X123693390Y-90460500D01*
X123866610Y-90460500D01*
X123866611Y-90460500D01*
X124037701Y-90433402D01*
X124202445Y-90379873D01*
X124356788Y-90301232D01*
X124496928Y-90199414D01*
X124619414Y-90076928D01*
X124721232Y-89936788D01*
X124799873Y-89782445D01*
X124853402Y-89617701D01*
X124880500Y-89446611D01*
X124880500Y-89273389D01*
X124880500Y-89273388D01*
X124855609Y-89116230D01*
X124853402Y-89102301D01*
X124853402Y-89102299D01*
X124852649Y-89099982D01*
X128239500Y-89099982D01*
X128239500Y-90900017D01*
X128250000Y-91002796D01*
X128305185Y-91169332D01*
X128305187Y-91169337D01*
X128336926Y-91220793D01*
X128397288Y-91318656D01*
X128521344Y-91442712D01*
X128670665Y-91534814D01*
X128837202Y-91589999D01*
X128939990Y-91600500D01*
X128939995Y-91600500D01*
X130740005Y-91600500D01*
X130740010Y-91600500D01*
X130842798Y-91589999D01*
X131009335Y-91534814D01*
X131158656Y-91442712D01*
X131282712Y-91318656D01*
X131374814Y-91169335D01*
X131429999Y-91002798D01*
X131440500Y-90900010D01*
X131440500Y-89874038D01*
X138399500Y-89874038D01*
X138399500Y-90125961D01*
X138438910Y-90374785D01*
X138516760Y-90614383D01*
X138631132Y-90838848D01*
X138779201Y-91042649D01*
X138779205Y-91042654D01*
X138957345Y-91220794D01*
X138957350Y-91220798D01*
X139135117Y-91349952D01*
X139161155Y-91368870D01*
X139304184Y-91441747D01*
X139385616Y-91483239D01*
X139385618Y-91483239D01*
X139385621Y-91483241D01*
X139625215Y-91561090D01*
X139874038Y-91600500D01*
X139874039Y-91600500D01*
X140125961Y-91600500D01*
X140125962Y-91600500D01*
X140374785Y-91561090D01*
X140614379Y-91483241D01*
X140838845Y-91368870D01*
X141042656Y-91220793D01*
X141220793Y-91042656D01*
X141368870Y-90838845D01*
X141483241Y-90614379D01*
X141561090Y-90374785D01*
X141600500Y-90125962D01*
X141600500Y-89874038D01*
X141561090Y-89625215D01*
X141483241Y-89385621D01*
X141483239Y-89385618D01*
X141483239Y-89385616D01*
X141441747Y-89304184D01*
X141368870Y-89161155D01*
X141324425Y-89099982D01*
X141220798Y-88957350D01*
X141220794Y-88957345D01*
X141042654Y-88779205D01*
X141042649Y-88779201D01*
X140838848Y-88631132D01*
X140838847Y-88631131D01*
X140838845Y-88631130D01*
X140760360Y-88591140D01*
X140614383Y-88516760D01*
X140374785Y-88438910D01*
X140125962Y-88399500D01*
X139874038Y-88399500D01*
X139807738Y-88410001D01*
X139625214Y-88438910D01*
X139385616Y-88516760D01*
X139161151Y-88631132D01*
X138957350Y-88779201D01*
X138957345Y-88779205D01*
X138779205Y-88957345D01*
X138779201Y-88957350D01*
X138631132Y-89161151D01*
X138516760Y-89385616D01*
X138438910Y-89625214D01*
X138399500Y-89874038D01*
X131440500Y-89874038D01*
X131440500Y-89099990D01*
X131429999Y-88997202D01*
X131374814Y-88830665D01*
X131282712Y-88681344D01*
X131158656Y-88557288D01*
X131009335Y-88465186D01*
X130842798Y-88410001D01*
X130842796Y-88410000D01*
X130740017Y-88399500D01*
X130740010Y-88399500D01*
X128939990Y-88399500D01*
X128939982Y-88399500D01*
X128837203Y-88410000D01*
X128837202Y-88410001D01*
X128754669Y-88437349D01*
X128670667Y-88465185D01*
X128670662Y-88465187D01*
X128521342Y-88557289D01*
X128397289Y-88681342D01*
X128305187Y-88830662D01*
X128305186Y-88830665D01*
X128250001Y-88997202D01*
X128250001Y-88997203D01*
X128250000Y-88997203D01*
X128239500Y-89099982D01*
X124852649Y-89099982D01*
X124799873Y-88937555D01*
X124721232Y-88783212D01*
X124619414Y-88643072D01*
X124496928Y-88520586D01*
X124356788Y-88418768D01*
X124202445Y-88340127D01*
X124037701Y-88286598D01*
X124037699Y-88286597D01*
X124037698Y-88286597D01*
X123906271Y-88265781D01*
X123866611Y-88259500D01*
X123693389Y-88259500D01*
X123653728Y-88265781D01*
X123522302Y-88286597D01*
X123357552Y-88340128D01*
X123203211Y-88418768D01*
X123139323Y-88465186D01*
X123063072Y-88520586D01*
X123063070Y-88520588D01*
X123063069Y-88520588D01*
X122940588Y-88643069D01*
X122940588Y-88643070D01*
X122940586Y-88643072D01*
X122912781Y-88681342D01*
X122838768Y-88783211D01*
X122760128Y-88937552D01*
X122706597Y-89102302D01*
X122679500Y-89273388D01*
X120950500Y-89273388D01*
X120950500Y-89212494D01*
X120911993Y-88920007D01*
X120835639Y-88635048D01*
X120722743Y-88362493D01*
X120667309Y-88266479D01*
X120575238Y-88107006D01*
X120395647Y-87872959D01*
X120395641Y-87872952D01*
X120187047Y-87664358D01*
X120187040Y-87664352D01*
X119952993Y-87484761D01*
X119697510Y-87337258D01*
X119697500Y-87337254D01*
X119424961Y-87224364D01*
X119424954Y-87224362D01*
X119424952Y-87224361D01*
X119139993Y-87148007D01*
X119091113Y-87141571D01*
X118847513Y-87109500D01*
X118847506Y-87109500D01*
X118552494Y-87109500D01*
X118552486Y-87109500D01*
X118274085Y-87146153D01*
X118260007Y-87148007D01*
X118085428Y-87194785D01*
X117975048Y-87224361D01*
X117975038Y-87224364D01*
X117702499Y-87337254D01*
X117702489Y-87337258D01*
X117447006Y-87484761D01*
X117212959Y-87664352D01*
X117212952Y-87664358D01*
X117004358Y-87872952D01*
X117004352Y-87872959D01*
X116824761Y-88107006D01*
X116677258Y-88362489D01*
X116677254Y-88362499D01*
X116564364Y-88635038D01*
X116564361Y-88635048D01*
X116511946Y-88830667D01*
X116488008Y-88920004D01*
X116488006Y-88920015D01*
X116449500Y-89212486D01*
X114710854Y-89212486D01*
X114693402Y-89102299D01*
X114639873Y-88937555D01*
X114561232Y-88783212D01*
X114459414Y-88643072D01*
X114407482Y-88591140D01*
X114373997Y-88529817D01*
X114378981Y-88460125D01*
X114420853Y-88404192D01*
X114486317Y-88379775D01*
X114514561Y-88380986D01*
X114515212Y-88381089D01*
X114515215Y-88381090D01*
X114764038Y-88420500D01*
X114764039Y-88420500D01*
X115015961Y-88420500D01*
X115015962Y-88420500D01*
X115264785Y-88381090D01*
X115504379Y-88303241D01*
X115728845Y-88188870D01*
X115932656Y-88040793D01*
X116110793Y-87862656D01*
X116258870Y-87658845D01*
X116373241Y-87434379D01*
X116451090Y-87194785D01*
X116473684Y-87052135D01*
X150999500Y-87052135D01*
X150999500Y-89147870D01*
X150999501Y-89147876D01*
X151005908Y-89207483D01*
X151056202Y-89342328D01*
X151056206Y-89342335D01*
X151142452Y-89457544D01*
X151142455Y-89457547D01*
X151260198Y-89545690D01*
X151302069Y-89601623D01*
X151307053Y-89671315D01*
X151286205Y-89717841D01*
X151216659Y-89813563D01*
X151109433Y-90024003D01*
X151036446Y-90248631D01*
X150999500Y-90481902D01*
X150999500Y-90718097D01*
X151036446Y-90951368D01*
X151109433Y-91175996D01*
X151139619Y-91235238D01*
X151216657Y-91386433D01*
X151355483Y-91577510D01*
X151355485Y-91577512D01*
X151522490Y-91744517D01*
X151529603Y-91749685D01*
X151572266Y-91805017D01*
X151578242Y-91874630D01*
X151545634Y-91936424D01*
X151529603Y-91950315D01*
X151522490Y-91955482D01*
X151355485Y-92122487D01*
X151355485Y-92122488D01*
X151355483Y-92122490D01*
X151295862Y-92204550D01*
X151216657Y-92313566D01*
X151109433Y-92524003D01*
X151036446Y-92748631D01*
X150999500Y-92981902D01*
X150999500Y-93218097D01*
X151036446Y-93451368D01*
X151109433Y-93675996D01*
X151216657Y-93886433D01*
X151355483Y-94077510D01*
X151522490Y-94244517D01*
X151713567Y-94383343D01*
X151812991Y-94434002D01*
X151924003Y-94490566D01*
X151924005Y-94490566D01*
X151924008Y-94490568D01*
X151972131Y-94506204D01*
X152148631Y-94563553D01*
X152381903Y-94600500D01*
X152381908Y-94600500D01*
X152618097Y-94600500D01*
X152851368Y-94563553D01*
X153075992Y-94490568D01*
X153286433Y-94383343D01*
X153477510Y-94244517D01*
X153644517Y-94077510D01*
X153783343Y-93886433D01*
X153890568Y-93675992D01*
X153963553Y-93451368D01*
X154000500Y-93218097D01*
X154000500Y-92981902D01*
X153963553Y-92748631D01*
X153890566Y-92524003D01*
X153783342Y-92313566D01*
X153644517Y-92122490D01*
X153477510Y-91955483D01*
X153470401Y-91950318D01*
X153427735Y-91894988D01*
X153421756Y-91825375D01*
X153454362Y-91763580D01*
X153470401Y-91749682D01*
X153470500Y-91749609D01*
X153477510Y-91744517D01*
X153644517Y-91577510D01*
X153783343Y-91386433D01*
X153890568Y-91175992D01*
X153963553Y-90951368D01*
X153980076Y-90847047D01*
X154000500Y-90718097D01*
X154000500Y-90481902D01*
X153963553Y-90248631D01*
X153910370Y-90084952D01*
X153890568Y-90024008D01*
X153890566Y-90024005D01*
X153890566Y-90024003D01*
X153834002Y-89912991D01*
X153783343Y-89813567D01*
X153713793Y-89717840D01*
X153690314Y-89652036D01*
X153706139Y-89583982D01*
X153739801Y-89545689D01*
X153742328Y-89543796D01*
X153742331Y-89543796D01*
X153857546Y-89457546D01*
X153943796Y-89342331D01*
X153994091Y-89207483D01*
X154000500Y-89147873D01*
X154000499Y-87052128D01*
X153994091Y-86992517D01*
X153943796Y-86857669D01*
X153943795Y-86857668D01*
X153943793Y-86857664D01*
X153857547Y-86742455D01*
X153857544Y-86742452D01*
X153742335Y-86656206D01*
X153742328Y-86656202D01*
X153607482Y-86605908D01*
X153607483Y-86605908D01*
X153547883Y-86599501D01*
X153547881Y-86599500D01*
X153547873Y-86599500D01*
X153547864Y-86599500D01*
X151452129Y-86599500D01*
X151452123Y-86599501D01*
X151392516Y-86605908D01*
X151257671Y-86656202D01*
X151257664Y-86656206D01*
X151142455Y-86742452D01*
X151142452Y-86742455D01*
X151056206Y-86857664D01*
X151056202Y-86857671D01*
X151005908Y-86992517D01*
X150999501Y-87052116D01*
X150999501Y-87052123D01*
X150999500Y-87052135D01*
X116473684Y-87052135D01*
X116490500Y-86945962D01*
X116490500Y-86694038D01*
X116451090Y-86445215D01*
X116373241Y-86205621D01*
X116373239Y-86205618D01*
X116373239Y-86205616D01*
X116331747Y-86124184D01*
X116258870Y-85981155D01*
X116156753Y-85840602D01*
X116110798Y-85777350D01*
X116110794Y-85777345D01*
X115932654Y-85599205D01*
X115932649Y-85599201D01*
X115728848Y-85451132D01*
X115728847Y-85451131D01*
X115728845Y-85451130D01*
X115658747Y-85415413D01*
X115504383Y-85336760D01*
X115264785Y-85258910D01*
X115015962Y-85219500D01*
X114764038Y-85219500D01*
X114639626Y-85239205D01*
X114515214Y-85258910D01*
X114275616Y-85336760D01*
X114051151Y-85451132D01*
X113847350Y-85599201D01*
X113847345Y-85599205D01*
X113669205Y-85777345D01*
X113669201Y-85777350D01*
X113521132Y-85981151D01*
X113406760Y-86205616D01*
X113328910Y-86445214D01*
X113303458Y-86605909D01*
X113289500Y-86694038D01*
X113289500Y-86945962D01*
X113296874Y-86992517D01*
X113328910Y-87194785D01*
X113406760Y-87434383D01*
X113521132Y-87658848D01*
X113669201Y-87862649D01*
X113669205Y-87862654D01*
X113669207Y-87862656D01*
X113847344Y-88040793D01*
X113847345Y-88040794D01*
X113847344Y-88040794D01*
X113853661Y-88045383D01*
X113896327Y-88100714D01*
X113902305Y-88170327D01*
X113869699Y-88232122D01*
X113808860Y-88266479D01*
X113761378Y-88268174D01*
X113706611Y-88259500D01*
X113533389Y-88259500D01*
X113493728Y-88265781D01*
X113362302Y-88286597D01*
X113197552Y-88340128D01*
X113043211Y-88418768D01*
X112979323Y-88465186D01*
X112903072Y-88520586D01*
X112903070Y-88520588D01*
X112903069Y-88520588D01*
X112780588Y-88643069D01*
X112780588Y-88643070D01*
X112780586Y-88643072D01*
X112752781Y-88681342D01*
X112678768Y-88783211D01*
X112600128Y-88937552D01*
X112546597Y-89102302D01*
X112519500Y-89273388D01*
X110500500Y-89273388D01*
X110500500Y-84154071D01*
X119640000Y-84154071D01*
X119640000Y-84405928D01*
X119679397Y-84654669D01*
X119757219Y-84894184D01*
X119871557Y-85118583D01*
X119945748Y-85220697D01*
X119945748Y-85220698D01*
X120562421Y-84604024D01*
X120575359Y-84635258D01*
X120657437Y-84758097D01*
X120761903Y-84862563D01*
X120884742Y-84944641D01*
X120915974Y-84957577D01*
X120299300Y-85574250D01*
X120401416Y-85648442D01*
X120625815Y-85762780D01*
X120865330Y-85840602D01*
X121114072Y-85880000D01*
X121365928Y-85880000D01*
X121614669Y-85840602D01*
X121854184Y-85762780D01*
X122078575Y-85648446D01*
X122078581Y-85648442D01*
X122180697Y-85574250D01*
X122180698Y-85574250D01*
X121564025Y-84957578D01*
X121595258Y-84944641D01*
X121718097Y-84862563D01*
X121822563Y-84758097D01*
X121904641Y-84635258D01*
X121917577Y-84604025D01*
X122534250Y-85220698D01*
X122534250Y-85220697D01*
X122608442Y-85118581D01*
X122608446Y-85118575D01*
X122722780Y-84894184D01*
X122800602Y-84654669D01*
X122840000Y-84405928D01*
X122840000Y-84154071D01*
X122800602Y-83905330D01*
X122745950Y-83737124D01*
X122734581Y-83702135D01*
X157999500Y-83702135D01*
X157999500Y-86297870D01*
X157999501Y-86297876D01*
X158005908Y-86357483D01*
X158056202Y-86492328D01*
X158056206Y-86492335D01*
X158142452Y-86607544D01*
X158142455Y-86607547D01*
X158257664Y-86693793D01*
X158257671Y-86693797D01*
X158392517Y-86744091D01*
X158392516Y-86744091D01*
X158399444Y-86744835D01*
X158452127Y-86750500D01*
X161547872Y-86750499D01*
X161607483Y-86744091D01*
X161742331Y-86693796D01*
X161857546Y-86607546D01*
X161943796Y-86492331D01*
X161994091Y-86357483D01*
X162000500Y-86297873D01*
X162000499Y-83702128D01*
X161994091Y-83642517D01*
X161943796Y-83507669D01*
X161943795Y-83507668D01*
X161943793Y-83507664D01*
X161857547Y-83392455D01*
X161857544Y-83392452D01*
X161742335Y-83306206D01*
X161742328Y-83306202D01*
X161607482Y-83255908D01*
X161607483Y-83255908D01*
X161547883Y-83249501D01*
X161547881Y-83249500D01*
X161547873Y-83249500D01*
X161547864Y-83249500D01*
X158452129Y-83249500D01*
X158452123Y-83249501D01*
X158392516Y-83255908D01*
X158257671Y-83306202D01*
X158257664Y-83306206D01*
X158142455Y-83392452D01*
X158142452Y-83392455D01*
X158056206Y-83507664D01*
X158056202Y-83507671D01*
X158005908Y-83642517D01*
X158000004Y-83697437D01*
X157999501Y-83702123D01*
X157999500Y-83702135D01*
X122734581Y-83702135D01*
X122722780Y-83665815D01*
X122608442Y-83441416D01*
X122534250Y-83339301D01*
X122534250Y-83339300D01*
X121917577Y-83955973D01*
X121904641Y-83924742D01*
X121822563Y-83801903D01*
X121718097Y-83697437D01*
X121595258Y-83615359D01*
X121564024Y-83602421D01*
X122180698Y-82985748D01*
X122078583Y-82911557D01*
X121854184Y-82797219D01*
X121614669Y-82719397D01*
X121365928Y-82680000D01*
X121114072Y-82680000D01*
X120865330Y-82719397D01*
X120625815Y-82797219D01*
X120401413Y-82911559D01*
X120299301Y-82985747D01*
X120299300Y-82985748D01*
X120915974Y-83602421D01*
X120884742Y-83615359D01*
X120761903Y-83697437D01*
X120657437Y-83801903D01*
X120575359Y-83924742D01*
X120562421Y-83955974D01*
X119945748Y-83339300D01*
X119945747Y-83339301D01*
X119871559Y-83441413D01*
X119757219Y-83665815D01*
X119679397Y-83905330D01*
X119640000Y-84154071D01*
X110500500Y-84154071D01*
X110500500Y-74183389D01*
X112519500Y-74183389D01*
X112519500Y-74356611D01*
X112546598Y-74527701D01*
X112600127Y-74692445D01*
X112678768Y-74846788D01*
X112780586Y-74986928D01*
X112903072Y-75109414D01*
X113043212Y-75211232D01*
X113197555Y-75289873D01*
X113362299Y-75343402D01*
X113533389Y-75370500D01*
X113533390Y-75370500D01*
X113706610Y-75370500D01*
X113706611Y-75370500D01*
X113877701Y-75343402D01*
X114042445Y-75289873D01*
X114196788Y-75211232D01*
X114336928Y-75109414D01*
X114459414Y-74986928D01*
X114561232Y-74846788D01*
X114639873Y-74692445D01*
X114693402Y-74527701D01*
X114720500Y-74356611D01*
X114720500Y-74183389D01*
X114710854Y-74122486D01*
X116449500Y-74122486D01*
X116449500Y-74417513D01*
X116476846Y-74625215D01*
X116488007Y-74709993D01*
X116562212Y-74986930D01*
X116564361Y-74994951D01*
X116564364Y-74994961D01*
X116677254Y-75267500D01*
X116677258Y-75267510D01*
X116824761Y-75522993D01*
X117004352Y-75757040D01*
X117004358Y-75757047D01*
X117212952Y-75965641D01*
X117212959Y-75965647D01*
X117447006Y-76145238D01*
X117702489Y-76292741D01*
X117702490Y-76292741D01*
X117702493Y-76292743D01*
X117975048Y-76405639D01*
X118260007Y-76481993D01*
X118552494Y-76520500D01*
X118552501Y-76520500D01*
X118847499Y-76520500D01*
X118847506Y-76520500D01*
X119139993Y-76481993D01*
X119424952Y-76405639D01*
X119697507Y-76292743D01*
X119952994Y-76145238D01*
X120187042Y-75965646D01*
X120395646Y-75757042D01*
X120575238Y-75522994D01*
X120722743Y-75267507D01*
X120835639Y-74994952D01*
X120911993Y-74709993D01*
X120950500Y-74417506D01*
X120950500Y-74183389D01*
X122679500Y-74183389D01*
X122679500Y-74356611D01*
X122706598Y-74527701D01*
X122760127Y-74692445D01*
X122838768Y-74846788D01*
X122940586Y-74986928D01*
X123063072Y-75109414D01*
X123203212Y-75211232D01*
X123357555Y-75289873D01*
X123522299Y-75343402D01*
X123693389Y-75370500D01*
X123693390Y-75370500D01*
X123866610Y-75370500D01*
X123866611Y-75370500D01*
X124037701Y-75343402D01*
X124202445Y-75289873D01*
X124356788Y-75211232D01*
X124496928Y-75109414D01*
X124619414Y-74986928D01*
X124721232Y-74846788D01*
X124799873Y-74692445D01*
X124853402Y-74527701D01*
X124880500Y-74356611D01*
X124880500Y-74183389D01*
X124867290Y-74099982D01*
X128239500Y-74099982D01*
X128239500Y-75900017D01*
X128250000Y-76002796D01*
X128297201Y-76145238D01*
X128305186Y-76169335D01*
X128397288Y-76318656D01*
X128521344Y-76442712D01*
X128670665Y-76534814D01*
X128837202Y-76589999D01*
X128939990Y-76600500D01*
X128939995Y-76600500D01*
X130740005Y-76600500D01*
X130740010Y-76600500D01*
X130842798Y-76589999D01*
X131009335Y-76534814D01*
X131158656Y-76442712D01*
X131282712Y-76318656D01*
X131374814Y-76169335D01*
X131429999Y-76002798D01*
X131440500Y-75900010D01*
X131440500Y-74874038D01*
X138399500Y-74874038D01*
X138399500Y-75125961D01*
X138438910Y-75374785D01*
X138516760Y-75614383D01*
X138631132Y-75838848D01*
X138779201Y-76042649D01*
X138779205Y-76042654D01*
X138957345Y-76220794D01*
X138957350Y-76220798D01*
X139135117Y-76349952D01*
X139161155Y-76368870D01*
X139304184Y-76441747D01*
X139385616Y-76483239D01*
X139385618Y-76483239D01*
X139385621Y-76483241D01*
X139625215Y-76561090D01*
X139874038Y-76600500D01*
X139874039Y-76600500D01*
X140125961Y-76600500D01*
X140125962Y-76600500D01*
X140374785Y-76561090D01*
X140614379Y-76483241D01*
X140838845Y-76368870D01*
X141042656Y-76220793D01*
X141220793Y-76042656D01*
X141368870Y-75838845D01*
X141483241Y-75614379D01*
X141561090Y-75374785D01*
X141600500Y-75125962D01*
X141600500Y-74874038D01*
X141561090Y-74625215D01*
X141483241Y-74385621D01*
X141483239Y-74385618D01*
X141483239Y-74385616D01*
X141380201Y-74183394D01*
X141368870Y-74161155D01*
X141260723Y-74012303D01*
X141220798Y-73957350D01*
X141220794Y-73957345D01*
X141042654Y-73779205D01*
X141042649Y-73779201D01*
X140838848Y-73631132D01*
X140838847Y-73631131D01*
X140838845Y-73631130D01*
X140768747Y-73595413D01*
X140614383Y-73516760D01*
X140374785Y-73438910D01*
X140322230Y-73430586D01*
X140125962Y-73399500D01*
X139874038Y-73399500D01*
X139807738Y-73410001D01*
X139625214Y-73438910D01*
X139385616Y-73516760D01*
X139161151Y-73631132D01*
X138957350Y-73779201D01*
X138957345Y-73779205D01*
X138779205Y-73957345D01*
X138779201Y-73957350D01*
X138631132Y-74161151D01*
X138516760Y-74385616D01*
X138438910Y-74625214D01*
X138399500Y-74874038D01*
X131440500Y-74874038D01*
X131440500Y-74099990D01*
X131429999Y-73997202D01*
X131374814Y-73830665D01*
X131282712Y-73681344D01*
X131158656Y-73557288D01*
X131009335Y-73465186D01*
X130842798Y-73410001D01*
X130842796Y-73410000D01*
X130740017Y-73399500D01*
X130740010Y-73399500D01*
X128939990Y-73399500D01*
X128939982Y-73399500D01*
X128837203Y-73410000D01*
X128837202Y-73410001D01*
X128775081Y-73430586D01*
X128670667Y-73465185D01*
X128670662Y-73465187D01*
X128521342Y-73557289D01*
X128397289Y-73681342D01*
X128305187Y-73830662D01*
X128305186Y-73830665D01*
X128250001Y-73997202D01*
X128250001Y-73997203D01*
X128250000Y-73997203D01*
X128239500Y-74099982D01*
X124867290Y-74099982D01*
X124853402Y-74012299D01*
X124799873Y-73847555D01*
X124721232Y-73693212D01*
X124619414Y-73553072D01*
X124496928Y-73430586D01*
X124356788Y-73328768D01*
X124202445Y-73250127D01*
X124037701Y-73196598D01*
X124037699Y-73196597D01*
X124037698Y-73196597D01*
X123906271Y-73175781D01*
X123866611Y-73169500D01*
X123693389Y-73169500D01*
X123653728Y-73175781D01*
X123522302Y-73196597D01*
X123357552Y-73250128D01*
X123203211Y-73328768D01*
X123146289Y-73370125D01*
X123063072Y-73430586D01*
X123063070Y-73430588D01*
X123063069Y-73430588D01*
X122940588Y-73553069D01*
X122940588Y-73553070D01*
X122940586Y-73553072D01*
X122896859Y-73613256D01*
X122838768Y-73693211D01*
X122760128Y-73847552D01*
X122706597Y-74012302D01*
X122679500Y-74183389D01*
X120950500Y-74183389D01*
X120950500Y-74122494D01*
X120911993Y-73830007D01*
X120835639Y-73545048D01*
X120722743Y-73272493D01*
X120667309Y-73176479D01*
X120575238Y-73017006D01*
X120395647Y-72782959D01*
X120395641Y-72782952D01*
X120187047Y-72574358D01*
X120187040Y-72574352D01*
X119952993Y-72394761D01*
X119697510Y-72247258D01*
X119697500Y-72247254D01*
X119424961Y-72134364D01*
X119424954Y-72134362D01*
X119424952Y-72134361D01*
X119139993Y-72058007D01*
X119091113Y-72051571D01*
X118847513Y-72019500D01*
X118847506Y-72019500D01*
X118552494Y-72019500D01*
X118552486Y-72019500D01*
X118274085Y-72056153D01*
X118260007Y-72058007D01*
X118085428Y-72104785D01*
X117975048Y-72134361D01*
X117975038Y-72134364D01*
X117702499Y-72247254D01*
X117702489Y-72247258D01*
X117447006Y-72394761D01*
X117212959Y-72574352D01*
X117212952Y-72574358D01*
X117004358Y-72782952D01*
X117004352Y-72782959D01*
X116824761Y-73017006D01*
X116677258Y-73272489D01*
X116677254Y-73272499D01*
X116564364Y-73545038D01*
X116564361Y-73545048D01*
X116488008Y-73830004D01*
X116488006Y-73830015D01*
X116449500Y-74122486D01*
X114710854Y-74122486D01*
X114693402Y-74012299D01*
X114639873Y-73847555D01*
X114561232Y-73693212D01*
X114459414Y-73553072D01*
X114407482Y-73501140D01*
X114373997Y-73439817D01*
X114378981Y-73370125D01*
X114420853Y-73314192D01*
X114486317Y-73289775D01*
X114514561Y-73290986D01*
X114515212Y-73291089D01*
X114515215Y-73291090D01*
X114764038Y-73330500D01*
X114764039Y-73330500D01*
X115015961Y-73330500D01*
X115015962Y-73330500D01*
X115264785Y-73291090D01*
X115504379Y-73213241D01*
X115728845Y-73098870D01*
X115932656Y-72950793D01*
X116110793Y-72772656D01*
X116258870Y-72568845D01*
X116373241Y-72344379D01*
X116451090Y-72104785D01*
X116490500Y-71855962D01*
X116490500Y-71604038D01*
X116451090Y-71355215D01*
X116373241Y-71115621D01*
X116373239Y-71115618D01*
X116373239Y-71115616D01*
X116331747Y-71034184D01*
X116258870Y-70891155D01*
X116156753Y-70750602D01*
X116110798Y-70687350D01*
X116110794Y-70687345D01*
X115932654Y-70509205D01*
X115932649Y-70509201D01*
X115728848Y-70361132D01*
X115728847Y-70361131D01*
X115728845Y-70361130D01*
X115658747Y-70325413D01*
X115504383Y-70246760D01*
X115264785Y-70168910D01*
X115015962Y-70129500D01*
X114764038Y-70129500D01*
X114639626Y-70149205D01*
X114515214Y-70168910D01*
X114275616Y-70246760D01*
X114051151Y-70361132D01*
X113847350Y-70509201D01*
X113847345Y-70509205D01*
X113669205Y-70687345D01*
X113669201Y-70687350D01*
X113521132Y-70891151D01*
X113406760Y-71115616D01*
X113328910Y-71355214D01*
X113289500Y-71604038D01*
X113289500Y-71855961D01*
X113328910Y-72104785D01*
X113406760Y-72344383D01*
X113521132Y-72568848D01*
X113669201Y-72772649D01*
X113669205Y-72772654D01*
X113669207Y-72772656D01*
X113847344Y-72950793D01*
X113847345Y-72950794D01*
X113847344Y-72950794D01*
X113853661Y-72955383D01*
X113896327Y-73010714D01*
X113902305Y-73080327D01*
X113869699Y-73142122D01*
X113808860Y-73176479D01*
X113761378Y-73178174D01*
X113706611Y-73169500D01*
X113533389Y-73169500D01*
X113493728Y-73175781D01*
X113362302Y-73196597D01*
X113197552Y-73250128D01*
X113043211Y-73328768D01*
X112986289Y-73370125D01*
X112903072Y-73430586D01*
X112903070Y-73430588D01*
X112903069Y-73430588D01*
X112780588Y-73553069D01*
X112780588Y-73553070D01*
X112780586Y-73553072D01*
X112736859Y-73613256D01*
X112678768Y-73693211D01*
X112600128Y-73847552D01*
X112546597Y-74012302D01*
X112519500Y-74183389D01*
X110500500Y-74183389D01*
X110500500Y-69064071D01*
X119640000Y-69064071D01*
X119640000Y-69315928D01*
X119679397Y-69564669D01*
X119757219Y-69804184D01*
X119871557Y-70028583D01*
X119945748Y-70130697D01*
X119945748Y-70130698D01*
X120562421Y-69514024D01*
X120575359Y-69545258D01*
X120657437Y-69668097D01*
X120761903Y-69772563D01*
X120884742Y-69854641D01*
X120915974Y-69867577D01*
X120299300Y-70484250D01*
X120401416Y-70558442D01*
X120625815Y-70672780D01*
X120865330Y-70750602D01*
X121114072Y-70790000D01*
X121365928Y-70790000D01*
X121614669Y-70750602D01*
X121854184Y-70672780D01*
X122078575Y-70558446D01*
X122078581Y-70558442D01*
X122180697Y-70484250D01*
X122180698Y-70484250D01*
X121564025Y-69867578D01*
X121595258Y-69854641D01*
X121718097Y-69772563D01*
X121822563Y-69668097D01*
X121904641Y-69545258D01*
X121917577Y-69514025D01*
X122534250Y-70130698D01*
X122534250Y-70130697D01*
X122608442Y-70028581D01*
X122608446Y-70028575D01*
X122722780Y-69804184D01*
X122800602Y-69564669D01*
X122840000Y-69315928D01*
X122840000Y-69064071D01*
X122800602Y-68815330D01*
X122722780Y-68575815D01*
X122608442Y-68351416D01*
X122534250Y-68249301D01*
X122534250Y-68249300D01*
X121917577Y-68865973D01*
X121904641Y-68834742D01*
X121822563Y-68711903D01*
X121718097Y-68607437D01*
X121595258Y-68525359D01*
X121564024Y-68512421D01*
X122180698Y-67895748D01*
X122078583Y-67821557D01*
X121854184Y-67707219D01*
X121614669Y-67629397D01*
X121365928Y-67590000D01*
X121114072Y-67590000D01*
X120865330Y-67629397D01*
X120625815Y-67707219D01*
X120401413Y-67821559D01*
X120299301Y-67895747D01*
X120299300Y-67895748D01*
X120915974Y-68512421D01*
X120884742Y-68525359D01*
X120761903Y-68607437D01*
X120657437Y-68711903D01*
X120575359Y-68834742D01*
X120562421Y-68865974D01*
X119945748Y-68249300D01*
X119945747Y-68249301D01*
X119871559Y-68351413D01*
X119757219Y-68575815D01*
X119679397Y-68815330D01*
X119640000Y-69064071D01*
X110500500Y-69064071D01*
X110500500Y-57453389D01*
X112629500Y-57453389D01*
X112629500Y-57626611D01*
X112656598Y-57797701D01*
X112710127Y-57962445D01*
X112788768Y-58116788D01*
X112890586Y-58256928D01*
X113013072Y-58379414D01*
X113153212Y-58481232D01*
X113307555Y-58559873D01*
X113472299Y-58613402D01*
X113643389Y-58640500D01*
X113643390Y-58640500D01*
X113816610Y-58640500D01*
X113816611Y-58640500D01*
X113987701Y-58613402D01*
X114152445Y-58559873D01*
X114306788Y-58481232D01*
X114446928Y-58379414D01*
X114569414Y-58256928D01*
X114671232Y-58116788D01*
X114749873Y-57962445D01*
X114803402Y-57797701D01*
X114830500Y-57626611D01*
X114830500Y-57453389D01*
X114820854Y-57392486D01*
X116559500Y-57392486D01*
X116559500Y-57687513D01*
X116578756Y-57833768D01*
X116598007Y-57979993D01*
X116672212Y-58256930D01*
X116674361Y-58264951D01*
X116674364Y-58264961D01*
X116787254Y-58537500D01*
X116787258Y-58537510D01*
X116934761Y-58792993D01*
X117114352Y-59027040D01*
X117114358Y-59027047D01*
X117322952Y-59235641D01*
X117322959Y-59235647D01*
X117557006Y-59415238D01*
X117812489Y-59562741D01*
X117812490Y-59562741D01*
X117812493Y-59562743D01*
X118085048Y-59675639D01*
X118370007Y-59751993D01*
X118662494Y-59790500D01*
X118662501Y-59790500D01*
X118957499Y-59790500D01*
X118957506Y-59790500D01*
X119249993Y-59751993D01*
X119534952Y-59675639D01*
X119807507Y-59562743D01*
X120062994Y-59415238D01*
X120297042Y-59235646D01*
X120432706Y-59099982D01*
X128239500Y-59099982D01*
X128239500Y-60900017D01*
X128250000Y-61002796D01*
X128300116Y-61154036D01*
X128305186Y-61169335D01*
X128397288Y-61318656D01*
X128521344Y-61442712D01*
X128670665Y-61534814D01*
X128837202Y-61589999D01*
X128939990Y-61600500D01*
X128939995Y-61600500D01*
X130740005Y-61600500D01*
X130740010Y-61600500D01*
X130842798Y-61589999D01*
X131009335Y-61534814D01*
X131158656Y-61442712D01*
X131282712Y-61318656D01*
X131374814Y-61169335D01*
X131429999Y-61002798D01*
X131440500Y-60900010D01*
X131440500Y-59874038D01*
X138399500Y-59874038D01*
X138399500Y-60125961D01*
X138438910Y-60374785D01*
X138516760Y-60614383D01*
X138631132Y-60838848D01*
X138779201Y-61042649D01*
X138779205Y-61042654D01*
X138957345Y-61220794D01*
X138957350Y-61220798D01*
X139125588Y-61343029D01*
X139161155Y-61368870D01*
X139304184Y-61441747D01*
X139385616Y-61483239D01*
X139385618Y-61483239D01*
X139385621Y-61483241D01*
X139625215Y-61561090D01*
X139874038Y-61600500D01*
X139874039Y-61600500D01*
X140125961Y-61600500D01*
X140125962Y-61600500D01*
X140374785Y-61561090D01*
X140614379Y-61483241D01*
X140838845Y-61368870D01*
X141042656Y-61220793D01*
X141220793Y-61042656D01*
X141368870Y-60838845D01*
X141483241Y-60614379D01*
X141561090Y-60374785D01*
X141600500Y-60125962D01*
X141600500Y-59874038D01*
X141561090Y-59625215D01*
X141483241Y-59385621D01*
X141483239Y-59385618D01*
X141483239Y-59385616D01*
X141430128Y-59281381D01*
X141368870Y-59161155D01*
X141271435Y-59027047D01*
X141220798Y-58957350D01*
X141220794Y-58957345D01*
X141042654Y-58779205D01*
X141042649Y-58779201D01*
X140838848Y-58631132D01*
X140838847Y-58631131D01*
X140838845Y-58631130D01*
X140768747Y-58595413D01*
X140614383Y-58516760D01*
X140374785Y-58438910D01*
X140125962Y-58399500D01*
X139874038Y-58399500D01*
X139749626Y-58419205D01*
X139625214Y-58438910D01*
X139385616Y-58516760D01*
X139161151Y-58631132D01*
X138957350Y-58779201D01*
X138957345Y-58779205D01*
X138779205Y-58957345D01*
X138779201Y-58957350D01*
X138631132Y-59161151D01*
X138516760Y-59385616D01*
X138438910Y-59625214D01*
X138399500Y-59874038D01*
X131440500Y-59874038D01*
X131440500Y-59099990D01*
X131429999Y-58997202D01*
X131374814Y-58830665D01*
X131282712Y-58681344D01*
X131158656Y-58557288D01*
X131009335Y-58465186D01*
X130842798Y-58410001D01*
X130842796Y-58410000D01*
X130740017Y-58399500D01*
X130740010Y-58399500D01*
X128939990Y-58399500D01*
X128939982Y-58399500D01*
X128837203Y-58410000D01*
X128837202Y-58410001D01*
X128754669Y-58437349D01*
X128670667Y-58465185D01*
X128670662Y-58465187D01*
X128521342Y-58557289D01*
X128397289Y-58681342D01*
X128305187Y-58830662D01*
X128305186Y-58830665D01*
X128250001Y-58997202D01*
X128250001Y-58997203D01*
X128250000Y-58997203D01*
X128239500Y-59099982D01*
X120432706Y-59099982D01*
X120505646Y-59027042D01*
X120685238Y-58792994D01*
X120832743Y-58537507D01*
X120945639Y-58264952D01*
X121021993Y-57979993D01*
X121060500Y-57687506D01*
X121060500Y-57453389D01*
X122789500Y-57453389D01*
X122789500Y-57626611D01*
X122816598Y-57797701D01*
X122870127Y-57962445D01*
X122948768Y-58116788D01*
X123050586Y-58256928D01*
X123173072Y-58379414D01*
X123313212Y-58481232D01*
X123467555Y-58559873D01*
X123632299Y-58613402D01*
X123803389Y-58640500D01*
X123803390Y-58640500D01*
X123976610Y-58640500D01*
X123976611Y-58640500D01*
X124147701Y-58613402D01*
X124312445Y-58559873D01*
X124466788Y-58481232D01*
X124606928Y-58379414D01*
X124729414Y-58256928D01*
X124831232Y-58116788D01*
X124909873Y-57962445D01*
X124963402Y-57797701D01*
X124990500Y-57626611D01*
X124990500Y-57453389D01*
X124963402Y-57282299D01*
X124909873Y-57117555D01*
X124831232Y-56963212D01*
X124729414Y-56823072D01*
X124606928Y-56700586D01*
X124466788Y-56598768D01*
X124312445Y-56520127D01*
X124147701Y-56466598D01*
X124147699Y-56466597D01*
X124147698Y-56466597D01*
X124016271Y-56445781D01*
X123976611Y-56439500D01*
X123803389Y-56439500D01*
X123763728Y-56445781D01*
X123632302Y-56466597D01*
X123467552Y-56520128D01*
X123313211Y-56598768D01*
X123256289Y-56640125D01*
X123173072Y-56700586D01*
X123173070Y-56700588D01*
X123173069Y-56700588D01*
X123050588Y-56823069D01*
X123050588Y-56823070D01*
X123050586Y-56823072D01*
X123006859Y-56883256D01*
X122948768Y-56963211D01*
X122870128Y-57117552D01*
X122816597Y-57282302D01*
X122789500Y-57453389D01*
X121060500Y-57453389D01*
X121060500Y-57392494D01*
X121021993Y-57100007D01*
X120945639Y-56815048D01*
X120832743Y-56542493D01*
X120777309Y-56446479D01*
X120685238Y-56287006D01*
X120505647Y-56052959D01*
X120505641Y-56052952D01*
X120297047Y-55844358D01*
X120297040Y-55844352D01*
X120062993Y-55664761D01*
X119807510Y-55517258D01*
X119807500Y-55517254D01*
X119534961Y-55404364D01*
X119534954Y-55404362D01*
X119534952Y-55404361D01*
X119249993Y-55328007D01*
X119201113Y-55321571D01*
X118957513Y-55289500D01*
X118957506Y-55289500D01*
X118662494Y-55289500D01*
X118662486Y-55289500D01*
X118384085Y-55326153D01*
X118370007Y-55328007D01*
X118195428Y-55374785D01*
X118085048Y-55404361D01*
X118085038Y-55404364D01*
X117812499Y-55517254D01*
X117812489Y-55517258D01*
X117557006Y-55664761D01*
X117322959Y-55844352D01*
X117322952Y-55844358D01*
X117114358Y-56052952D01*
X117114352Y-56052959D01*
X116934761Y-56287006D01*
X116787258Y-56542489D01*
X116787254Y-56542499D01*
X116674364Y-56815038D01*
X116674361Y-56815048D01*
X116609826Y-57055900D01*
X116598008Y-57100004D01*
X116598006Y-57100015D01*
X116559500Y-57392486D01*
X114820854Y-57392486D01*
X114803402Y-57282299D01*
X114749873Y-57117555D01*
X114671232Y-56963212D01*
X114569414Y-56823072D01*
X114517482Y-56771140D01*
X114483997Y-56709817D01*
X114488981Y-56640125D01*
X114530853Y-56584192D01*
X114596317Y-56559775D01*
X114624561Y-56560986D01*
X114625212Y-56561089D01*
X114625215Y-56561090D01*
X114874038Y-56600500D01*
X114874039Y-56600500D01*
X115125961Y-56600500D01*
X115125962Y-56600500D01*
X115374785Y-56561090D01*
X115614379Y-56483241D01*
X115838845Y-56368870D01*
X116042656Y-56220793D01*
X116220793Y-56042656D01*
X116368870Y-55838845D01*
X116483241Y-55614379D01*
X116561090Y-55374785D01*
X116600500Y-55125962D01*
X116600500Y-54874038D01*
X116561090Y-54625215D01*
X116483241Y-54385621D01*
X116483239Y-54385618D01*
X116483239Y-54385616D01*
X116441747Y-54304184D01*
X116368870Y-54161155D01*
X116266753Y-54020602D01*
X116220798Y-53957350D01*
X116220794Y-53957345D01*
X116042654Y-53779205D01*
X116042649Y-53779201D01*
X115838848Y-53631132D01*
X115838847Y-53631131D01*
X115838845Y-53631130D01*
X115768747Y-53595413D01*
X115614383Y-53516760D01*
X115374785Y-53438910D01*
X115125962Y-53399500D01*
X114874038Y-53399500D01*
X114749626Y-53419205D01*
X114625214Y-53438910D01*
X114385616Y-53516760D01*
X114161151Y-53631132D01*
X113957350Y-53779201D01*
X113957345Y-53779205D01*
X113779205Y-53957345D01*
X113779201Y-53957350D01*
X113631132Y-54161151D01*
X113516760Y-54385616D01*
X113438910Y-54625214D01*
X113399500Y-54874038D01*
X113399500Y-55125961D01*
X113438910Y-55374785D01*
X113516760Y-55614383D01*
X113631132Y-55838848D01*
X113779201Y-56042649D01*
X113779205Y-56042654D01*
X113779207Y-56042656D01*
X113957344Y-56220793D01*
X113957345Y-56220794D01*
X113957344Y-56220794D01*
X113963661Y-56225383D01*
X114006327Y-56280714D01*
X114012305Y-56350327D01*
X113979699Y-56412122D01*
X113918860Y-56446479D01*
X113871378Y-56448174D01*
X113816611Y-56439500D01*
X113643389Y-56439500D01*
X113603728Y-56445781D01*
X113472302Y-56466597D01*
X113307552Y-56520128D01*
X113153211Y-56598768D01*
X113096289Y-56640125D01*
X113013072Y-56700586D01*
X113013070Y-56700588D01*
X113013069Y-56700588D01*
X112890588Y-56823069D01*
X112890588Y-56823070D01*
X112890586Y-56823072D01*
X112846859Y-56883256D01*
X112788768Y-56963211D01*
X112710128Y-57117552D01*
X112656597Y-57282302D01*
X112629500Y-57453389D01*
X110500500Y-57453389D01*
X110500500Y-52334071D01*
X119750000Y-52334071D01*
X119750000Y-52585928D01*
X119789397Y-52834669D01*
X119867219Y-53074184D01*
X119981557Y-53298583D01*
X120055748Y-53400697D01*
X120055748Y-53400698D01*
X120672421Y-52784024D01*
X120685359Y-52815258D01*
X120767437Y-52938097D01*
X120871903Y-53042563D01*
X120994742Y-53124641D01*
X121025974Y-53137577D01*
X120409300Y-53754250D01*
X120511416Y-53828442D01*
X120735815Y-53942780D01*
X120975330Y-54020602D01*
X121224072Y-54060000D01*
X121475928Y-54060000D01*
X121724669Y-54020602D01*
X121964184Y-53942780D01*
X122188575Y-53828446D01*
X122188581Y-53828442D01*
X122290697Y-53754250D01*
X122290698Y-53754250D01*
X121674025Y-53137578D01*
X121705258Y-53124641D01*
X121828097Y-53042563D01*
X121932563Y-52938097D01*
X122014641Y-52815258D01*
X122027577Y-52784025D01*
X122644250Y-53400698D01*
X122644250Y-53400697D01*
X122718442Y-53298581D01*
X122718446Y-53298575D01*
X122832780Y-53074184D01*
X122910602Y-52834669D01*
X122950000Y-52585928D01*
X122950000Y-52334071D01*
X122910602Y-52085330D01*
X122832780Y-51845815D01*
X122718442Y-51621416D01*
X122644250Y-51519301D01*
X122644250Y-51519300D01*
X122027577Y-52135973D01*
X122014641Y-52104742D01*
X121932563Y-51981903D01*
X121828097Y-51877437D01*
X121705258Y-51795359D01*
X121674024Y-51782421D01*
X122290698Y-51165748D01*
X122188583Y-51091557D01*
X121964184Y-50977219D01*
X121724669Y-50899397D01*
X121475928Y-50860000D01*
X121224072Y-50860000D01*
X120975330Y-50899397D01*
X120735815Y-50977219D01*
X120511413Y-51091559D01*
X120409301Y-51165747D01*
X120409300Y-51165748D01*
X121025974Y-51782421D01*
X120994742Y-51795359D01*
X120871903Y-51877437D01*
X120767437Y-51981903D01*
X120685359Y-52104742D01*
X120672421Y-52135974D01*
X120055748Y-51519300D01*
X120055747Y-51519301D01*
X119981559Y-51621413D01*
X119867219Y-51845815D01*
X119789397Y-52085330D01*
X119750000Y-52334071D01*
X110500500Y-52334071D01*
X110500500Y-45519039D01*
X151340700Y-45519039D01*
X151340700Y-45717760D01*
X151371787Y-45914037D01*
X151433193Y-46103029D01*
X151433194Y-46103032D01*
X151523413Y-46280094D01*
X151640219Y-46440864D01*
X151780736Y-46581381D01*
X151941506Y-46698187D01*
X152060032Y-46758579D01*
X152097980Y-46777915D01*
X152148776Y-46825890D01*
X152165571Y-46893711D01*
X152143033Y-46959846D01*
X152097980Y-46998885D01*
X151941505Y-47078613D01*
X151780733Y-47195421D01*
X151640221Y-47335933D01*
X151523413Y-47496705D01*
X151433194Y-47673767D01*
X151433193Y-47673770D01*
X151371787Y-47862762D01*
X151340700Y-48059039D01*
X151340700Y-48257760D01*
X151371787Y-48454037D01*
X151433193Y-48643029D01*
X151433194Y-48643032D01*
X151523413Y-48820094D01*
X151640219Y-48980864D01*
X151780736Y-49121381D01*
X151941506Y-49238187D01*
X152060032Y-49298579D01*
X152097980Y-49317915D01*
X152148776Y-49365890D01*
X152165571Y-49433711D01*
X152143033Y-49499846D01*
X152097980Y-49538885D01*
X151941505Y-49618613D01*
X151780733Y-49735421D01*
X151640221Y-49875933D01*
X151523413Y-50036705D01*
X151433194Y-50213767D01*
X151433193Y-50213770D01*
X151371787Y-50402762D01*
X151340700Y-50599039D01*
X151340700Y-50797760D01*
X151371787Y-50994037D01*
X151433193Y-51183029D01*
X151433194Y-51183032D01*
X151523413Y-51360094D01*
X151640219Y-51520864D01*
X151780736Y-51661381D01*
X151941506Y-51778187D01*
X151975208Y-51795359D01*
X152097980Y-51857915D01*
X152148776Y-51905890D01*
X152165571Y-51973711D01*
X152143033Y-52039846D01*
X152097980Y-52078885D01*
X151941505Y-52158613D01*
X151780733Y-52275421D01*
X151640221Y-52415933D01*
X151523413Y-52576705D01*
X151433194Y-52753767D01*
X151433193Y-52753770D01*
X151371787Y-52942762D01*
X151340700Y-53139039D01*
X151340700Y-53337760D01*
X151371787Y-53534037D01*
X151433193Y-53723029D01*
X151433194Y-53723032D01*
X151486904Y-53828442D01*
X151523413Y-53900094D01*
X151640219Y-54060864D01*
X151780736Y-54201381D01*
X151941506Y-54318187D01*
X152060032Y-54378579D01*
X152097980Y-54397915D01*
X152148776Y-54445890D01*
X152165571Y-54513711D01*
X152143033Y-54579846D01*
X152097980Y-54618885D01*
X151941505Y-54698613D01*
X151780733Y-54815421D01*
X151640221Y-54955933D01*
X151523413Y-55116705D01*
X151433194Y-55293767D01*
X151433193Y-55293770D01*
X151371787Y-55482762D01*
X151340700Y-55679039D01*
X151340700Y-55877760D01*
X151371787Y-56074037D01*
X151433193Y-56263029D01*
X151433194Y-56263032D01*
X151487122Y-56368870D01*
X151523413Y-56440094D01*
X151640219Y-56600864D01*
X151780736Y-56741381D01*
X151941506Y-56858187D01*
X152060032Y-56918579D01*
X152097980Y-56937915D01*
X152148776Y-56985890D01*
X152165571Y-57053711D01*
X152143033Y-57119846D01*
X152097980Y-57158885D01*
X151941505Y-57238613D01*
X151780733Y-57355421D01*
X151640221Y-57495933D01*
X151523413Y-57656705D01*
X151433194Y-57833767D01*
X151433193Y-57833770D01*
X151371787Y-58022762D01*
X151340700Y-58219039D01*
X151340700Y-58417760D01*
X151371787Y-58614037D01*
X151433193Y-58803029D01*
X151433194Y-58803032D01*
X151511821Y-58957344D01*
X151523413Y-58980094D01*
X151640219Y-59140864D01*
X151780736Y-59281381D01*
X151941506Y-59398187D01*
X152060032Y-59458579D01*
X152097980Y-59477915D01*
X152148776Y-59525890D01*
X152165571Y-59593711D01*
X152143033Y-59659846D01*
X152097980Y-59698885D01*
X151941505Y-59778613D01*
X151780733Y-59895421D01*
X151640221Y-60035933D01*
X151523413Y-60196705D01*
X151433194Y-60373767D01*
X151433193Y-60373770D01*
X151371787Y-60562762D01*
X151340700Y-60759039D01*
X151340700Y-60957760D01*
X151371787Y-61154037D01*
X151433193Y-61343029D01*
X151433194Y-61343032D01*
X151504634Y-61483239D01*
X151523413Y-61520094D01*
X151640219Y-61680864D01*
X151780736Y-61821381D01*
X151941506Y-61938187D01*
X152028349Y-61982435D01*
X152118567Y-62028405D01*
X152118570Y-62028406D01*
X152213066Y-62059109D01*
X152307564Y-62089813D01*
X152503839Y-62120900D01*
X152503840Y-62120900D01*
X152702560Y-62120900D01*
X152702561Y-62120900D01*
X152898836Y-62089813D01*
X153087832Y-62028405D01*
X153264894Y-61938187D01*
X153425664Y-61821381D01*
X153566181Y-61680864D01*
X153682987Y-61520094D01*
X153773205Y-61343032D01*
X153834613Y-61154036D01*
X153865700Y-60957761D01*
X153865700Y-60759039D01*
X153834613Y-60562764D01*
X153803909Y-60468266D01*
X153773206Y-60373770D01*
X153773205Y-60373767D01*
X153682986Y-60196705D01*
X153566181Y-60035936D01*
X153425664Y-59895419D01*
X153264894Y-59778613D01*
X153108418Y-59698884D01*
X153057623Y-59650910D01*
X153040828Y-59583089D01*
X153063365Y-59516954D01*
X153108418Y-59477915D01*
X153264894Y-59398187D01*
X153425664Y-59281381D01*
X153566181Y-59140864D01*
X153682987Y-58980094D01*
X153773205Y-58803032D01*
X153834613Y-58614036D01*
X153865700Y-58417761D01*
X153865700Y-58219039D01*
X153834613Y-58022764D01*
X153773205Y-57833768D01*
X153773205Y-57833767D01*
X153682986Y-57656705D01*
X153566181Y-57495936D01*
X153425664Y-57355419D01*
X153264894Y-57238613D01*
X153108418Y-57158884D01*
X153057623Y-57110910D01*
X153040828Y-57043089D01*
X153063365Y-56976954D01*
X153108418Y-56937915D01*
X153264894Y-56858187D01*
X153425664Y-56741381D01*
X153566181Y-56600864D01*
X153682987Y-56440094D01*
X153773205Y-56263032D01*
X153834613Y-56074036D01*
X153865700Y-55877761D01*
X153865700Y-55679039D01*
X153834613Y-55482764D01*
X153773205Y-55293768D01*
X153773205Y-55293767D01*
X153687703Y-55125962D01*
X153682987Y-55116706D01*
X153566181Y-54955936D01*
X153425664Y-54815419D01*
X153264894Y-54698613D01*
X153108418Y-54618884D01*
X153057623Y-54570910D01*
X153040828Y-54503089D01*
X153063365Y-54436954D01*
X153108418Y-54397915D01*
X153264894Y-54318187D01*
X153425664Y-54201381D01*
X153566181Y-54060864D01*
X153682987Y-53900094D01*
X153773205Y-53723032D01*
X153834613Y-53534036D01*
X153865700Y-53337761D01*
X153865700Y-53139039D01*
X153834613Y-52942764D01*
X153773205Y-52753768D01*
X153773205Y-52753767D01*
X153727235Y-52663549D01*
X153682987Y-52576706D01*
X153566181Y-52415936D01*
X153425664Y-52275419D01*
X153264894Y-52158613D01*
X153108418Y-52078884D01*
X153057623Y-52030910D01*
X153040828Y-51963089D01*
X153063365Y-51896954D01*
X153108418Y-51857915D01*
X153264894Y-51778187D01*
X153425664Y-51661381D01*
X153566181Y-51520864D01*
X153682987Y-51360094D01*
X153773205Y-51183032D01*
X153834613Y-50994036D01*
X153865700Y-50797761D01*
X153865700Y-50599039D01*
X153834613Y-50402764D01*
X153773205Y-50213768D01*
X153773205Y-50213767D01*
X153682986Y-50036705D01*
X153566181Y-49875936D01*
X153425664Y-49735419D01*
X153264894Y-49618613D01*
X153108418Y-49538884D01*
X153057623Y-49490910D01*
X153040828Y-49423089D01*
X153063365Y-49356954D01*
X153108418Y-49317915D01*
X153264894Y-49238187D01*
X153425664Y-49121381D01*
X153566181Y-48980864D01*
X153682987Y-48820094D01*
X153773205Y-48643032D01*
X153834613Y-48454036D01*
X153865700Y-48257761D01*
X153865700Y-48059039D01*
X153834613Y-47862764D01*
X153773205Y-47673768D01*
X153773205Y-47673767D01*
X153682986Y-47496705D01*
X153566181Y-47335936D01*
X153425664Y-47195419D01*
X153264894Y-47078613D01*
X153108418Y-46998884D01*
X153057623Y-46950910D01*
X153040828Y-46883089D01*
X153063365Y-46816954D01*
X153108418Y-46777915D01*
X153264894Y-46698187D01*
X153425664Y-46581381D01*
X153566181Y-46440864D01*
X153682987Y-46280094D01*
X153773205Y-46103032D01*
X153834613Y-45914036D01*
X153865700Y-45717761D01*
X153865700Y-45519039D01*
X166580700Y-45519039D01*
X166580700Y-45717760D01*
X166611787Y-45914037D01*
X166673193Y-46103029D01*
X166673194Y-46103032D01*
X166763413Y-46280094D01*
X166880219Y-46440864D01*
X167020736Y-46581381D01*
X167181506Y-46698187D01*
X167300032Y-46758579D01*
X167337980Y-46777915D01*
X167388776Y-46825890D01*
X167405571Y-46893711D01*
X167383033Y-46959846D01*
X167337980Y-46998885D01*
X167181505Y-47078613D01*
X167020733Y-47195421D01*
X166880221Y-47335933D01*
X166763413Y-47496705D01*
X166673194Y-47673767D01*
X166673193Y-47673770D01*
X166611787Y-47862762D01*
X166580700Y-48059039D01*
X166580700Y-48257760D01*
X166611787Y-48454037D01*
X166673193Y-48643029D01*
X166673194Y-48643032D01*
X166763413Y-48820094D01*
X166880219Y-48980864D01*
X167020736Y-49121381D01*
X167181506Y-49238187D01*
X167300032Y-49298579D01*
X167337980Y-49317915D01*
X167388776Y-49365890D01*
X167405571Y-49433711D01*
X167383033Y-49499846D01*
X167337980Y-49538885D01*
X167181505Y-49618613D01*
X167020733Y-49735421D01*
X166880221Y-49875933D01*
X166763413Y-50036705D01*
X166673194Y-50213767D01*
X166673193Y-50213770D01*
X166611787Y-50402762D01*
X166580700Y-50599039D01*
X166580700Y-50797760D01*
X166611787Y-50994037D01*
X166673193Y-51183029D01*
X166673194Y-51183032D01*
X166763413Y-51360094D01*
X166880219Y-51520864D01*
X167020736Y-51661381D01*
X167181506Y-51778187D01*
X167215208Y-51795359D01*
X167337980Y-51857915D01*
X167388776Y-51905890D01*
X167405571Y-51973711D01*
X167383033Y-52039846D01*
X167337980Y-52078885D01*
X167181505Y-52158613D01*
X167020733Y-52275421D01*
X166880221Y-52415933D01*
X166763413Y-52576705D01*
X166673194Y-52753767D01*
X166673193Y-52753770D01*
X166611787Y-52942762D01*
X166580700Y-53139039D01*
X166580700Y-53337760D01*
X166611787Y-53534037D01*
X166673193Y-53723029D01*
X166673194Y-53723032D01*
X166726904Y-53828442D01*
X166763413Y-53900094D01*
X166880219Y-54060864D01*
X167020736Y-54201381D01*
X167181506Y-54318187D01*
X167300032Y-54378579D01*
X167337980Y-54397915D01*
X167388776Y-54445890D01*
X167405571Y-54513711D01*
X167383033Y-54579846D01*
X167337980Y-54618885D01*
X167181505Y-54698613D01*
X167020733Y-54815421D01*
X166880221Y-54955933D01*
X166763413Y-55116705D01*
X166673194Y-55293767D01*
X166673193Y-55293770D01*
X166611787Y-55482762D01*
X166580700Y-55679039D01*
X166580700Y-55877760D01*
X166611787Y-56074037D01*
X166673193Y-56263029D01*
X166673194Y-56263032D01*
X166727122Y-56368870D01*
X166763413Y-56440094D01*
X166880219Y-56600864D01*
X167020736Y-56741381D01*
X167181506Y-56858187D01*
X167300032Y-56918579D01*
X167337980Y-56937915D01*
X167388776Y-56985890D01*
X167405571Y-57053711D01*
X167383033Y-57119846D01*
X167337980Y-57158885D01*
X167181505Y-57238613D01*
X167020733Y-57355421D01*
X166880221Y-57495933D01*
X166763413Y-57656705D01*
X166673194Y-57833767D01*
X166673193Y-57833770D01*
X166611787Y-58022762D01*
X166580700Y-58219039D01*
X166580700Y-58417760D01*
X166611787Y-58614037D01*
X166673193Y-58803029D01*
X166673194Y-58803032D01*
X166751821Y-58957344D01*
X166763413Y-58980094D01*
X166880219Y-59140864D01*
X167020736Y-59281381D01*
X167181506Y-59398187D01*
X167300032Y-59458579D01*
X167337980Y-59477915D01*
X167388776Y-59525890D01*
X167405571Y-59593711D01*
X167383033Y-59659846D01*
X167337980Y-59698885D01*
X167181505Y-59778613D01*
X167020733Y-59895421D01*
X166880221Y-60035933D01*
X166763413Y-60196705D01*
X166673194Y-60373767D01*
X166673193Y-60373770D01*
X166611787Y-60562762D01*
X166580700Y-60759039D01*
X166580700Y-60957760D01*
X166611787Y-61154037D01*
X166673193Y-61343029D01*
X166673194Y-61343032D01*
X166744634Y-61483239D01*
X166763413Y-61520094D01*
X166880219Y-61680864D01*
X167020736Y-61821381D01*
X167181506Y-61938187D01*
X167268349Y-61982435D01*
X167358567Y-62028405D01*
X167358570Y-62028406D01*
X167453066Y-62059109D01*
X167547564Y-62089813D01*
X167743839Y-62120900D01*
X167743840Y-62120900D01*
X167942560Y-62120900D01*
X167942561Y-62120900D01*
X168138836Y-62089813D01*
X168327832Y-62028405D01*
X168504894Y-61938187D01*
X168665664Y-61821381D01*
X168806181Y-61680864D01*
X168922987Y-61520094D01*
X169013205Y-61343032D01*
X169074613Y-61154036D01*
X169105700Y-60957761D01*
X169105700Y-60759039D01*
X169074613Y-60562764D01*
X169043909Y-60468266D01*
X169013206Y-60373770D01*
X169013205Y-60373767D01*
X168922986Y-60196705D01*
X168806181Y-60035936D01*
X168665664Y-59895419D01*
X168504894Y-59778613D01*
X168348418Y-59698884D01*
X168297623Y-59650910D01*
X168280828Y-59583089D01*
X168303365Y-59516954D01*
X168348418Y-59477915D01*
X168504894Y-59398187D01*
X168665664Y-59281381D01*
X168806181Y-59140864D01*
X168922987Y-58980094D01*
X169013205Y-58803032D01*
X169074613Y-58614036D01*
X169105700Y-58417761D01*
X169105700Y-58219039D01*
X169074613Y-58022764D01*
X169013205Y-57833768D01*
X169013205Y-57833767D01*
X168922986Y-57656705D01*
X168806181Y-57495936D01*
X168665664Y-57355419D01*
X168504894Y-57238613D01*
X168348418Y-57158884D01*
X168297623Y-57110910D01*
X168280828Y-57043089D01*
X168303365Y-56976954D01*
X168348418Y-56937915D01*
X168504894Y-56858187D01*
X168665664Y-56741381D01*
X168806181Y-56600864D01*
X168922987Y-56440094D01*
X169013205Y-56263032D01*
X169074613Y-56074036D01*
X169105700Y-55877761D01*
X169105700Y-55679039D01*
X169074613Y-55482764D01*
X169013205Y-55293768D01*
X169013205Y-55293767D01*
X168927703Y-55125962D01*
X168922987Y-55116706D01*
X168806181Y-54955936D01*
X168665664Y-54815419D01*
X168504894Y-54698613D01*
X168348418Y-54618884D01*
X168297623Y-54570910D01*
X168280828Y-54503089D01*
X168303365Y-54436954D01*
X168348418Y-54397915D01*
X168504894Y-54318187D01*
X168665664Y-54201381D01*
X168806181Y-54060864D01*
X168922987Y-53900094D01*
X169013205Y-53723032D01*
X169074613Y-53534036D01*
X169105700Y-53337761D01*
X169105700Y-53139039D01*
X169074613Y-52942764D01*
X169013205Y-52753768D01*
X169013205Y-52753767D01*
X168967235Y-52663549D01*
X168922987Y-52576706D01*
X168806181Y-52415936D01*
X168665664Y-52275419D01*
X168504894Y-52158613D01*
X168348418Y-52078884D01*
X168297623Y-52030910D01*
X168280828Y-51963089D01*
X168303365Y-51896954D01*
X168348418Y-51857915D01*
X168504894Y-51778187D01*
X168665664Y-51661381D01*
X168806181Y-51520864D01*
X168922987Y-51360094D01*
X169013205Y-51183032D01*
X169074613Y-50994036D01*
X169105700Y-50797761D01*
X169105700Y-50599039D01*
X169074613Y-50402764D01*
X169013205Y-50213768D01*
X169013205Y-50213767D01*
X168922986Y-50036705D01*
X168806181Y-49875936D01*
X168665664Y-49735419D01*
X168504894Y-49618613D01*
X168348418Y-49538884D01*
X168297623Y-49490910D01*
X168280828Y-49423089D01*
X168303365Y-49356954D01*
X168348418Y-49317915D01*
X168504894Y-49238187D01*
X168665664Y-49121381D01*
X168806181Y-48980864D01*
X168922987Y-48820094D01*
X169013205Y-48643032D01*
X169074613Y-48454036D01*
X169105700Y-48257761D01*
X169105700Y-48059039D01*
X169074613Y-47862764D01*
X169013205Y-47673768D01*
X169013205Y-47673767D01*
X168922986Y-47496705D01*
X168806181Y-47335936D01*
X168665664Y-47195419D01*
X168504894Y-47078613D01*
X168348418Y-46998884D01*
X168297623Y-46950910D01*
X168280828Y-46883089D01*
X168303365Y-46816954D01*
X168348418Y-46777915D01*
X168504894Y-46698187D01*
X168665664Y-46581381D01*
X168806181Y-46440864D01*
X168922987Y-46280094D01*
X169013205Y-46103032D01*
X169074613Y-45914036D01*
X169105700Y-45717761D01*
X169105700Y-45519039D01*
X169074613Y-45322764D01*
X169013205Y-45133768D01*
X169013205Y-45133767D01*
X168922986Y-44956705D01*
X168806181Y-44795936D01*
X168665664Y-44655419D01*
X168504894Y-44538613D01*
X168327832Y-44448394D01*
X168327829Y-44448393D01*
X168138837Y-44386987D01*
X168040698Y-44371443D01*
X167942561Y-44355900D01*
X167743839Y-44355900D01*
X167678414Y-44366262D01*
X167547562Y-44386987D01*
X167358570Y-44448393D01*
X167358567Y-44448394D01*
X167181505Y-44538613D01*
X167020733Y-44655421D01*
X166880221Y-44795933D01*
X166763413Y-44956705D01*
X166673194Y-45133767D01*
X166673193Y-45133770D01*
X166611787Y-45322762D01*
X166580700Y-45519039D01*
X153865700Y-45519039D01*
X153834613Y-45322764D01*
X153773205Y-45133768D01*
X153773205Y-45133767D01*
X153682986Y-44956705D01*
X153566181Y-44795936D01*
X153425664Y-44655419D01*
X153264894Y-44538613D01*
X153087832Y-44448394D01*
X153087829Y-44448393D01*
X152898837Y-44386987D01*
X152800698Y-44371443D01*
X152702561Y-44355900D01*
X152503839Y-44355900D01*
X152438414Y-44366262D01*
X152307562Y-44386987D01*
X152118570Y-44448393D01*
X152118567Y-44448394D01*
X151941505Y-44538613D01*
X151780733Y-44655421D01*
X151640221Y-44795933D01*
X151523413Y-44956705D01*
X151433194Y-45133767D01*
X151433193Y-45133770D01*
X151371787Y-45322762D01*
X151340700Y-45519039D01*
X110500500Y-45519039D01*
X110500500Y-43448900D01*
X110520185Y-43381861D01*
X110572989Y-43336106D01*
X110624500Y-43324900D01*
X184375500Y-43324900D01*
X184442539Y-43344585D01*
G37*
G04 #@! TD.AperFunction*
M02*
