G04 #@! TF.GenerationSoftware,KiCad,Pcbnew,9.0.6*
G04 #@! TF.CreationDate,2025-12-19T00:03:07+05:30*
G04 #@! TF.ProjectId,macropad,6d616372-6f70-4616-942e-6b696361645f,rev?*
G04 #@! TF.SameCoordinates,Original*
G04 #@! TF.FileFunction,Copper,L1,Top*
G04 #@! TF.FilePolarity,Positive*
%FSLAX46Y46*%
G04 Gerber Fmt 4.6, Leading zero omitted, Abs format (unit mm)*
G04 Created by KiCad (PCBNEW 9.0.6) date 2025-12-19 00:03:07*
%MOMM*%
%LPD*%
G01*
G04 APERTURE LIST*
G04 Aperture macros list*
%AMRoundRect*
0 Rectangle with rounded corners*
0 $1 Rounding radius*
0 $2 $3 $4 $5 $6 $7 $8 $9 X,Y pos of 4 corners*
0 Add a 4 corners polygon primitive as box body*
4,1,4,$2,$3,$4,$5,$6,$7,$8,$9,$2,$3,0*
0 Add four circle primitives for the rounded corners*
1,1,$1+$1,$2,$3*
1,1,$1+$1,$4,$5*
1,1,$1+$1,$6,$7*
1,1,$1+$1,$8,$9*
0 Add four rect primitives between the rounded corners*
20,1,$1+$1,$2,$3,$4,$5,0*
20,1,$1+$1,$4,$5,$6,$7,0*
20,1,$1+$1,$6,$7,$8,$9,0*
20,1,$1+$1,$8,$9,$2,$3,0*%
G04 Aperture macros list end*
G04 #@! TA.AperFunction,ComponentPad*
%ADD10C,2.200000*%
G04 #@! TD*
G04 #@! TA.AperFunction,SMDPad,CuDef*
%ADD11RoundRect,0.152400X-1.063600X-0.609600X1.063600X-0.609600X1.063600X0.609600X-1.063600X0.609600X0*%
G04 #@! TD*
G04 #@! TA.AperFunction,ComponentPad*
%ADD12C,1.524000*%
G04 #@! TD*
G04 #@! TA.AperFunction,SMDPad,CuDef*
%ADD13RoundRect,0.152400X1.063600X0.609600X-1.063600X0.609600X-1.063600X-0.609600X1.063600X-0.609600X0*%
G04 #@! TD*
G04 #@! TA.AperFunction,ComponentPad*
%ADD14R,2.000000X2.000000*%
G04 #@! TD*
G04 #@! TA.AperFunction,ComponentPad*
%ADD15C,2.000000*%
G04 #@! TD*
G04 #@! TA.AperFunction,ComponentPad*
%ADD16R,3.000000X2.500000*%
G04 #@! TD*
G04 #@! TA.AperFunction,SMDPad,CuDef*
%ADD17R,1.600000X0.850000*%
G04 #@! TD*
G04 #@! TA.AperFunction,ComponentPad*
%ADD18RoundRect,0.249999X-0.850001X-0.850001X0.850001X-0.850001X0.850001X0.850001X-0.850001X0.850001X0*%
G04 #@! TD*
G04 #@! TA.AperFunction,Conductor*
%ADD19C,0.127000*%
G04 #@! TD*
G04 APERTURE END LIST*
D10*
X114890000Y-101910000D03*
X121240000Y-99370000D03*
D11*
X168678200Y-45618400D03*
D12*
X167843200Y-45618400D03*
D11*
X168678200Y-48158400D03*
D12*
X167843200Y-48158400D03*
D11*
X168678200Y-50698400D03*
D12*
X167843200Y-50698400D03*
D11*
X168678200Y-53238400D03*
D12*
X167843200Y-53238400D03*
D11*
X168678200Y-55778400D03*
D12*
X167843200Y-55778400D03*
D11*
X168678200Y-58318400D03*
D12*
X167843200Y-58318400D03*
D11*
X168678200Y-60858400D03*
D12*
X167843200Y-60858400D03*
X152603200Y-60858400D03*
D13*
X151768200Y-60858400D03*
D12*
X152603200Y-58318400D03*
D13*
X151768200Y-58318400D03*
D12*
X152603200Y-55778400D03*
D13*
X151768200Y-55778400D03*
D12*
X152603200Y-53238400D03*
D13*
X151768200Y-53238400D03*
D12*
X152603200Y-50698400D03*
D13*
X151768200Y-50698400D03*
D12*
X152603200Y-48158400D03*
D13*
X151768200Y-48158400D03*
D12*
X152603200Y-45618400D03*
D13*
X151768200Y-45618400D03*
D14*
X152500000Y-88100000D03*
D15*
X152500000Y-93100000D03*
X152500000Y-90600000D03*
D16*
X160000000Y-85000000D03*
X160000000Y-96200000D03*
D10*
X121240000Y-84280000D03*
X114890000Y-86820000D03*
X121240000Y-69190000D03*
X114890000Y-71730000D03*
X121350000Y-52460000D03*
X115000000Y-55000000D03*
D17*
X178250000Y-105000000D03*
X178250000Y-106750000D03*
X181750000Y-106750000D03*
X181750000Y-105000000D03*
X178250000Y-94125000D03*
X178250000Y-95875000D03*
X181750000Y-95875000D03*
X181750000Y-94125000D03*
X178250000Y-79125000D03*
X178250000Y-80875000D03*
X181750000Y-80875000D03*
X181750000Y-79125000D03*
X178250000Y-60000000D03*
X178250000Y-61750000D03*
X181750000Y-61750000D03*
X181750000Y-60000000D03*
D18*
X129840000Y-105000000D03*
D10*
X140000000Y-105000000D03*
D18*
X129840000Y-90000000D03*
D10*
X140000000Y-90000000D03*
D18*
X129840000Y-75000000D03*
D10*
X140000000Y-75000000D03*
D18*
X129840000Y-60000000D03*
D10*
X140000000Y-60000000D03*
D19*
X179528200Y-80403200D02*
X179528200Y-93653200D01*
X178250000Y-79125000D02*
X179528200Y-80403200D01*
X179528200Y-93653200D02*
X181750000Y-95875000D01*
X181559200Y-107238800D02*
X181750000Y-107048000D01*
X181750000Y-107048000D02*
X181750000Y-106750000D01*
X177258500Y-102400500D02*
X181559200Y-106701200D01*
X177258500Y-95116500D02*
X177258500Y-102400500D01*
X181559200Y-106701200D02*
X181559200Y-107238800D01*
X178250000Y-94125000D02*
X177258500Y-95116500D01*
X182741500Y-95116500D02*
X181750000Y-94125000D01*
X182741500Y-104008500D02*
X182741500Y-95116500D01*
X181750000Y-105000000D02*
X182741500Y-104008500D01*
X152993536Y-94291500D02*
X144291500Y-94291500D01*
X154066700Y-93218336D02*
X152993536Y-94291500D01*
X154066700Y-63130524D02*
X154066700Y-93218336D01*
X165545324Y-51651900D02*
X154066700Y-63130524D01*
X169888470Y-51651900D02*
X165545324Y-51651900D01*
X170085700Y-51454670D02*
X169888470Y-51651900D01*
X170085700Y-47402130D02*
X170085700Y-51454670D01*
X169888470Y-47204900D02*
X170085700Y-47402130D01*
X164653247Y-44409900D02*
X167448247Y-47204900D01*
X123403019Y-44409900D02*
X164653247Y-44409900D01*
X144291500Y-94291500D02*
X140000000Y-90000000D01*
X112565500Y-55247419D02*
X123403019Y-44409900D01*
X167448247Y-47204900D02*
X169888470Y-47204900D01*
X112565500Y-71231957D02*
X112565500Y-55247419D01*
X114890000Y-73556457D02*
X112565500Y-71231957D01*
X114890000Y-86820000D02*
X114890000Y-73556457D01*
X150557930Y-54824900D02*
X140000000Y-65382830D01*
X152998153Y-54824900D02*
X150557930Y-54824900D01*
X153811700Y-54011353D02*
X152998153Y-54824900D01*
X153811700Y-45478447D02*
X153811700Y-54011353D01*
X152998153Y-44664900D02*
X153811700Y-45478447D01*
X123508643Y-44664900D02*
X152998153Y-44664900D01*
X140000000Y-65382830D02*
X140000000Y-75000000D01*
X113708500Y-54465043D02*
X123508643Y-44664900D01*
X113708500Y-55853500D02*
X113708500Y-54465043D01*
X115989999Y-58134999D02*
X113708500Y-55853500D01*
X115989999Y-70630001D02*
X115989999Y-58134999D01*
X114890000Y-71730000D02*
X115989999Y-70630001D01*
X150888100Y-49111900D02*
X140000000Y-60000000D01*
X152998153Y-49111900D02*
X150888100Y-49111900D01*
X153556700Y-48553353D02*
X152998153Y-49111900D01*
X153556700Y-47763447D02*
X153556700Y-48553353D01*
X152998153Y-47204900D02*
X153556700Y-47763447D01*
X150557930Y-47204900D02*
X152998153Y-47204900D01*
X136471330Y-61291500D02*
X150557930Y-47204900D01*
X128800198Y-61291500D02*
X136471330Y-61291500D01*
X128548500Y-61039802D02*
X128800198Y-61291500D01*
X128548500Y-58960198D02*
X128548500Y-61039802D01*
X124588302Y-55000000D02*
X128548500Y-58960198D01*
X115000000Y-55000000D02*
X124588302Y-55000000D01*
X119433197Y-101910000D02*
X114890000Y-101910000D01*
X123814697Y-106291500D02*
X119433197Y-101910000D01*
X140000000Y-105000000D02*
X138708500Y-106291500D01*
X138708500Y-106291500D02*
X123814697Y-106291500D01*
X115471200Y-86820000D02*
X115519200Y-86868000D01*
X182741500Y-80116500D02*
X182741500Y-93133500D01*
X182741500Y-93133500D02*
X181750000Y-94125000D01*
X181750000Y-79125000D02*
X182741500Y-80116500D01*
X182741500Y-78133500D02*
X181750000Y-79125000D01*
X182741500Y-60991500D02*
X182741500Y-78133500D01*
X181750000Y-60000000D02*
X182741500Y-60991500D01*
X179241500Y-78366500D02*
X181750000Y-80875000D01*
X179241500Y-60991500D02*
X179241500Y-78366500D01*
X178250000Y-60000000D02*
X179241500Y-60991500D01*
X179273200Y-82499200D02*
X179273200Y-94851800D01*
X179273200Y-94851800D02*
X178250000Y-95875000D01*
X177258500Y-62741500D02*
X177258500Y-80484500D01*
X178250000Y-61750000D02*
X177258500Y-62741500D01*
X177258500Y-80484500D02*
X179273200Y-82499200D01*
X181750000Y-61608000D02*
X181750000Y-61750000D01*
X175920400Y-55778400D02*
X181750000Y-61608000D01*
X167843200Y-55778400D02*
X175920400Y-55778400D01*
X181750000Y-58447570D02*
X181750000Y-60000000D01*
X168920830Y-45618400D02*
X181750000Y-58447570D01*
X167843200Y-45618400D02*
X168920830Y-45618400D01*
X153811700Y-89288300D02*
X152500000Y-90600000D01*
X168678200Y-48158400D02*
X153811700Y-63024900D01*
X153811700Y-63024900D02*
X153811700Y-89288300D01*
X152144430Y-58318400D02*
X150360700Y-60102130D01*
X150360700Y-90960700D02*
X152500000Y-93100000D01*
X152603200Y-58318400D02*
X152144430Y-58318400D01*
X150360700Y-60102130D02*
X150360700Y-90960700D01*
X153556700Y-87043300D02*
X152500000Y-88100000D01*
X153556700Y-56731900D02*
X153556700Y-87043300D01*
X152603200Y-55778400D02*
X153556700Y-56731900D01*
X131386500Y-73377470D02*
X131386500Y-103453500D01*
X131386500Y-103453500D02*
X129840000Y-105000000D01*
X151525570Y-53238400D02*
X131386500Y-73377470D01*
X152603200Y-53238400D02*
X151525570Y-53238400D01*
X151525570Y-50698400D02*
X131131500Y-71092470D01*
X152603200Y-50698400D02*
X151525570Y-50698400D01*
X131131500Y-71092470D02*
X131131500Y-88708500D01*
X131131500Y-88708500D02*
X129840000Y-90000000D01*
X150015143Y-48158400D02*
X129840000Y-68333543D01*
X152603200Y-48158400D02*
X150015143Y-48158400D01*
X129840000Y-68333543D02*
X129840000Y-75000000D01*
X144221600Y-45618400D02*
X129840000Y-60000000D01*
X152603200Y-45618400D02*
X144221600Y-45618400D01*
G04 #@! TA.AperFunction,Conductor*
G36*
X179704096Y-94633816D02*
G01*
X179732351Y-94654968D01*
X180413181Y-95335797D01*
X180446666Y-95397120D01*
X180449500Y-95423478D01*
X180449500Y-96347870D01*
X180449501Y-96347876D01*
X180455908Y-96407483D01*
X180506202Y-96542328D01*
X180506206Y-96542335D01*
X180592452Y-96657544D01*
X180592455Y-96657547D01*
X180707664Y-96743793D01*
X180707671Y-96743797D01*
X180842517Y-96794091D01*
X180842516Y-96794091D01*
X180849444Y-96794835D01*
X180902127Y-96800500D01*
X182053500Y-96800499D01*
X182120539Y-96820184D01*
X182166294Y-96872987D01*
X182177500Y-96924499D01*
X182177500Y-103723521D01*
X182157815Y-103790560D01*
X182141181Y-103811202D01*
X181914202Y-104038181D01*
X181852879Y-104071666D01*
X181826521Y-104074500D01*
X180902129Y-104074500D01*
X180902123Y-104074501D01*
X180842516Y-104080908D01*
X180707671Y-104131202D01*
X180707664Y-104131206D01*
X180592455Y-104217452D01*
X180592452Y-104217455D01*
X180506206Y-104332664D01*
X180506202Y-104332671D01*
X180455908Y-104467516D01*
X180451309Y-104510298D01*
X180424571Y-104574849D01*
X180367178Y-104614697D01*
X180297353Y-104617190D01*
X180240339Y-104584723D01*
X177858819Y-102203203D01*
X177825334Y-102141880D01*
X177822500Y-102115522D01*
X177822500Y-96924000D01*
X177842185Y-96856961D01*
X177894989Y-96811206D01*
X177946500Y-96800000D01*
X178000000Y-96800000D01*
X178500000Y-96800000D01*
X179097828Y-96800000D01*
X179097844Y-96799999D01*
X179157372Y-96793598D01*
X179157379Y-96793596D01*
X179292086Y-96743354D01*
X179292093Y-96743350D01*
X179407187Y-96657190D01*
X179407190Y-96657187D01*
X179493350Y-96542093D01*
X179493354Y-96542086D01*
X179543596Y-96407379D01*
X179543598Y-96407372D01*
X179549999Y-96347844D01*
X179550000Y-96347827D01*
X179550000Y-96125000D01*
X178500000Y-96125000D01*
X178500000Y-96800000D01*
X178000000Y-96800000D01*
X178000000Y-95999000D01*
X178019685Y-95931961D01*
X178072489Y-95886206D01*
X178124000Y-95875000D01*
X178250000Y-95875000D01*
X178250000Y-95749000D01*
X178269685Y-95681961D01*
X178322489Y-95636206D01*
X178374000Y-95625000D01*
X179550000Y-95625000D01*
X179550000Y-95402172D01*
X179549999Y-95402155D01*
X179543598Y-95342627D01*
X179543596Y-95342620D01*
X179493354Y-95207913D01*
X179493350Y-95207906D01*
X179407190Y-95092812D01*
X179402416Y-95088038D01*
X179368931Y-95026715D01*
X179373915Y-94957023D01*
X179402416Y-94912676D01*
X179407542Y-94907548D01*
X179407546Y-94907546D01*
X179493796Y-94792331D01*
X179528488Y-94699317D01*
X179570358Y-94643383D01*
X179635823Y-94618965D01*
X179704096Y-94633816D01*
G37*
G04 #@! TD.AperFunction*
G04 #@! TA.AperFunction,Conductor*
G36*
X143581160Y-45248585D02*
G01*
X143626915Y-45301389D01*
X143636859Y-45370547D01*
X143607834Y-45434103D01*
X143601802Y-45440581D01*
X130679203Y-58363181D01*
X130617880Y-58396666D01*
X130591522Y-58399500D01*
X128939977Y-58399500D01*
X128858362Y-58407838D01*
X128789669Y-58395068D01*
X128758080Y-58372161D01*
X125046685Y-54660767D01*
X125046683Y-54660764D01*
X124934608Y-54548689D01*
X124934606Y-54548687D01*
X124806000Y-54474436D01*
X124805999Y-54474435D01*
X124762075Y-54462666D01*
X124722134Y-54451964D01*
X124722133Y-54451963D01*
X124678518Y-54440277D01*
X124662555Y-54436000D01*
X124662554Y-54436000D01*
X116584898Y-54436000D01*
X116517859Y-54416315D01*
X116474413Y-54368295D01*
X116421728Y-54264895D01*
X116368870Y-54161155D01*
X116331237Y-54109357D01*
X116220798Y-53957350D01*
X116220794Y-53957345D01*
X116042654Y-53779205D01*
X116042649Y-53779201D01*
X115838848Y-53631132D01*
X115838847Y-53631131D01*
X115838845Y-53631130D01*
X115660466Y-53540241D01*
X115609671Y-53492267D01*
X115592876Y-53424446D01*
X115615413Y-53358312D01*
X115629075Y-53342082D01*
X116637086Y-52334071D01*
X119750000Y-52334071D01*
X119750000Y-52585928D01*
X119789397Y-52834669D01*
X119867219Y-53074184D01*
X119981557Y-53298583D01*
X120055748Y-53400697D01*
X120055748Y-53400698D01*
X120672421Y-52784024D01*
X120685359Y-52815258D01*
X120767437Y-52938097D01*
X120871903Y-53042563D01*
X120994742Y-53124641D01*
X121025974Y-53137577D01*
X120409300Y-53754250D01*
X120511416Y-53828442D01*
X120735815Y-53942780D01*
X120975330Y-54020602D01*
X121224072Y-54060000D01*
X121475928Y-54060000D01*
X121724669Y-54020602D01*
X121964184Y-53942780D01*
X122188575Y-53828446D01*
X122188581Y-53828442D01*
X122290697Y-53754250D01*
X122290698Y-53754250D01*
X121674025Y-53137578D01*
X121705258Y-53124641D01*
X121828097Y-53042563D01*
X121932563Y-52938097D01*
X122014641Y-52815258D01*
X122027577Y-52784025D01*
X122644250Y-53400698D01*
X122644250Y-53400697D01*
X122718442Y-53298581D01*
X122718446Y-53298575D01*
X122832780Y-53074184D01*
X122910602Y-52834669D01*
X122950000Y-52585928D01*
X122950000Y-52334071D01*
X122910602Y-52085330D01*
X122832780Y-51845815D01*
X122718442Y-51621416D01*
X122644250Y-51519301D01*
X122644250Y-51519300D01*
X122027577Y-52135973D01*
X122014641Y-52104742D01*
X121932563Y-51981903D01*
X121828097Y-51877437D01*
X121705258Y-51795359D01*
X121674024Y-51782421D01*
X122290698Y-51165748D01*
X122188583Y-51091557D01*
X121964184Y-50977219D01*
X121724669Y-50899397D01*
X121475928Y-50860000D01*
X121224072Y-50860000D01*
X120975330Y-50899397D01*
X120735815Y-50977219D01*
X120511413Y-51091559D01*
X120409301Y-51165747D01*
X120409300Y-51165748D01*
X121025974Y-51782421D01*
X120994742Y-51795359D01*
X120871903Y-51877437D01*
X120767437Y-51981903D01*
X120685359Y-52104742D01*
X120672421Y-52135974D01*
X120055748Y-51519300D01*
X120055747Y-51519301D01*
X119981559Y-51621413D01*
X119867219Y-51845815D01*
X119789397Y-52085330D01*
X119750000Y-52334071D01*
X116637086Y-52334071D01*
X123705940Y-45265219D01*
X123767263Y-45231734D01*
X123793621Y-45228900D01*
X143514121Y-45228900D01*
X143581160Y-45248585D01*
G37*
G04 #@! TD.AperFunction*
G04 #@! TA.AperFunction,Conductor*
G36*
X184442539Y-43344585D02*
G01*
X184488294Y-43397389D01*
X184499500Y-43448900D01*
X184499500Y-114375500D01*
X184479815Y-114442539D01*
X184427011Y-114488294D01*
X184375500Y-114499500D01*
X110624500Y-114499500D01*
X110557461Y-114479815D01*
X110511706Y-114427011D01*
X110500500Y-114375500D01*
X110500500Y-107222844D01*
X176950000Y-107222844D01*
X176956401Y-107282372D01*
X176956403Y-107282379D01*
X177006645Y-107417086D01*
X177006649Y-107417093D01*
X177092809Y-107532187D01*
X177092812Y-107532190D01*
X177207906Y-107618350D01*
X177207913Y-107618354D01*
X177342620Y-107668596D01*
X177342627Y-107668598D01*
X177402155Y-107674999D01*
X177402172Y-107675000D01*
X178000000Y-107675000D01*
X178500000Y-107675000D01*
X179097828Y-107675000D01*
X179097844Y-107674999D01*
X179157372Y-107668598D01*
X179157379Y-107668596D01*
X179292086Y-107618354D01*
X179292093Y-107618350D01*
X179407187Y-107532190D01*
X179407190Y-107532187D01*
X179493350Y-107417093D01*
X179493354Y-107417086D01*
X179543596Y-107282379D01*
X179543598Y-107282372D01*
X179549999Y-107222844D01*
X179550000Y-107222827D01*
X179550000Y-107000000D01*
X178500000Y-107000000D01*
X178500000Y-107675000D01*
X178000000Y-107675000D01*
X178000000Y-107000000D01*
X176950000Y-107000000D01*
X176950000Y-107222844D01*
X110500500Y-107222844D01*
X110500500Y-99244071D01*
X119640000Y-99244071D01*
X119640000Y-99495928D01*
X119679397Y-99744669D01*
X119757219Y-99984184D01*
X119871557Y-100208583D01*
X119945748Y-100310697D01*
X119945748Y-100310698D01*
X120562421Y-99694024D01*
X120575359Y-99725258D01*
X120657437Y-99848097D01*
X120761903Y-99952563D01*
X120884742Y-100034641D01*
X120915974Y-100047577D01*
X120299300Y-100664250D01*
X120401416Y-100738442D01*
X120625815Y-100852780D01*
X120865330Y-100930602D01*
X121114072Y-100970000D01*
X121365928Y-100970000D01*
X121614669Y-100930602D01*
X121854184Y-100852780D01*
X122078575Y-100738446D01*
X122078581Y-100738442D01*
X122180697Y-100664250D01*
X122180698Y-100664250D01*
X121564025Y-100047578D01*
X121595258Y-100034641D01*
X121718097Y-99952563D01*
X121822563Y-99848097D01*
X121904641Y-99725258D01*
X121917577Y-99694025D01*
X122534250Y-100310698D01*
X122534250Y-100310697D01*
X122608442Y-100208581D01*
X122608446Y-100208575D01*
X122722780Y-99984184D01*
X122800602Y-99744669D01*
X122840000Y-99495928D01*
X122840000Y-99244071D01*
X122800602Y-98995330D01*
X122722780Y-98755815D01*
X122608442Y-98531416D01*
X122534250Y-98429301D01*
X122534250Y-98429300D01*
X121917577Y-99045973D01*
X121904641Y-99014742D01*
X121822563Y-98891903D01*
X121718097Y-98787437D01*
X121595258Y-98705359D01*
X121564024Y-98692421D01*
X122180698Y-98075748D01*
X122078583Y-98001557D01*
X121854184Y-97887219D01*
X121614669Y-97809397D01*
X121365928Y-97770000D01*
X121114072Y-97770000D01*
X120865330Y-97809397D01*
X120625815Y-97887219D01*
X120401413Y-98001559D01*
X120299301Y-98075747D01*
X120299300Y-98075748D01*
X120915974Y-98692421D01*
X120884742Y-98705359D01*
X120761903Y-98787437D01*
X120657437Y-98891903D01*
X120575359Y-99014742D01*
X120562421Y-99045974D01*
X119945748Y-98429300D01*
X119945747Y-98429301D01*
X119871559Y-98531413D01*
X119757219Y-98755815D01*
X119679397Y-98995330D01*
X119640000Y-99244071D01*
X110500500Y-99244071D01*
X110500500Y-55173167D01*
X112001500Y-55173167D01*
X112001500Y-71306209D01*
X112039935Y-71449653D01*
X112114187Y-71578261D01*
X112114189Y-71578263D01*
X112226261Y-71690335D01*
X112226267Y-71690340D01*
X113509820Y-72973893D01*
X113543305Y-73035216D01*
X113538321Y-73104908D01*
X113496449Y-73160841D01*
X113441538Y-73184047D01*
X113362301Y-73196597D01*
X113197552Y-73250128D01*
X113043211Y-73328768D01*
X112995406Y-73363501D01*
X112903072Y-73430586D01*
X112903070Y-73430588D01*
X112903069Y-73430588D01*
X112780588Y-73553069D01*
X112780588Y-73553070D01*
X112780586Y-73553072D01*
X112764824Y-73574767D01*
X112678768Y-73693211D01*
X112600128Y-73847552D01*
X112546597Y-74012302D01*
X112519500Y-74183389D01*
X112519500Y-74356611D01*
X112546598Y-74527701D01*
X112600127Y-74692445D01*
X112678768Y-74846788D01*
X112780586Y-74986928D01*
X112903072Y-75109414D01*
X113043212Y-75211232D01*
X113197555Y-75289873D01*
X113362299Y-75343402D01*
X113533389Y-75370500D01*
X113533390Y-75370500D01*
X113706610Y-75370500D01*
X113706611Y-75370500D01*
X113877701Y-75343402D01*
X114042445Y-75289873D01*
X114145707Y-75237258D01*
X114214374Y-75224363D01*
X114279114Y-75250639D01*
X114319372Y-75307745D01*
X114326000Y-75347744D01*
X114326000Y-85235102D01*
X114306315Y-85302141D01*
X114258295Y-85345587D01*
X114051151Y-85451132D01*
X113847350Y-85599201D01*
X113847345Y-85599205D01*
X113669205Y-85777345D01*
X113669201Y-85777350D01*
X113521132Y-85981151D01*
X113406760Y-86205616D01*
X113328910Y-86445214D01*
X113289500Y-86694038D01*
X113289500Y-86945961D01*
X113328910Y-87194785D01*
X113406760Y-87434383D01*
X113521132Y-87658848D01*
X113669201Y-87862649D01*
X113669205Y-87862654D01*
X113669207Y-87862656D01*
X113847344Y-88040793D01*
X113847345Y-88040794D01*
X113847344Y-88040794D01*
X113853661Y-88045383D01*
X113896327Y-88100714D01*
X113902305Y-88170327D01*
X113869699Y-88232122D01*
X113808860Y-88266479D01*
X113761378Y-88268174D01*
X113706611Y-88259500D01*
X113533389Y-88259500D01*
X113493728Y-88265781D01*
X113362302Y-88286597D01*
X113197552Y-88340128D01*
X113043211Y-88418768D01*
X112979323Y-88465186D01*
X112903072Y-88520586D01*
X112903070Y-88520588D01*
X112903069Y-88520588D01*
X112780588Y-88643069D01*
X112780588Y-88643070D01*
X112780586Y-88643072D01*
X112752781Y-88681342D01*
X112678768Y-88783211D01*
X112600128Y-88937552D01*
X112546597Y-89102302D01*
X112519500Y-89273389D01*
X112519500Y-89446611D01*
X112526773Y-89492529D01*
X112544197Y-89602545D01*
X112546598Y-89617701D01*
X112600127Y-89782445D01*
X112678768Y-89936788D01*
X112780586Y-90076928D01*
X112903072Y-90199414D01*
X113043212Y-90301232D01*
X113197555Y-90379873D01*
X113362299Y-90433402D01*
X113533389Y-90460500D01*
X113533390Y-90460500D01*
X113706610Y-90460500D01*
X113706611Y-90460500D01*
X113877701Y-90433402D01*
X114042445Y-90379873D01*
X114196788Y-90301232D01*
X114336928Y-90199414D01*
X114459414Y-90076928D01*
X114561232Y-89936788D01*
X114639873Y-89782445D01*
X114693402Y-89617701D01*
X114720500Y-89446611D01*
X114720500Y-89273389D01*
X114710854Y-89212486D01*
X116449500Y-89212486D01*
X116449500Y-89507513D01*
X116471294Y-89673050D01*
X116488007Y-89799993D01*
X116562212Y-90076930D01*
X116564361Y-90084951D01*
X116564364Y-90084961D01*
X116677254Y-90357500D01*
X116677258Y-90357510D01*
X116824761Y-90612993D01*
X117004352Y-90847040D01*
X117004358Y-90847047D01*
X117212952Y-91055641D01*
X117212959Y-91055647D01*
X117447006Y-91235238D01*
X117702489Y-91382741D01*
X117702490Y-91382741D01*
X117702493Y-91382743D01*
X117790226Y-91419083D01*
X117945116Y-91483241D01*
X117975048Y-91495639D01*
X118260007Y-91571993D01*
X118552494Y-91610500D01*
X118552501Y-91610500D01*
X118847499Y-91610500D01*
X118847506Y-91610500D01*
X119139993Y-91571993D01*
X119424952Y-91495639D01*
X119697507Y-91382743D01*
X119952994Y-91235238D01*
X120187042Y-91055646D01*
X120395646Y-90847042D01*
X120575238Y-90612994D01*
X120722743Y-90357507D01*
X120835639Y-90084952D01*
X120911993Y-89799993D01*
X120950500Y-89507506D01*
X120950500Y-89273389D01*
X122679500Y-89273389D01*
X122679500Y-89446611D01*
X122686773Y-89492529D01*
X122704197Y-89602545D01*
X122706598Y-89617701D01*
X122760127Y-89782445D01*
X122838768Y-89936788D01*
X122940586Y-90076928D01*
X123063072Y-90199414D01*
X123203212Y-90301232D01*
X123357555Y-90379873D01*
X123522299Y-90433402D01*
X123693389Y-90460500D01*
X123693390Y-90460500D01*
X123866610Y-90460500D01*
X123866611Y-90460500D01*
X124037701Y-90433402D01*
X124202445Y-90379873D01*
X124356788Y-90301232D01*
X124496928Y-90199414D01*
X124619414Y-90076928D01*
X124721232Y-89936788D01*
X124799873Y-89782445D01*
X124853402Y-89617701D01*
X124880500Y-89446611D01*
X124880500Y-89273389D01*
X124853402Y-89102299D01*
X124799873Y-88937555D01*
X124721232Y-88783212D01*
X124619414Y-88643072D01*
X124496928Y-88520586D01*
X124356788Y-88418768D01*
X124202445Y-88340127D01*
X124037701Y-88286598D01*
X124037699Y-88286597D01*
X124037698Y-88286597D01*
X123906271Y-88265781D01*
X123866611Y-88259500D01*
X123693389Y-88259500D01*
X123653728Y-88265781D01*
X123522302Y-88286597D01*
X123357552Y-88340128D01*
X123203211Y-88418768D01*
X123139323Y-88465186D01*
X123063072Y-88520586D01*
X123063070Y-88520588D01*
X123063069Y-88520588D01*
X122940588Y-88643069D01*
X122940588Y-88643070D01*
X122940586Y-88643072D01*
X122912781Y-88681342D01*
X122838768Y-88783211D01*
X122760128Y-88937552D01*
X122706597Y-89102302D01*
X122679500Y-89273389D01*
X120950500Y-89273389D01*
X120950500Y-89212494D01*
X120911993Y-88920007D01*
X120835639Y-88635048D01*
X120722743Y-88362493D01*
X120667309Y-88266479D01*
X120575238Y-88107006D01*
X120395647Y-87872959D01*
X120395641Y-87872952D01*
X120187047Y-87664358D01*
X120187040Y-87664352D01*
X119952993Y-87484761D01*
X119697510Y-87337258D01*
X119697500Y-87337254D01*
X119424961Y-87224364D01*
X119424954Y-87224362D01*
X119424952Y-87224361D01*
X119139993Y-87148007D01*
X119091113Y-87141571D01*
X118847513Y-87109500D01*
X118847506Y-87109500D01*
X118552494Y-87109500D01*
X118552486Y-87109500D01*
X118274085Y-87146153D01*
X118260007Y-87148007D01*
X118085428Y-87194785D01*
X117975048Y-87224361D01*
X117975038Y-87224364D01*
X117702499Y-87337254D01*
X117702489Y-87337258D01*
X117447006Y-87484761D01*
X117212959Y-87664352D01*
X117212952Y-87664358D01*
X117004358Y-87872952D01*
X117004352Y-87872959D01*
X116824761Y-88107006D01*
X116677258Y-88362489D01*
X116677254Y-88362499D01*
X116564364Y-88635038D01*
X116564361Y-88635048D01*
X116511946Y-88830667D01*
X116488008Y-88920004D01*
X116488006Y-88920015D01*
X116449500Y-89212486D01*
X114710854Y-89212486D01*
X114693402Y-89102299D01*
X114639873Y-88937555D01*
X114561232Y-88783212D01*
X114459414Y-88643072D01*
X114407482Y-88591140D01*
X114373997Y-88529817D01*
X114378981Y-88460125D01*
X114420853Y-88404192D01*
X114486317Y-88379775D01*
X114514561Y-88380986D01*
X114515212Y-88381089D01*
X114515215Y-88381090D01*
X114764038Y-88420500D01*
X114764039Y-88420500D01*
X115015961Y-88420500D01*
X115015962Y-88420500D01*
X115264785Y-88381090D01*
X115504379Y-88303241D01*
X115728845Y-88188870D01*
X115932656Y-88040793D01*
X116110793Y-87862656D01*
X116258870Y-87658845D01*
X116373241Y-87434379D01*
X116451090Y-87194785D01*
X116490500Y-86945962D01*
X116490500Y-86694038D01*
X116451090Y-86445215D01*
X116373241Y-86205621D01*
X116373239Y-86205618D01*
X116373239Y-86205616D01*
X116331747Y-86124184D01*
X116258870Y-85981155D01*
X116156753Y-85840602D01*
X116110798Y-85777350D01*
X116110794Y-85777345D01*
X115932654Y-85599205D01*
X115932649Y-85599201D01*
X115728848Y-85451132D01*
X115728847Y-85451131D01*
X115728845Y-85451130D01*
X115521705Y-85345587D01*
X115470909Y-85297612D01*
X115454000Y-85235102D01*
X115454000Y-84154071D01*
X119640000Y-84154071D01*
X119640000Y-84405928D01*
X119679397Y-84654669D01*
X119757219Y-84894184D01*
X119871557Y-85118583D01*
X119945748Y-85220697D01*
X119945748Y-85220698D01*
X120562421Y-84604024D01*
X120575359Y-84635258D01*
X120657437Y-84758097D01*
X120761903Y-84862563D01*
X120884742Y-84944641D01*
X120915974Y-84957577D01*
X120299300Y-85574250D01*
X120401416Y-85648442D01*
X120625815Y-85762780D01*
X120865330Y-85840602D01*
X121114072Y-85880000D01*
X121365928Y-85880000D01*
X121614669Y-85840602D01*
X121854184Y-85762780D01*
X122078575Y-85648446D01*
X122078581Y-85648442D01*
X122180697Y-85574250D01*
X122180698Y-85574250D01*
X121564025Y-84957578D01*
X121595258Y-84944641D01*
X121718097Y-84862563D01*
X121822563Y-84758097D01*
X121904641Y-84635258D01*
X121917577Y-84604025D01*
X122534250Y-85220698D01*
X122534250Y-85220697D01*
X122608442Y-85118581D01*
X122608446Y-85118575D01*
X122722780Y-84894184D01*
X122800602Y-84654669D01*
X122840000Y-84405928D01*
X122840000Y-84154071D01*
X122800602Y-83905330D01*
X122722780Y-83665815D01*
X122608442Y-83441416D01*
X122534250Y-83339301D01*
X122534250Y-83339300D01*
X121917577Y-83955973D01*
X121904641Y-83924742D01*
X121822563Y-83801903D01*
X121718097Y-83697437D01*
X121595258Y-83615359D01*
X121564024Y-83602421D01*
X122180698Y-82985748D01*
X122078583Y-82911557D01*
X121854184Y-82797219D01*
X121614669Y-82719397D01*
X121365928Y-82680000D01*
X121114072Y-82680000D01*
X120865330Y-82719397D01*
X120625815Y-82797219D01*
X120401413Y-82911559D01*
X120299301Y-82985747D01*
X120299300Y-82985748D01*
X120915974Y-83602421D01*
X120884742Y-83615359D01*
X120761903Y-83697437D01*
X120657437Y-83801903D01*
X120575359Y-83924742D01*
X120562421Y-83955974D01*
X119945748Y-83339300D01*
X119945747Y-83339301D01*
X119871559Y-83441413D01*
X119757219Y-83665815D01*
X119679397Y-83905330D01*
X119640000Y-84154071D01*
X115454000Y-84154071D01*
X115454000Y-74122486D01*
X116449500Y-74122486D01*
X116449500Y-74417513D01*
X116476846Y-74625215D01*
X116488007Y-74709993D01*
X116562212Y-74986930D01*
X116564361Y-74994951D01*
X116564364Y-74994961D01*
X116677254Y-75267500D01*
X116677258Y-75267510D01*
X116824761Y-75522993D01*
X117004352Y-75757040D01*
X117004358Y-75757047D01*
X117212952Y-75965641D01*
X117212959Y-75965647D01*
X117447006Y-76145238D01*
X117702489Y-76292741D01*
X117702490Y-76292741D01*
X117702493Y-76292743D01*
X117975048Y-76405639D01*
X118260007Y-76481993D01*
X118552494Y-76520500D01*
X118552501Y-76520500D01*
X118847499Y-76520500D01*
X118847506Y-76520500D01*
X119139993Y-76481993D01*
X119424952Y-76405639D01*
X119697507Y-76292743D01*
X119952994Y-76145238D01*
X120187042Y-75965646D01*
X120395646Y-75757042D01*
X120575238Y-75522994D01*
X120722743Y-75267507D01*
X120835639Y-74994952D01*
X120911993Y-74709993D01*
X120950500Y-74417506D01*
X120950500Y-74183389D01*
X122679500Y-74183389D01*
X122679500Y-74356611D01*
X122706598Y-74527701D01*
X122760127Y-74692445D01*
X122838768Y-74846788D01*
X122940586Y-74986928D01*
X123063072Y-75109414D01*
X123203212Y-75211232D01*
X123357555Y-75289873D01*
X123522299Y-75343402D01*
X123693389Y-75370500D01*
X123693390Y-75370500D01*
X123866610Y-75370500D01*
X123866611Y-75370500D01*
X124037701Y-75343402D01*
X124202445Y-75289873D01*
X124356788Y-75211232D01*
X124496928Y-75109414D01*
X124619414Y-74986928D01*
X124721232Y-74846788D01*
X124799873Y-74692445D01*
X124853402Y-74527701D01*
X124880500Y-74356611D01*
X124880500Y-74183389D01*
X124853402Y-74012299D01*
X124799873Y-73847555D01*
X124721232Y-73693212D01*
X124619414Y-73553072D01*
X124496928Y-73430586D01*
X124356788Y-73328768D01*
X124202445Y-73250127D01*
X124037701Y-73196598D01*
X124037699Y-73196597D01*
X124037698Y-73196597D01*
X123906271Y-73175781D01*
X123866611Y-73169500D01*
X123693389Y-73169500D01*
X123653728Y-73175781D01*
X123522302Y-73196597D01*
X123439927Y-73223362D01*
X123401683Y-73235789D01*
X123357552Y-73250128D01*
X123203211Y-73328768D01*
X123155406Y-73363501D01*
X123063072Y-73430586D01*
X123063070Y-73430588D01*
X123063069Y-73430588D01*
X122940588Y-73553069D01*
X122940588Y-73553070D01*
X122940586Y-73553072D01*
X122924824Y-73574767D01*
X122838768Y-73693211D01*
X122760128Y-73847552D01*
X122706597Y-74012302D01*
X122679500Y-74183389D01*
X120950500Y-74183389D01*
X120950500Y-74122494D01*
X120911993Y-73830007D01*
X120835639Y-73545048D01*
X120722743Y-73272493D01*
X120689820Y-73215469D01*
X120575238Y-73017006D01*
X120395647Y-72782959D01*
X120395641Y-72782952D01*
X120187047Y-72574358D01*
X120187040Y-72574352D01*
X119952993Y-72394761D01*
X119697510Y-72247258D01*
X119697500Y-72247254D01*
X119424961Y-72134364D01*
X119424954Y-72134362D01*
X119424952Y-72134361D01*
X119139993Y-72058007D01*
X119091113Y-72051571D01*
X118847513Y-72019500D01*
X118847506Y-72019500D01*
X118552494Y-72019500D01*
X118552486Y-72019500D01*
X118274085Y-72056153D01*
X118260007Y-72058007D01*
X118130691Y-72092657D01*
X117975048Y-72134361D01*
X117975038Y-72134364D01*
X117702499Y-72247254D01*
X117702489Y-72247258D01*
X117447006Y-72394761D01*
X117212959Y-72574352D01*
X117212952Y-72574358D01*
X117004358Y-72782952D01*
X117004352Y-72782959D01*
X116824761Y-73017006D01*
X116677258Y-73272489D01*
X116677254Y-73272499D01*
X116564364Y-73545038D01*
X116564361Y-73545048D01*
X116488008Y-73830004D01*
X116488006Y-73830015D01*
X116449500Y-74122486D01*
X115454000Y-74122486D01*
X115454000Y-73482206D01*
X115453999Y-73482200D01*
X115442400Y-73438911D01*
X115440170Y-73430588D01*
X115422194Y-73363499D01*
X115423857Y-73293652D01*
X115463019Y-73235789D01*
X115500029Y-73215469D01*
X115499879Y-73215105D01*
X115503192Y-73213732D01*
X115503665Y-73213472D01*
X115504379Y-73213241D01*
X115728845Y-73098870D01*
X115932656Y-72950793D01*
X116110793Y-72772656D01*
X116258870Y-72568845D01*
X116373241Y-72344379D01*
X116451090Y-72104785D01*
X116490500Y-71855962D01*
X116490500Y-71604038D01*
X116451090Y-71355215D01*
X116379249Y-71134114D01*
X116377255Y-71064274D01*
X116409500Y-71008116D01*
X116441312Y-70976305D01*
X116515564Y-70847697D01*
X116554000Y-70704253D01*
X116554000Y-70555748D01*
X116554000Y-70548153D01*
X116553999Y-70548135D01*
X116553999Y-69064071D01*
X119640000Y-69064071D01*
X119640000Y-69315928D01*
X119679397Y-69564669D01*
X119757219Y-69804184D01*
X119871557Y-70028583D01*
X119945748Y-70130697D01*
X119945748Y-70130698D01*
X120562421Y-69514024D01*
X120575359Y-69545258D01*
X120657437Y-69668097D01*
X120761903Y-69772563D01*
X120884742Y-69854641D01*
X120915974Y-69867577D01*
X120299300Y-70484250D01*
X120401416Y-70558442D01*
X120625815Y-70672780D01*
X120865330Y-70750602D01*
X121114072Y-70790000D01*
X121365928Y-70790000D01*
X121614669Y-70750602D01*
X121854184Y-70672780D01*
X122078575Y-70558446D01*
X122078581Y-70558442D01*
X122180697Y-70484250D01*
X122180698Y-70484250D01*
X121564025Y-69867578D01*
X121595258Y-69854641D01*
X121718097Y-69772563D01*
X121822563Y-69668097D01*
X121904641Y-69545258D01*
X121917577Y-69514025D01*
X122534250Y-70130698D01*
X122534250Y-70130697D01*
X122608442Y-70028581D01*
X122608446Y-70028575D01*
X122722780Y-69804184D01*
X122800602Y-69564669D01*
X122840000Y-69315928D01*
X122840000Y-69064071D01*
X122800602Y-68815330D01*
X122722780Y-68575815D01*
X122608442Y-68351416D01*
X122534250Y-68249301D01*
X122534250Y-68249300D01*
X121917577Y-68865973D01*
X121904641Y-68834742D01*
X121822563Y-68711903D01*
X121718097Y-68607437D01*
X121595258Y-68525359D01*
X121564024Y-68512421D01*
X122180698Y-67895748D01*
X122078583Y-67821557D01*
X121854184Y-67707219D01*
X121614669Y-67629397D01*
X121365928Y-67590000D01*
X121114072Y-67590000D01*
X120865330Y-67629397D01*
X120625815Y-67707219D01*
X120401413Y-67821559D01*
X120299301Y-67895747D01*
X120299300Y-67895748D01*
X120915974Y-68512421D01*
X120884742Y-68525359D01*
X120761903Y-68607437D01*
X120657437Y-68711903D01*
X120575359Y-68834742D01*
X120562421Y-68865974D01*
X119945748Y-68249300D01*
X119945747Y-68249301D01*
X119871559Y-68351413D01*
X119757219Y-68575815D01*
X119679397Y-68815330D01*
X119640000Y-69064071D01*
X116553999Y-69064071D01*
X116553999Y-58596266D01*
X116573684Y-58529227D01*
X116626488Y-58483472D01*
X116695646Y-58473528D01*
X116759202Y-58502553D01*
X116785386Y-58534266D01*
X116787256Y-58537505D01*
X116787257Y-58537507D01*
X116799092Y-58558006D01*
X116934761Y-58792993D01*
X117114352Y-59027040D01*
X117114358Y-59027047D01*
X117322952Y-59235641D01*
X117322959Y-59235647D01*
X117557006Y-59415238D01*
X117812489Y-59562741D01*
X117812490Y-59562741D01*
X117812493Y-59562743D01*
X117954031Y-59621370D01*
X118069874Y-59669354D01*
X118085048Y-59675639D01*
X118370007Y-59751993D01*
X118662494Y-59790500D01*
X118662501Y-59790500D01*
X118957499Y-59790500D01*
X118957506Y-59790500D01*
X119249993Y-59751993D01*
X119534952Y-59675639D01*
X119807507Y-59562743D01*
X120062994Y-59415238D01*
X120297042Y-59235646D01*
X120505646Y-59027042D01*
X120685238Y-58792994D01*
X120832743Y-58537507D01*
X120945639Y-58264952D01*
X121021993Y-57979993D01*
X121060500Y-57687506D01*
X121060500Y-57453389D01*
X122789500Y-57453389D01*
X122789500Y-57626611D01*
X122794266Y-57656705D01*
X122815171Y-57788695D01*
X122816598Y-57797701D01*
X122870127Y-57962445D01*
X122948768Y-58116788D01*
X123050586Y-58256928D01*
X123173072Y-58379414D01*
X123313212Y-58481232D01*
X123467555Y-58559873D01*
X123632299Y-58613402D01*
X123803389Y-58640500D01*
X123803390Y-58640500D01*
X123976610Y-58640500D01*
X123976611Y-58640500D01*
X124147701Y-58613402D01*
X124312445Y-58559873D01*
X124466788Y-58481232D01*
X124606928Y-58379414D01*
X124729414Y-58256928D01*
X124831232Y-58116788D01*
X124909873Y-57962445D01*
X124963402Y-57797701D01*
X124990500Y-57626611D01*
X124990500Y-57453389D01*
X124963402Y-57282299D01*
X124909873Y-57117555D01*
X124831232Y-56963212D01*
X124729414Y-56823072D01*
X124606928Y-56700586D01*
X124466788Y-56598768D01*
X124312445Y-56520127D01*
X124147701Y-56466598D01*
X124147699Y-56466597D01*
X124147698Y-56466597D01*
X124016271Y-56445781D01*
X123976611Y-56439500D01*
X123803389Y-56439500D01*
X123763728Y-56445781D01*
X123632302Y-56466597D01*
X123467552Y-56520128D01*
X123313211Y-56598768D01*
X123243582Y-56649357D01*
X123173072Y-56700586D01*
X123173070Y-56700588D01*
X123173069Y-56700588D01*
X123050588Y-56823069D01*
X123050588Y-56823070D01*
X123050586Y-56823072D01*
X123006859Y-56883256D01*
X122948768Y-56963211D01*
X122870128Y-57117552D01*
X122816597Y-57282302D01*
X122812930Y-57305456D01*
X122789500Y-57453389D01*
X121060500Y-57453389D01*
X121060500Y-57392494D01*
X121021993Y-57100007D01*
X120945639Y-56815048D01*
X120941433Y-56804895D01*
X120898227Y-56700586D01*
X120832743Y-56542493D01*
X120830185Y-56538063D01*
X120685238Y-56287006D01*
X120505647Y-56052959D01*
X120505641Y-56052952D01*
X120297047Y-55844358D01*
X120297040Y-55844352D01*
X120221484Y-55786376D01*
X120180281Y-55729948D01*
X120176126Y-55660202D01*
X120210338Y-55599282D01*
X120272055Y-55566529D01*
X120296970Y-55564000D01*
X124303324Y-55564000D01*
X124370363Y-55583685D01*
X124391005Y-55600319D01*
X127948181Y-59157495D01*
X127981666Y-59218818D01*
X127984500Y-59245176D01*
X127984500Y-61114054D01*
X128022935Y-61257498D01*
X128097187Y-61386106D01*
X128097189Y-61386108D01*
X128219632Y-61508551D01*
X128219637Y-61508555D01*
X128453894Y-61742813D01*
X128453895Y-61742814D01*
X128453897Y-61742815D01*
X128582498Y-61817063D01*
X128582499Y-61817063D01*
X128582502Y-61817065D01*
X128725946Y-61855501D01*
X128725949Y-61855501D01*
X128882047Y-61855501D01*
X128882063Y-61855500D01*
X135221065Y-61855500D01*
X135288104Y-61875185D01*
X135333859Y-61927989D01*
X135343803Y-61997147D01*
X135314778Y-62060703D01*
X135308746Y-62067181D01*
X129493698Y-67882228D01*
X129388689Y-67987236D01*
X129388685Y-67987242D01*
X129314436Y-68115844D01*
X129314435Y-68115847D01*
X129276000Y-68259291D01*
X129276000Y-73275500D01*
X129256315Y-73342539D01*
X129203511Y-73388294D01*
X129152000Y-73399500D01*
X128939982Y-73399500D01*
X128837203Y-73410000D01*
X128837202Y-73410001D01*
X128775081Y-73430586D01*
X128670667Y-73465185D01*
X128670662Y-73465187D01*
X128521342Y-73557289D01*
X128397289Y-73681342D01*
X128305187Y-73830662D01*
X128305186Y-73830665D01*
X128250001Y-73997202D01*
X128250001Y-73997203D01*
X128250000Y-73997203D01*
X128239500Y-74099982D01*
X128239500Y-75900017D01*
X128250000Y-76002796D01*
X128297201Y-76145238D01*
X128305186Y-76169335D01*
X128397288Y-76318656D01*
X128521344Y-76442712D01*
X128670665Y-76534814D01*
X128837202Y-76589999D01*
X128939990Y-76600500D01*
X130443500Y-76600500D01*
X130510539Y-76620185D01*
X130556294Y-76672989D01*
X130567500Y-76724500D01*
X130567500Y-88275500D01*
X130547815Y-88342539D01*
X130495011Y-88388294D01*
X130443500Y-88399500D01*
X128939982Y-88399500D01*
X128837203Y-88410000D01*
X128837202Y-88410001D01*
X128754669Y-88437349D01*
X128670667Y-88465185D01*
X128670662Y-88465187D01*
X128521342Y-88557289D01*
X128397289Y-88681342D01*
X128305187Y-88830662D01*
X128305186Y-88830665D01*
X128250001Y-88997202D01*
X128250001Y-88997203D01*
X128250000Y-88997203D01*
X128239500Y-89099982D01*
X128239500Y-90900017D01*
X128250000Y-91002796D01*
X128267511Y-91055641D01*
X128305186Y-91169335D01*
X128397288Y-91318656D01*
X128521344Y-91442712D01*
X128670665Y-91534814D01*
X128837202Y-91589999D01*
X128939990Y-91600500D01*
X128939995Y-91600500D01*
X130698500Y-91600500D01*
X130765539Y-91620185D01*
X130811294Y-91672989D01*
X130822500Y-91724500D01*
X130822500Y-103168522D01*
X130813855Y-103197962D01*
X130807332Y-103227949D01*
X130803577Y-103232964D01*
X130802815Y-103235561D01*
X130786181Y-103256203D01*
X130679203Y-103363181D01*
X130617880Y-103396666D01*
X130591522Y-103399500D01*
X128939982Y-103399500D01*
X128837203Y-103410000D01*
X128837202Y-103410001D01*
X128776466Y-103430127D01*
X128670667Y-103465185D01*
X128670662Y-103465187D01*
X128521342Y-103557289D01*
X128397289Y-103681342D01*
X128305187Y-103830662D01*
X128305185Y-103830667D01*
X128291087Y-103873212D01*
X128250001Y-103997202D01*
X128250001Y-103997203D01*
X128250000Y-103997203D01*
X128239500Y-104099982D01*
X128239500Y-105603500D01*
X128219815Y-105670539D01*
X128167011Y-105716294D01*
X128115500Y-105727500D01*
X124192456Y-105727500D01*
X124125417Y-105707815D01*
X124079662Y-105655011D01*
X124069718Y-105585853D01*
X124098743Y-105522297D01*
X124154135Y-105485569D01*
X124202445Y-105469873D01*
X124356788Y-105391232D01*
X124496928Y-105289414D01*
X124619414Y-105166928D01*
X124721232Y-105026788D01*
X124799873Y-104872445D01*
X124853402Y-104707701D01*
X124880500Y-104536611D01*
X124880500Y-104363389D01*
X124853402Y-104192299D01*
X124799873Y-104027555D01*
X124721232Y-103873212D01*
X124619414Y-103733072D01*
X124496928Y-103610586D01*
X124356788Y-103508768D01*
X124202445Y-103430127D01*
X124037701Y-103376598D01*
X124037699Y-103376597D01*
X124037698Y-103376597D01*
X123906271Y-103355781D01*
X123866611Y-103349500D01*
X123693389Y-103349500D01*
X123653728Y-103355781D01*
X123522302Y-103376597D01*
X123357552Y-103430128D01*
X123203211Y-103508768D01*
X123177081Y-103527753D01*
X123063072Y-103610586D01*
X123063070Y-103610588D01*
X123063069Y-103610588D01*
X122940588Y-103733069D01*
X122940588Y-103733070D01*
X122940586Y-103733072D01*
X122910208Y-103774884D01*
X122838768Y-103873211D01*
X122760128Y-104027550D01*
X122721677Y-104145890D01*
X122682239Y-104203565D01*
X122617880Y-104230763D01*
X122549034Y-104218848D01*
X122516065Y-104195252D01*
X119891580Y-101570767D01*
X119891578Y-101570764D01*
X119779503Y-101458689D01*
X119779501Y-101458687D01*
X119650893Y-101384435D01*
X119507450Y-101346000D01*
X119507449Y-101346000D01*
X116474898Y-101346000D01*
X116407859Y-101326315D01*
X116364413Y-101278295D01*
X116361513Y-101272605D01*
X116258870Y-101071155D01*
X116156753Y-100930602D01*
X116110798Y-100867350D01*
X116110794Y-100867345D01*
X115932654Y-100689205D01*
X115932649Y-100689201D01*
X115728848Y-100541132D01*
X115728847Y-100541131D01*
X115728845Y-100541130D01*
X115658747Y-100505413D01*
X115504383Y-100426760D01*
X115264785Y-100348910D01*
X115015962Y-100309500D01*
X114764038Y-100309500D01*
X114639626Y-100329205D01*
X114515214Y-100348910D01*
X114275616Y-100426760D01*
X114051151Y-100541132D01*
X113847350Y-100689201D01*
X113847345Y-100689205D01*
X113669205Y-100867345D01*
X113669201Y-100867350D01*
X113521132Y-101071151D01*
X113406760Y-101295616D01*
X113328910Y-101535214D01*
X113289500Y-101784038D01*
X113289500Y-102035961D01*
X113328910Y-102284785D01*
X113406760Y-102524383D01*
X113454561Y-102618196D01*
X113520091Y-102746806D01*
X113521132Y-102748848D01*
X113669201Y-102952649D01*
X113669205Y-102952654D01*
X113669207Y-102952656D01*
X113847344Y-103130793D01*
X113847345Y-103130794D01*
X113847344Y-103130794D01*
X113853661Y-103135383D01*
X113896327Y-103190714D01*
X113902305Y-103260327D01*
X113869699Y-103322122D01*
X113808860Y-103356479D01*
X113761378Y-103358174D01*
X113706611Y-103349500D01*
X113533389Y-103349500D01*
X113493728Y-103355781D01*
X113362302Y-103376597D01*
X113197552Y-103430128D01*
X113043211Y-103508768D01*
X113017081Y-103527753D01*
X112903072Y-103610586D01*
X112903070Y-103610588D01*
X112903069Y-103610588D01*
X112780588Y-103733069D01*
X112780588Y-103733070D01*
X112780586Y-103733072D01*
X112750208Y-103774884D01*
X112678768Y-103873211D01*
X112600128Y-104027552D01*
X112546597Y-104192302D01*
X112524365Y-104332671D01*
X112519500Y-104363389D01*
X112519500Y-104536611D01*
X112546598Y-104707701D01*
X112600127Y-104872445D01*
X112678768Y-105026788D01*
X112780586Y-105166928D01*
X112903072Y-105289414D01*
X113043212Y-105391232D01*
X113197555Y-105469873D01*
X113362299Y-105523402D01*
X113533389Y-105550500D01*
X113533390Y-105550500D01*
X113706610Y-105550500D01*
X113706611Y-105550500D01*
X113877701Y-105523402D01*
X114042445Y-105469873D01*
X114196788Y-105391232D01*
X114336928Y-105289414D01*
X114459414Y-105166928D01*
X114561232Y-105026788D01*
X114639873Y-104872445D01*
X114693402Y-104707701D01*
X114720500Y-104536611D01*
X114720500Y-104363389D01*
X114693402Y-104192299D01*
X114639873Y-104027555D01*
X114561232Y-103873212D01*
X114459414Y-103733072D01*
X114407482Y-103681140D01*
X114373997Y-103619817D01*
X114378981Y-103550125D01*
X114420853Y-103494192D01*
X114486317Y-103469775D01*
X114514561Y-103470986D01*
X114515212Y-103471089D01*
X114515215Y-103471090D01*
X114764038Y-103510500D01*
X114764039Y-103510500D01*
X115015961Y-103510500D01*
X115015962Y-103510500D01*
X115264785Y-103471090D01*
X115504379Y-103393241D01*
X115728845Y-103278870D01*
X115932656Y-103130793D01*
X116110793Y-102952656D01*
X116258870Y-102748845D01*
X116364413Y-102541705D01*
X116412388Y-102490909D01*
X116474898Y-102474000D01*
X117213030Y-102474000D01*
X117280069Y-102493685D01*
X117325824Y-102546489D01*
X117335768Y-102615647D01*
X117306743Y-102679203D01*
X117288516Y-102696376D01*
X117212959Y-102754352D01*
X117212952Y-102754358D01*
X117004358Y-102962952D01*
X117004352Y-102962959D01*
X116824761Y-103197006D01*
X116677258Y-103452489D01*
X116677254Y-103452499D01*
X116564364Y-103725038D01*
X116564361Y-103725048D01*
X116516194Y-103904813D01*
X116488008Y-104010004D01*
X116488006Y-104010015D01*
X116449500Y-104302486D01*
X116449500Y-104597513D01*
X116475354Y-104793884D01*
X116488007Y-104889993D01*
X116562212Y-105166930D01*
X116564361Y-105174951D01*
X116564364Y-105174961D01*
X116677254Y-105447500D01*
X116677258Y-105447510D01*
X116824761Y-105702993D01*
X117004352Y-105937040D01*
X117004358Y-105937047D01*
X117212952Y-106145641D01*
X117212959Y-106145647D01*
X117447006Y-106325238D01*
X117702489Y-106472741D01*
X117702490Y-106472741D01*
X117702493Y-106472743D01*
X117975048Y-106585639D01*
X118260007Y-106661993D01*
X118552494Y-106700500D01*
X118552501Y-106700500D01*
X118847499Y-106700500D01*
X118847506Y-106700500D01*
X119139993Y-106661993D01*
X119424952Y-106585639D01*
X119697507Y-106472743D01*
X119952994Y-106325238D01*
X120187042Y-106145646D01*
X120395646Y-105937042D01*
X120575238Y-105702994D01*
X120722743Y-105447507D01*
X120835639Y-105174952D01*
X120911993Y-104889993D01*
X120950500Y-104597506D01*
X120950500Y-104524282D01*
X120970185Y-104457243D01*
X121022989Y-104411488D01*
X121092147Y-104401544D01*
X121155703Y-104430569D01*
X121162181Y-104436601D01*
X123468393Y-106742813D01*
X123468394Y-106742814D01*
X123468396Y-106742815D01*
X123596997Y-106817063D01*
X123596998Y-106817063D01*
X123597001Y-106817065D01*
X123740445Y-106855501D01*
X123740448Y-106855501D01*
X123896546Y-106855501D01*
X123896562Y-106855500D01*
X138782751Y-106855500D01*
X138782753Y-106855500D01*
X138926196Y-106817065D01*
X139054804Y-106742813D01*
X139159813Y-106637804D01*
X139159813Y-106637802D01*
X139170016Y-106627600D01*
X139170020Y-106627594D01*
X139278117Y-106519497D01*
X139339438Y-106486014D01*
X139404111Y-106489248D01*
X139574063Y-106544469D01*
X139625214Y-106561090D01*
X139749626Y-106580795D01*
X139874038Y-106600500D01*
X139874039Y-106600500D01*
X140125961Y-106600500D01*
X140125962Y-106600500D01*
X140374785Y-106561090D01*
X140614379Y-106483241D01*
X140838845Y-106368870D01*
X141042656Y-106220793D01*
X141220793Y-106042656D01*
X141368870Y-105838845D01*
X141483241Y-105614379D01*
X141561090Y-105374785D01*
X141600500Y-105125962D01*
X141600500Y-104874038D01*
X141561090Y-104625215D01*
X141483241Y-104385621D01*
X141483239Y-104385618D01*
X141483239Y-104385616D01*
X141440882Y-104302486D01*
X141368870Y-104161155D01*
X141310567Y-104080908D01*
X141220798Y-103957350D01*
X141220794Y-103957345D01*
X141042654Y-103779205D01*
X141042649Y-103779201D01*
X140838848Y-103631132D01*
X140838847Y-103631131D01*
X140838845Y-103631130D01*
X140768747Y-103595413D01*
X140614383Y-103516760D01*
X140374785Y-103438910D01*
X140319332Y-103430127D01*
X140125962Y-103399500D01*
X139874038Y-103399500D01*
X139807738Y-103410001D01*
X139625214Y-103438910D01*
X139385616Y-103516760D01*
X139161151Y-103631132D01*
X138957350Y-103779201D01*
X138957345Y-103779205D01*
X138779205Y-103957345D01*
X138779201Y-103957350D01*
X138631132Y-104161151D01*
X138516760Y-104385616D01*
X138441517Y-104617190D01*
X138438910Y-104625215D01*
X138399500Y-104874038D01*
X138399500Y-105125962D01*
X138438910Y-105374785D01*
X138496003Y-105550500D01*
X138500774Y-105565181D01*
X138502769Y-105635023D01*
X138466689Y-105694856D01*
X138403988Y-105725684D01*
X138382843Y-105727500D01*
X131564500Y-105727500D01*
X131497461Y-105707815D01*
X131451706Y-105655011D01*
X131440500Y-105603500D01*
X131440500Y-104248477D01*
X131460185Y-104181438D01*
X131476815Y-104160800D01*
X131722594Y-103915020D01*
X131722599Y-103915017D01*
X131732802Y-103904813D01*
X131732804Y-103904813D01*
X131837813Y-103799804D01*
X131912065Y-103671196D01*
X131950500Y-103527753D01*
X131950500Y-103379248D01*
X131950500Y-94902135D01*
X157999500Y-94902135D01*
X157999500Y-97497870D01*
X157999501Y-97497876D01*
X158005908Y-97557483D01*
X158056202Y-97692328D01*
X158056206Y-97692335D01*
X158142452Y-97807544D01*
X158142455Y-97807547D01*
X158257664Y-97893793D01*
X158257671Y-97893797D01*
X158392517Y-97944091D01*
X158392516Y-97944091D01*
X158399444Y-97944835D01*
X158452127Y-97950500D01*
X161547872Y-97950499D01*
X161607483Y-97944091D01*
X161742331Y-97893796D01*
X161857546Y-97807546D01*
X161943796Y-97692331D01*
X161994091Y-97557483D01*
X162000500Y-97497873D01*
X162000499Y-94902128D01*
X161994091Y-94842517D01*
X161984597Y-94817063D01*
X161943797Y-94707671D01*
X161943793Y-94707664D01*
X161857547Y-94592455D01*
X161857544Y-94592452D01*
X161742335Y-94506206D01*
X161742328Y-94506202D01*
X161607482Y-94455908D01*
X161607483Y-94455908D01*
X161547883Y-94449501D01*
X161547881Y-94449500D01*
X161547873Y-94449500D01*
X161547864Y-94449500D01*
X158452129Y-94449500D01*
X158452123Y-94449501D01*
X158392516Y-94455908D01*
X158257671Y-94506202D01*
X158257664Y-94506206D01*
X158142455Y-94592452D01*
X158142452Y-94592455D01*
X158056206Y-94707664D01*
X158056202Y-94707671D01*
X158005908Y-94842517D01*
X157999857Y-94898802D01*
X157999501Y-94902123D01*
X157999500Y-94902135D01*
X131950500Y-94902135D01*
X131950500Y-73662448D01*
X131970185Y-73595409D01*
X131986819Y-73574767D01*
X139224319Y-66337267D01*
X139285642Y-66303782D01*
X139355334Y-66308766D01*
X139411267Y-66350638D01*
X139435684Y-66416102D01*
X139436000Y-66424948D01*
X139436000Y-73415102D01*
X139416315Y-73482141D01*
X139368295Y-73525587D01*
X139161151Y-73631132D01*
X138957350Y-73779201D01*
X138957345Y-73779205D01*
X138779205Y-73957345D01*
X138779201Y-73957350D01*
X138631132Y-74161151D01*
X138516760Y-74385616D01*
X138438910Y-74625214D01*
X138399500Y-74874038D01*
X138399500Y-75125961D01*
X138438910Y-75374785D01*
X138516760Y-75614383D01*
X138631132Y-75838848D01*
X138779201Y-76042649D01*
X138779205Y-76042654D01*
X138957345Y-76220794D01*
X138957350Y-76220798D01*
X139135117Y-76349952D01*
X139161155Y-76368870D01*
X139304184Y-76441747D01*
X139385616Y-76483239D01*
X139385618Y-76483239D01*
X139385621Y-76483241D01*
X139625215Y-76561090D01*
X139874038Y-76600500D01*
X139874039Y-76600500D01*
X140125961Y-76600500D01*
X140125962Y-76600500D01*
X140374785Y-76561090D01*
X140614379Y-76483241D01*
X140838845Y-76368870D01*
X141042656Y-76220793D01*
X141220793Y-76042656D01*
X141368870Y-75838845D01*
X141483241Y-75614379D01*
X141561090Y-75374785D01*
X141600500Y-75125962D01*
X141600500Y-74874038D01*
X141561090Y-74625215D01*
X141483241Y-74385621D01*
X141483239Y-74385618D01*
X141483239Y-74385616D01*
X141441747Y-74304184D01*
X141368870Y-74161155D01*
X141324425Y-74099982D01*
X141220798Y-73957350D01*
X141220794Y-73957345D01*
X141042654Y-73779205D01*
X141042649Y-73779201D01*
X140838848Y-73631132D01*
X140838847Y-73631131D01*
X140838845Y-73631130D01*
X140631705Y-73525587D01*
X140580909Y-73477612D01*
X140564000Y-73415102D01*
X140564000Y-65667808D01*
X140583685Y-65600769D01*
X140600319Y-65580127D01*
X149840019Y-56340427D01*
X149901342Y-56306942D01*
X149971034Y-56311926D01*
X150026967Y-56353798D01*
X150051384Y-56419262D01*
X150051700Y-56428108D01*
X150051700Y-56453941D01*
X150054612Y-56490946D01*
X150054613Y-56490952D01*
X150100634Y-56649354D01*
X150100635Y-56649357D01*
X150184605Y-56791343D01*
X150184612Y-56791352D01*
X150301247Y-56907987D01*
X150301250Y-56907989D01*
X150301253Y-56907992D01*
X150358196Y-56941668D01*
X150405879Y-56992738D01*
X150418382Y-57061479D01*
X150391736Y-57126069D01*
X150358196Y-57155132D01*
X150301253Y-57188808D01*
X150301247Y-57188812D01*
X150184612Y-57305447D01*
X150184605Y-57305456D01*
X150100635Y-57447442D01*
X150100634Y-57447445D01*
X150054613Y-57605847D01*
X150054612Y-57605853D01*
X150051700Y-57642858D01*
X150051700Y-58993941D01*
X150054612Y-59030946D01*
X150054613Y-59030952D01*
X150100634Y-59189354D01*
X150100635Y-59189357D01*
X150100636Y-59189359D01*
X150117252Y-59217455D01*
X150188579Y-59338062D01*
X150187149Y-59338907D01*
X150195949Y-59362501D01*
X150208341Y-59394068D01*
X150208125Y-59395147D01*
X150208510Y-59396178D01*
X150201302Y-59429312D01*
X150194657Y-59462584D01*
X150193815Y-59463728D01*
X150193658Y-59464451D01*
X150172508Y-59492705D01*
X150014398Y-59650815D01*
X150014397Y-59650815D01*
X150014396Y-59650816D01*
X149909389Y-59755823D01*
X149909385Y-59755829D01*
X149835136Y-59884431D01*
X149835135Y-59884434D01*
X149796700Y-60027878D01*
X149796700Y-90886447D01*
X149796700Y-91034953D01*
X149820979Y-91125565D01*
X149832707Y-91169335D01*
X149835136Y-91178399D01*
X149909384Y-91307000D01*
X149909389Y-91307006D01*
X150021461Y-91419078D01*
X150021467Y-91419083D01*
X151059859Y-92457475D01*
X151093344Y-92518798D01*
X151090109Y-92583474D01*
X151036447Y-92748627D01*
X151036447Y-92748630D01*
X150999500Y-92981902D01*
X150999500Y-93218097D01*
X151036447Y-93451369D01*
X151036447Y-93451372D01*
X151073427Y-93565182D01*
X151075422Y-93635023D01*
X151039342Y-93694856D01*
X150976641Y-93725684D01*
X150955496Y-93727500D01*
X144576479Y-93727500D01*
X144509440Y-93707815D01*
X144488798Y-93691181D01*
X141519499Y-90721883D01*
X141486014Y-90660560D01*
X141489248Y-90595889D01*
X141561090Y-90374785D01*
X141600500Y-90125962D01*
X141600500Y-89874038D01*
X141561090Y-89625215D01*
X141483241Y-89385621D01*
X141483239Y-89385618D01*
X141483239Y-89385616D01*
X141441747Y-89304184D01*
X141368870Y-89161155D01*
X141324425Y-89099982D01*
X141220798Y-88957350D01*
X141220794Y-88957345D01*
X141042654Y-88779205D01*
X141042649Y-88779201D01*
X140838848Y-88631132D01*
X140838847Y-88631131D01*
X140838845Y-88631130D01*
X140760360Y-88591140D01*
X140614383Y-88516760D01*
X140374785Y-88438910D01*
X140125962Y-88399500D01*
X139874038Y-88399500D01*
X139807738Y-88410001D01*
X139625214Y-88438910D01*
X139385616Y-88516760D01*
X139161151Y-88631132D01*
X138957350Y-88779201D01*
X138957345Y-88779205D01*
X138779205Y-88957345D01*
X138779201Y-88957350D01*
X138631132Y-89161151D01*
X138516760Y-89385616D01*
X138438910Y-89625214D01*
X138399500Y-89874038D01*
X138399500Y-90125961D01*
X138438910Y-90374785D01*
X138516760Y-90614383D01*
X138631132Y-90838848D01*
X138779201Y-91042649D01*
X138779205Y-91042654D01*
X138957345Y-91220794D01*
X138957350Y-91220798D01*
X139135117Y-91349952D01*
X139161155Y-91368870D01*
X139259694Y-91419078D01*
X139385616Y-91483239D01*
X139385618Y-91483239D01*
X139385621Y-91483241D01*
X139625215Y-91561090D01*
X139874038Y-91600500D01*
X139874039Y-91600500D01*
X140125961Y-91600500D01*
X140125962Y-91600500D01*
X140374785Y-91561090D01*
X140595888Y-91489248D01*
X140665724Y-91487254D01*
X140721882Y-91519498D01*
X143945196Y-94742813D01*
X143945197Y-94742814D01*
X143945199Y-94742815D01*
X144073800Y-94817063D01*
X144073801Y-94817063D01*
X144073804Y-94817065D01*
X144217248Y-94855501D01*
X144217251Y-94855501D01*
X144373349Y-94855501D01*
X144373365Y-94855500D01*
X153067787Y-94855500D01*
X153067789Y-94855500D01*
X153211232Y-94817065D01*
X153254072Y-94792331D01*
X153339840Y-94742813D01*
X153444849Y-94637804D01*
X153444849Y-94637802D01*
X153455053Y-94627599D01*
X153455057Y-94627594D01*
X154402794Y-93679857D01*
X154402799Y-93679853D01*
X154413002Y-93669649D01*
X154413004Y-93669649D01*
X154518013Y-93564640D01*
X154592265Y-93436032D01*
X154617339Y-93342454D01*
X154630700Y-93292589D01*
X154630700Y-93144083D01*
X154630700Y-83702135D01*
X157999500Y-83702135D01*
X157999500Y-86297870D01*
X157999501Y-86297876D01*
X158005908Y-86357483D01*
X158056202Y-86492328D01*
X158056206Y-86492335D01*
X158142452Y-86607544D01*
X158142455Y-86607547D01*
X158257664Y-86693793D01*
X158257671Y-86693797D01*
X158392517Y-86744091D01*
X158392516Y-86744091D01*
X158399444Y-86744835D01*
X158452127Y-86750500D01*
X161547872Y-86750499D01*
X161607483Y-86744091D01*
X161742331Y-86693796D01*
X161857546Y-86607546D01*
X161943796Y-86492331D01*
X161994091Y-86357483D01*
X162000500Y-86297873D01*
X162000499Y-83702128D01*
X161994091Y-83642517D01*
X161943796Y-83507669D01*
X161943795Y-83507668D01*
X161943793Y-83507664D01*
X161857547Y-83392455D01*
X161857544Y-83392452D01*
X161742335Y-83306206D01*
X161742328Y-83306202D01*
X161607482Y-83255908D01*
X161607483Y-83255908D01*
X161547883Y-83249501D01*
X161547881Y-83249500D01*
X161547873Y-83249500D01*
X161547864Y-83249500D01*
X158452129Y-83249500D01*
X158452123Y-83249501D01*
X158392516Y-83255908D01*
X158257671Y-83306202D01*
X158257664Y-83306206D01*
X158142455Y-83392452D01*
X158142452Y-83392455D01*
X158056206Y-83507664D01*
X158056202Y-83507671D01*
X158005908Y-83642517D01*
X158000004Y-83697437D01*
X157999501Y-83702123D01*
X157999500Y-83702135D01*
X154630700Y-83702135D01*
X154630700Y-81347844D01*
X176950000Y-81347844D01*
X176956401Y-81407372D01*
X176956403Y-81407379D01*
X177006645Y-81542086D01*
X177006649Y-81542093D01*
X177092809Y-81657187D01*
X177092812Y-81657190D01*
X177207906Y-81743350D01*
X177207913Y-81743354D01*
X177342620Y-81793596D01*
X177342627Y-81793598D01*
X177402155Y-81799999D01*
X177402172Y-81800000D01*
X178000000Y-81800000D01*
X178000000Y-81125000D01*
X176950000Y-81125000D01*
X176950000Y-81347844D01*
X154630700Y-81347844D01*
X154630700Y-63415502D01*
X154650385Y-63348463D01*
X154667019Y-63327821D01*
X155771996Y-62222844D01*
X176950000Y-62222844D01*
X176956401Y-62282372D01*
X176956403Y-62282379D01*
X177006645Y-62417086D01*
X177006649Y-62417093D01*
X177092809Y-62532187D01*
X177092812Y-62532190D01*
X177207906Y-62618350D01*
X177207913Y-62618354D01*
X177342620Y-62668596D01*
X177342627Y-62668598D01*
X177402155Y-62674999D01*
X177402172Y-62675000D01*
X178000000Y-62675000D01*
X178000000Y-62000000D01*
X176950000Y-62000000D01*
X176950000Y-62222844D01*
X155771996Y-62222844D01*
X165742622Y-52252219D01*
X165803945Y-52218734D01*
X165830303Y-52215900D01*
X166782190Y-52215900D01*
X166849229Y-52235585D01*
X166894984Y-52288389D01*
X166904928Y-52357547D01*
X166882508Y-52412785D01*
X166763415Y-52576702D01*
X166673194Y-52753767D01*
X166673193Y-52753770D01*
X166611787Y-52942762D01*
X166611787Y-52942764D01*
X166580700Y-53139039D01*
X166580700Y-53337761D01*
X166583955Y-53358312D01*
X166611787Y-53534037D01*
X166673193Y-53723029D01*
X166673194Y-53723032D01*
X166726904Y-53828442D01*
X166763413Y-53900094D01*
X166880219Y-54060864D01*
X166880221Y-54060866D01*
X167020739Y-54201384D01*
X167100260Y-54259158D01*
X167107024Y-54264439D01*
X167111198Y-54267937D01*
X167211253Y-54367992D01*
X167276937Y-54406837D01*
X167284722Y-54413362D01*
X167298688Y-54434326D01*
X167315879Y-54452738D01*
X167317728Y-54462906D01*
X167323460Y-54471510D01*
X167323874Y-54496697D01*
X167328382Y-54521479D01*
X167324439Y-54531034D01*
X167324610Y-54541370D01*
X167311343Y-54562781D01*
X167301736Y-54586069D01*
X167291322Y-54595092D01*
X167287809Y-54600763D01*
X167281071Y-54603975D01*
X167268196Y-54615132D01*
X167211253Y-54648808D01*
X167211246Y-54648813D01*
X167115054Y-54745004D01*
X167100261Y-54757639D01*
X167020736Y-54815418D01*
X166880221Y-54955933D01*
X166763413Y-55116705D01*
X166673194Y-55293767D01*
X166673193Y-55293770D01*
X166611787Y-55482762D01*
X166580700Y-55679039D01*
X166580700Y-55877760D01*
X166611787Y-56074037D01*
X166673193Y-56263029D01*
X166673194Y-56263032D01*
X166757306Y-56428108D01*
X166763413Y-56440094D01*
X166880219Y-56600864D01*
X166880221Y-56600866D01*
X167020739Y-56741384D01*
X167100260Y-56799158D01*
X167107024Y-56804439D01*
X167111198Y-56807937D01*
X167211253Y-56907992D01*
X167276937Y-56946837D01*
X167284722Y-56953362D01*
X167298688Y-56974326D01*
X167315879Y-56992738D01*
X167317728Y-57002906D01*
X167323460Y-57011510D01*
X167323874Y-57036697D01*
X167328382Y-57061479D01*
X167324439Y-57071034D01*
X167324610Y-57081370D01*
X167311343Y-57102781D01*
X167301736Y-57126069D01*
X167291322Y-57135092D01*
X167287809Y-57140763D01*
X167281071Y-57143975D01*
X167268196Y-57155132D01*
X167211253Y-57188808D01*
X167211246Y-57188813D01*
X167115054Y-57285004D01*
X167100261Y-57297639D01*
X167020736Y-57355418D01*
X166880221Y-57495933D01*
X166763413Y-57656705D01*
X166673194Y-57833767D01*
X166673193Y-57833770D01*
X166611787Y-58022762D01*
X166580700Y-58219039D01*
X166580700Y-58417760D01*
X166611787Y-58614037D01*
X166673193Y-58803029D01*
X166673194Y-58803032D01*
X166734904Y-58924142D01*
X166763413Y-58980094D01*
X166880219Y-59140864D01*
X166880221Y-59140866D01*
X167020739Y-59281384D01*
X167081595Y-59325597D01*
X167099914Y-59338907D01*
X167100260Y-59339158D01*
X167107024Y-59344439D01*
X167111198Y-59347937D01*
X167211253Y-59447992D01*
X167276937Y-59486837D01*
X167284722Y-59493362D01*
X167298688Y-59514326D01*
X167315879Y-59532738D01*
X167317728Y-59542906D01*
X167323460Y-59551510D01*
X167323874Y-59576697D01*
X167328382Y-59601479D01*
X167324439Y-59611034D01*
X167324610Y-59621370D01*
X167311343Y-59642781D01*
X167301736Y-59666069D01*
X167291322Y-59675092D01*
X167287809Y-59680763D01*
X167281071Y-59683975D01*
X167268196Y-59695132D01*
X167211253Y-59728808D01*
X167211246Y-59728813D01*
X167115054Y-59825004D01*
X167100261Y-59837639D01*
X167020736Y-59895418D01*
X166880221Y-60035933D01*
X166763413Y-60196705D01*
X166673194Y-60373767D01*
X166673193Y-60373770D01*
X166611787Y-60562762D01*
X166580700Y-60759039D01*
X166580700Y-60957760D01*
X166611787Y-61154037D01*
X166673193Y-61343029D01*
X166673194Y-61343032D01*
X166757534Y-61508556D01*
X166763413Y-61520094D01*
X166880219Y-61680864D01*
X166880221Y-61680866D01*
X167020739Y-61821384D01*
X167067697Y-61855500D01*
X167094791Y-61875185D01*
X167100260Y-61879158D01*
X167115051Y-61891790D01*
X167211253Y-61987992D01*
X167353241Y-62071964D01*
X167395016Y-62084101D01*
X167511647Y-62117986D01*
X167511650Y-62117986D01*
X167511652Y-62117987D01*
X167548666Y-62120900D01*
X167548674Y-62120900D01*
X169807726Y-62120900D01*
X169807734Y-62120900D01*
X169844748Y-62117987D01*
X169844750Y-62117986D01*
X169844752Y-62117986D01*
X169902701Y-62101150D01*
X170003159Y-62071964D01*
X170145147Y-61987992D01*
X170261792Y-61871347D01*
X170345764Y-61729359D01*
X170391787Y-61570948D01*
X170394700Y-61533934D01*
X170394700Y-60182866D01*
X170391787Y-60145852D01*
X170345764Y-59987441D01*
X170261792Y-59845453D01*
X170261790Y-59845451D01*
X170261787Y-59845447D01*
X170145152Y-59728812D01*
X170145144Y-59728806D01*
X170088204Y-59695132D01*
X170040521Y-59644063D01*
X170028017Y-59575321D01*
X170054662Y-59510732D01*
X170088204Y-59481668D01*
X170145147Y-59447992D01*
X170261792Y-59331347D01*
X170345764Y-59189359D01*
X170391787Y-59030948D01*
X170394700Y-58993934D01*
X170394700Y-57642866D01*
X170391787Y-57605852D01*
X170345764Y-57447441D01*
X170261792Y-57305453D01*
X170261790Y-57305451D01*
X170261787Y-57305447D01*
X170145152Y-57188812D01*
X170145144Y-57188806D01*
X170088204Y-57155132D01*
X170040521Y-57104063D01*
X170028017Y-57035321D01*
X170054662Y-56970732D01*
X170088204Y-56941668D01*
X170145147Y-56907992D01*
X170261792Y-56791347D01*
X170345764Y-56649359D01*
X170383310Y-56520127D01*
X170391786Y-56490952D01*
X170391787Y-56490947D01*
X170394485Y-56456670D01*
X170419369Y-56391382D01*
X170475601Y-56349912D01*
X170518103Y-56342400D01*
X175635422Y-56342400D01*
X175702461Y-56362085D01*
X175723103Y-56378719D01*
X178207203Y-58862819D01*
X178240688Y-58924142D01*
X178235704Y-58993834D01*
X178193832Y-59049767D01*
X178128368Y-59074184D01*
X178119522Y-59074500D01*
X177402129Y-59074500D01*
X177402123Y-59074501D01*
X177342516Y-59080908D01*
X177207671Y-59131202D01*
X177207664Y-59131206D01*
X177092455Y-59217452D01*
X177092452Y-59217455D01*
X177006206Y-59332664D01*
X177006202Y-59332671D01*
X176955908Y-59467517D01*
X176951174Y-59511557D01*
X176949501Y-59527123D01*
X176949500Y-59527135D01*
X176949500Y-60472870D01*
X176949501Y-60472876D01*
X176955908Y-60532483D01*
X177006202Y-60667328D01*
X177006206Y-60667335D01*
X177092452Y-60782544D01*
X177097584Y-60787676D01*
X177131069Y-60848999D01*
X177126085Y-60918691D01*
X177097584Y-60963038D01*
X177092809Y-60967812D01*
X177006649Y-61082906D01*
X177006645Y-61082913D01*
X176956403Y-61217620D01*
X176956401Y-61217627D01*
X176950000Y-61277155D01*
X176950000Y-61500000D01*
X178126000Y-61500000D01*
X178193039Y-61519685D01*
X178238794Y-61572489D01*
X178250000Y-61624000D01*
X178250000Y-61750000D01*
X178376000Y-61750000D01*
X178443039Y-61769685D01*
X178488794Y-61822489D01*
X178500000Y-61874000D01*
X178500000Y-62675000D01*
X178553500Y-62675000D01*
X178620539Y-62694685D01*
X178666294Y-62747489D01*
X178677500Y-62799000D01*
X178677500Y-78075500D01*
X178657815Y-78142539D01*
X178605011Y-78188294D01*
X178553500Y-78199500D01*
X177402129Y-78199500D01*
X177402123Y-78199501D01*
X177342516Y-78205908D01*
X177207671Y-78256202D01*
X177207664Y-78256206D01*
X177092455Y-78342452D01*
X177092452Y-78342455D01*
X177006206Y-78457664D01*
X177006202Y-78457671D01*
X176955908Y-78592517D01*
X176949501Y-78652116D01*
X176949500Y-78652135D01*
X176949500Y-79597870D01*
X176949501Y-79597876D01*
X176955908Y-79657483D01*
X177006202Y-79792328D01*
X177006206Y-79792335D01*
X177092452Y-79907544D01*
X177097584Y-79912676D01*
X177131069Y-79973999D01*
X177126085Y-80043691D01*
X177097584Y-80088038D01*
X177092809Y-80092812D01*
X177006649Y-80207906D01*
X177006645Y-80207913D01*
X176956403Y-80342620D01*
X176956401Y-80342627D01*
X176950000Y-80402155D01*
X176950000Y-80625000D01*
X178126000Y-80625000D01*
X178193039Y-80644685D01*
X178238794Y-80697489D01*
X178250000Y-80749000D01*
X178250000Y-80875000D01*
X178376000Y-80875000D01*
X178443039Y-80894685D01*
X178488794Y-80947489D01*
X178500000Y-80999000D01*
X178500000Y-81800000D01*
X178840200Y-81800000D01*
X178907239Y-81819685D01*
X178952994Y-81872489D01*
X178964200Y-81924000D01*
X178964200Y-93075500D01*
X178944515Y-93142539D01*
X178891711Y-93188294D01*
X178840200Y-93199500D01*
X177402129Y-93199500D01*
X177402123Y-93199501D01*
X177342516Y-93205908D01*
X177207671Y-93256202D01*
X177207664Y-93256206D01*
X177092455Y-93342452D01*
X177092452Y-93342455D01*
X177006206Y-93457664D01*
X177006202Y-93457671D01*
X176955908Y-93592517D01*
X176949501Y-93652116D01*
X176949500Y-93652135D01*
X176949500Y-94576520D01*
X176940864Y-94605929D01*
X176934362Y-94635892D01*
X176930581Y-94640946D01*
X176929815Y-94643559D01*
X176913226Y-94664157D01*
X176912198Y-94665185D01*
X176807189Y-94770193D01*
X176807185Y-94770199D01*
X176732936Y-94898801D01*
X176732936Y-94898802D01*
X176732935Y-94898804D01*
X176694500Y-95042248D01*
X176694500Y-102474752D01*
X176732935Y-102618196D01*
X176807187Y-102746804D01*
X176807189Y-102746806D01*
X176919261Y-102858878D01*
X176919267Y-102858883D01*
X177923203Y-103862819D01*
X177956688Y-103924142D01*
X177951704Y-103993834D01*
X177909832Y-104049767D01*
X177844368Y-104074184D01*
X177835522Y-104074500D01*
X177402129Y-104074500D01*
X177402123Y-104074501D01*
X177342516Y-104080908D01*
X177207671Y-104131202D01*
X177207664Y-104131206D01*
X177092455Y-104217452D01*
X177092452Y-104217455D01*
X177006206Y-104332664D01*
X177006202Y-104332671D01*
X176955908Y-104467517D01*
X176949501Y-104527116D01*
X176949500Y-104527135D01*
X176949500Y-105472870D01*
X176949501Y-105472876D01*
X176955908Y-105532483D01*
X177006202Y-105667328D01*
X177006206Y-105667335D01*
X177092452Y-105782544D01*
X177097584Y-105787676D01*
X177131069Y-105848999D01*
X177126085Y-105918691D01*
X177097584Y-105963038D01*
X177092809Y-105967812D01*
X177006649Y-106082906D01*
X177006645Y-106082913D01*
X176956403Y-106217620D01*
X176956401Y-106217627D01*
X176950000Y-106277155D01*
X176950000Y-106500000D01*
X179550000Y-106500000D01*
X179550000Y-106277172D01*
X179549999Y-106277155D01*
X179543598Y-106217627D01*
X179543596Y-106217620D01*
X179493354Y-106082913D01*
X179493350Y-106082906D01*
X179407190Y-105967812D01*
X179402416Y-105963038D01*
X179368931Y-105901715D01*
X179373915Y-105832023D01*
X179390858Y-105801009D01*
X179401043Y-105787414D01*
X179407546Y-105782546D01*
X179493796Y-105667331D01*
X179496560Y-105659918D01*
X179506621Y-105646490D01*
X179527760Y-105630678D01*
X179546427Y-105612009D01*
X179555300Y-105610078D01*
X179562571Y-105604640D01*
X179588899Y-105602766D01*
X179614699Y-105597153D01*
X179623208Y-105600326D01*
X179632264Y-105599682D01*
X179655429Y-105612342D01*
X179680165Y-105621567D01*
X179693541Y-105633157D01*
X179693576Y-105633192D01*
X180413181Y-106352797D01*
X180446666Y-106414120D01*
X180449500Y-106440478D01*
X180449500Y-107222870D01*
X180449501Y-107222876D01*
X180455908Y-107282483D01*
X180506202Y-107417328D01*
X180506206Y-107417335D01*
X180592452Y-107532544D01*
X180592455Y-107532547D01*
X180707664Y-107618793D01*
X180707671Y-107618797D01*
X180752618Y-107635561D01*
X180842517Y-107669091D01*
X180902127Y-107675500D01*
X181154358Y-107675499D01*
X181216358Y-107692112D01*
X181341504Y-107764365D01*
X181484947Y-107802800D01*
X181484948Y-107802800D01*
X181484949Y-107802800D01*
X181633451Y-107802800D01*
X181633452Y-107802800D01*
X181633453Y-107802800D01*
X181776896Y-107764365D01*
X181841703Y-107726948D01*
X181902043Y-107692112D01*
X181964043Y-107675499D01*
X182597871Y-107675499D01*
X182597872Y-107675499D01*
X182657483Y-107669091D01*
X182792331Y-107618796D01*
X182907546Y-107532546D01*
X182993796Y-107417331D01*
X183044091Y-107282483D01*
X183050500Y-107222873D01*
X183050499Y-106277128D01*
X183044091Y-106217517D01*
X183017285Y-106145647D01*
X182993797Y-106082671D01*
X182993793Y-106082664D01*
X182907547Y-105967455D01*
X182902773Y-105962681D01*
X182869288Y-105901358D01*
X182874272Y-105831666D01*
X182902773Y-105787319D01*
X182907542Y-105782548D01*
X182907546Y-105782546D01*
X182993796Y-105667331D01*
X183044091Y-105532483D01*
X183050500Y-105472873D01*
X183050499Y-104548478D01*
X183070183Y-104481440D01*
X183086818Y-104460797D01*
X183087801Y-104459814D01*
X183087804Y-104459813D01*
X183192813Y-104354804D01*
X183267065Y-104226196D01*
X183278365Y-104184023D01*
X183305501Y-104082752D01*
X183305501Y-103934247D01*
X183305501Y-103926652D01*
X183305500Y-103926634D01*
X183305500Y-95200755D01*
X183305501Y-95200742D01*
X183305501Y-95042250D01*
X183305501Y-95042248D01*
X183267065Y-94898804D01*
X183242063Y-94855500D01*
X183192813Y-94770196D01*
X183087804Y-94665187D01*
X183086818Y-94664201D01*
X183053333Y-94602878D01*
X183050499Y-94576529D01*
X183050499Y-93673478D01*
X183070184Y-93606440D01*
X183086818Y-93585797D01*
X183087801Y-93584814D01*
X183087804Y-93584813D01*
X183192813Y-93479804D01*
X183267065Y-93351196D01*
X183278935Y-93306896D01*
X183305501Y-93207752D01*
X183305501Y-93059247D01*
X183305501Y-93051652D01*
X183305500Y-93051634D01*
X183305500Y-80200755D01*
X183305501Y-80200742D01*
X183305501Y-80042250D01*
X183305501Y-80042248D01*
X183267065Y-79898804D01*
X183254843Y-79877635D01*
X183192813Y-79770196D01*
X183087804Y-79665187D01*
X183086818Y-79664201D01*
X183053333Y-79602878D01*
X183050499Y-79576529D01*
X183050499Y-78673478D01*
X183070184Y-78606440D01*
X183086818Y-78585797D01*
X183087801Y-78584814D01*
X183087804Y-78584813D01*
X183192813Y-78479804D01*
X183267065Y-78351196D01*
X183292518Y-78256204D01*
X183305501Y-78207752D01*
X183305501Y-78059247D01*
X183305501Y-78051652D01*
X183305500Y-78051634D01*
X183305500Y-61075755D01*
X183305501Y-61075742D01*
X183305501Y-60917250D01*
X183305501Y-60917248D01*
X183267065Y-60773804D01*
X183206934Y-60669655D01*
X183192813Y-60645196D01*
X183087804Y-60540187D01*
X183087801Y-60540185D01*
X183084405Y-60536789D01*
X183082125Y-60534243D01*
X183068502Y-60505658D01*
X183053333Y-60477878D01*
X183052770Y-60472648D01*
X183052066Y-60471170D01*
X183052361Y-60468844D01*
X183050499Y-60451529D01*
X183050499Y-59527128D01*
X183044091Y-59467517D01*
X183042947Y-59464451D01*
X182993797Y-59332671D01*
X182993793Y-59332664D01*
X182907547Y-59217455D01*
X182907544Y-59217452D01*
X182792335Y-59131206D01*
X182792328Y-59131202D01*
X182657482Y-59080908D01*
X182657483Y-59080908D01*
X182597883Y-59074501D01*
X182597881Y-59074500D01*
X182597873Y-59074500D01*
X182597865Y-59074500D01*
X182438000Y-59074500D01*
X182370961Y-59054815D01*
X182325206Y-59002011D01*
X182314000Y-58950500D01*
X182314000Y-58373320D01*
X182314000Y-58373318D01*
X182275565Y-58229874D01*
X182201313Y-58101266D01*
X182096304Y-57996257D01*
X182096303Y-57996256D01*
X182091973Y-57991926D01*
X182091962Y-57991916D01*
X170431019Y-46330973D01*
X170397534Y-46269650D01*
X170394700Y-46243292D01*
X170394700Y-44942873D01*
X170394699Y-44942858D01*
X170394010Y-44934108D01*
X170391787Y-44905852D01*
X170345764Y-44747441D01*
X170261792Y-44605453D01*
X170261790Y-44605451D01*
X170261787Y-44605447D01*
X170145152Y-44488812D01*
X170145143Y-44488805D01*
X170003157Y-44404835D01*
X170003154Y-44404834D01*
X169844752Y-44358813D01*
X169844746Y-44358812D01*
X169807741Y-44355900D01*
X169807734Y-44355900D01*
X167548666Y-44355900D01*
X167548658Y-44355900D01*
X167511653Y-44358812D01*
X167511647Y-44358813D01*
X167353245Y-44404834D01*
X167353242Y-44404835D01*
X167211256Y-44488805D01*
X167211246Y-44488813D01*
X167115054Y-44585004D01*
X167100261Y-44597639D01*
X167020736Y-44655418D01*
X166880221Y-44795933D01*
X166763413Y-44956705D01*
X166673194Y-45133767D01*
X166673193Y-45133770D01*
X166613482Y-45317544D01*
X166574044Y-45375220D01*
X166509686Y-45402418D01*
X166440839Y-45390503D01*
X166407870Y-45366907D01*
X165111630Y-44070667D01*
X165111628Y-44070664D01*
X164999553Y-43958589D01*
X164999551Y-43958587D01*
X164870943Y-43884335D01*
X164727500Y-43845900D01*
X164727499Y-43845900D01*
X123477271Y-43845900D01*
X123328766Y-43845900D01*
X123185322Y-43884335D01*
X123185319Y-43884336D01*
X123138248Y-43911512D01*
X123138248Y-43911513D01*
X123056718Y-43958585D01*
X123056715Y-43958587D01*
X123056712Y-43958589D01*
X112114189Y-54901112D01*
X112114185Y-54901118D01*
X112039936Y-55029720D01*
X112039935Y-55029723D01*
X112001500Y-55173167D01*
X110500500Y-55173167D01*
X110500500Y-43448900D01*
X110520185Y-43381861D01*
X110572989Y-43336106D01*
X110624500Y-43324900D01*
X184375500Y-43324900D01*
X184442539Y-43344585D01*
G37*
G04 #@! TD.AperFunction*
M02*
